<svg width="48" height="48" viewBox="0 0 48 48" fill="none" xmlns="http://www.w3.org/2000/svg">
<rect width="48" height="48" rx="24" fill="url(#paint0_linear_3887_6516)"/>
<path d="M18.3442 24.11L15.75 26.75M23.0833 28.5834H28.5833M26.75 24.9167H28.5833M20.3333 19.4167C19.7894 19.4167 19.2578 19.578 18.8055 19.8801C18.3533 20.1823 18.0008 20.6118 17.7927 21.1143C17.5845 21.6168 17.5301 22.1697 17.6362 22.7032C17.7423 23.2366 18.0042 23.7266 18.3888 24.1112C18.7734 24.4958 19.2634 24.7577 19.7968 24.8638C20.3303 24.97 20.8832 24.9155 21.3857 24.7074C21.8882 24.4992 22.3177 24.1467 22.6199 23.6945C22.922 23.2423 23.0833 22.7106 23.0833 22.1667C23.0833 21.4373 22.7936 20.7379 22.2779 20.2221C21.7622 19.7064 21.0627 19.4167 20.3333 19.4167Z" stroke="white" stroke-width="1.83333" stroke-linecap="round" stroke-linejoin="round"/>
<path d="M20.3332 15.75H31.3332C31.5763 15.75 31.8094 15.8466 31.9814 16.0185C32.1533 16.1904 32.2498 16.4236 32.2498 16.6667V31.3333C32.2498 31.5764 32.1533 31.8096 31.9814 31.9815C31.8094 32.1534 31.5763 32.25 31.3332 32.25H20.3332C20.0901 32.25 19.8569 32.1534 19.685 31.9815C19.5131 31.8096 19.4165 31.5764 19.4165 31.3333V28.5833" stroke="white" stroke-width="1.83333" stroke-linecap="round" stroke-linejoin="round"/>
<defs>
<linearGradient id="paint0_linear_3887_6516" x1="15.5" y1="-9" x2="24" y2="76.5" gradientUnits="userSpaceOnUse">
<stop offset="0.322115" stop-color="#015391"/>
<stop offset="1" stop-color="#00192B"/>
</linearGradient>
</defs>
</svg>
