<svg width="48" height="48" viewBox="0 0 48 48" fill="none" xmlns="http://www.w3.org/2000/svg">
<rect width="48" height="48" rx="24" fill="url(#paint0_linear_3887_6476)"/>
<path d="M30.0337 31.2314C30.0541 30.7302 30.2676 30.2562 30.6295 29.9088C30.9913 29.5613 31.4736 29.3673 31.9752 29.3673C32.4769 29.3673 32.9591 29.5613 33.321 29.9088C33.6829 30.2562 33.8964 30.7302 33.9168 31.2314C33.9167 31.7463 33.7121 32.2401 33.348 32.6041C32.9839 32.9682 32.4901 33.1727 31.9752 33.1727C31.4603 33.1727 30.9665 32.9682 30.6024 32.6041C30.2383 32.2401 30.0338 31.7463 30.0337 31.2314ZM23.9903 33.1938C22.9206 33.1938 22.0504 32.3252 22.0504 31.2571C22.0504 30.7426 22.2548 30.2492 22.6186 29.8854C22.9824 29.5216 23.4758 29.3172 23.9903 29.3172C24.5048 29.3172 24.9983 29.5216 25.3621 29.8854C25.7259 30.2492 25.9303 30.7426 25.9303 31.2571C25.9303 32.3252 25.06 33.1938 23.9903 33.1938ZM24.0112 14.742C25.0793 14.742 25.9496 15.6107 25.9496 16.6755C25.935 17.1797 25.7245 17.6584 25.3628 18.0099C25.001 18.3614 24.5165 18.558 24.0121 18.558C23.5076 18.558 23.0231 18.3614 22.6613 18.0099C22.2996 17.6584 22.0891 17.1797 22.0745 16.6755C22.0745 15.6091 22.9432 14.742 24.0112 14.742ZM15.9363 33.1536C14.8666 33.1536 13.9963 32.285 13.9963 31.2153C14.0109 30.7103 14.2217 30.2308 14.5841 29.8787C14.9465 29.5266 15.4318 29.3297 15.9371 29.3297C16.4423 29.3297 16.9277 29.5266 17.29 29.8787C17.6524 30.2308 17.8633 30.7103 17.8778 31.2153C17.8778 32.285 17.006 33.1536 15.9363 33.1536ZM32.6444 22.7945C32.6443 22.6265 32.5791 22.4651 32.4626 22.3441C32.3401 22.2299 32.1797 22.1652 32.0122 22.1623H24.6434V19.8364C25.3749 19.6873 26.0325 19.2903 26.505 18.7123C26.9775 18.1343 27.2359 17.4108 27.2364 16.6643C27.2176 15.8186 26.8684 15.014 26.2636 14.4226C25.6589 13.8312 24.8466 13.5 24.0008 13.5C23.1549 13.5 22.3427 13.8312 21.7379 14.4226C21.1332 15.014 20.784 15.8186 20.7652 16.6643C20.7652 18.2439 21.8622 19.5565 23.363 19.8364C23.3598 19.8444 23.3196 22.1607 23.3196 22.1607H15.9877C15.9043 22.1595 15.8215 22.1749 15.7442 22.2061C15.6668 22.2373 15.5965 22.2837 15.5373 22.3425C15.4166 22.4619 15.3464 22.6232 15.3411 22.7929L15.3556 28.106C14.0526 28.3151 12.7529 29.6598 12.7529 31.2668C12.7529 33.0491 14.2039 34.5 15.9877 34.5C17.7732 34.5 19.2242 33.0491 19.2242 31.2668C19.2242 29.7129 18.0564 28.3762 16.7582 28.106V23.6583H23.363V27.8695C23.363 27.9515 23.3823 28.0255 23.408 28.0947C22.6668 28.2324 21.9969 28.6247 21.5143 29.204C21.0318 29.7832 20.7668 30.5129 20.7652 31.2668C20.7975 32.1033 21.1525 32.8948 21.7558 33.4752C22.359 34.0556 23.1637 34.3798 24.0008 34.3798C24.8379 34.3798 25.6425 34.0556 26.2458 33.4752C26.8491 32.8948 27.2041 32.1033 27.2364 31.2668C27.2364 29.6856 26.0911 28.3714 24.5855 28.0947C24.6134 28.0229 24.6281 27.9466 24.6289 27.8695V23.6583H31.2401V28.106C29.8246 28.4164 28.7758 29.7145 28.7758 31.2668C28.8081 32.1033 29.1631 32.8948 29.7664 33.4752C30.3697 34.0556 31.1743 34.3798 32.0114 34.3798C32.8486 34.3798 33.6532 34.0556 34.2564 33.4752C34.8597 32.8948 35.2147 32.1033 35.247 31.2668C35.247 29.6614 33.9859 28.3054 32.6444 28.0883C32.6524 28.0641 32.6444 22.7929 32.6444 22.7929V22.7945Z" fill="white"/>
<defs>
<linearGradient id="paint0_linear_3887_6476" x1="15.5" y1="-9" x2="24" y2="76.5" gradientUnits="userSpaceOnUse">
<stop offset="0.322115" stop-color="#015391"/>
<stop offset="1" stop-color="#00192B"/>
</linearGradient>
</defs>
</svg>
