<svg width="48" height="48" viewBox="0 0 48 48" fill="none" xmlns="http://www.w3.org/2000/svg">
<rect width="48" height="48" rx="24" fill="url(#paint0_linear_3887_6493)"/>
<path d="M24 11C17.9245 11 13 16.0835 13 22.3553C13 26.6458 15.3038 30.3749 18.7024 32.3071L18.573 37L23.7633 33.6979C23.8416 33.6997 23.9199 33.7106 24 33.7106C30.0755 33.7106 35 28.6271 35 22.3553C35 16.0835 30.0755 11 24 11ZM23.5063 29.1848C22.5242 29.1848 21.8554 28.4381 21.8554 27.4425C21.8554 26.4259 22.541 25.6983 23.5063 25.6983C24.5095 25.6983 25.159 26.4259 25.1766 27.4425C25.1774 28.4354 24.5104 29.1848 23.5063 29.1848ZM25.7512 22.0582C25.0657 22.844 24.7867 23.5898 24.8061 24.4547V24.7971H22.3377L22.3183 24.3002C22.2629 23.3246 22.5779 22.3262 23.4148 21.2934C24.007 20.5639 24.491 19.9516 24.491 19.3003C24.491 18.6308 24.0625 18.1902 23.1341 18.1529C22.5242 18.1529 21.7798 18.3809 21.3002 18.7271L20.6683 16.6368C21.3362 16.2352 22.4477 15.8546 23.7659 15.8546C26.2167 15.8546 27.3282 17.2518 27.3282 18.8424C27.329 20.2959 26.4578 21.2534 25.7512 22.0582Z" fill="white"/>
<defs>
<linearGradient id="paint0_linear_3887_6493" x1="15.5" y1="-9" x2="24" y2="76.5" gradientUnits="userSpaceOnUse">
<stop offset="0.322115" stop-color="#015391"/>
<stop offset="1" stop-color="#00192B"/>
</linearGradient>
</defs>
</svg>
