<svg width="48" height="48" viewBox="0 0 48 48" fill="none" xmlns="http://www.w3.org/2000/svg">
<rect width="48" height="48" rx="24" fill="url(#paint0_linear_3887_6531)"/>
<path fill-rule="evenodd" clip-rule="evenodd" d="M21.1078 21.7629H17.9315C17.4654 21.759 17.0169 21.9405 16.6846 22.2673C16.3524 22.5941 16.1635 23.0396 16.1597 23.5056V30.1013C16.1683 31.0714 16.9614 31.8511 17.9315 31.8429H21.1078C21.5739 31.8468 22.0224 31.6654 22.3547 31.3385C22.687 31.0117 22.8759 30.5663 22.8797 30.1002V23.5056C22.8759 23.0396 22.687 22.5941 22.3547 22.2673C22.0224 21.9405 21.5739 21.759 21.1078 21.7629Z" stroke="white" stroke-width="1.68" stroke-linecap="round" stroke-linejoin="round"/>
<path fill-rule="evenodd" clip-rule="evenodd" d="M21.1078 15.0369H17.9315C16.9809 15.0106 16.1883 15.7586 16.1597 16.7091V17.8448C16.1883 18.7953 16.9809 19.5433 17.9315 19.5169H21.1078C22.0584 19.5433 22.851 18.7953 22.8797 17.8448V16.7091C22.851 15.7586 22.0584 15.0106 21.1078 15.0369Z" stroke="white" stroke-width="1.68" stroke-linecap="round" stroke-linejoin="round"/>
<path fill-rule="evenodd" clip-rule="evenodd" d="M26.8915 25.1164H30.0667C30.5329 25.1205 30.9817 24.9392 31.3142 24.6124C31.6468 24.2854 31.8358 23.8399 31.8396 23.3736V16.779C31.8358 16.313 31.647 15.8675 31.3147 15.5407C30.9824 15.2139 30.5338 15.0324 30.0678 15.0363H26.8915C26.4254 15.0324 25.9769 15.2139 25.6446 15.5407C25.3123 15.8675 25.1234 16.313 25.1196 16.779V23.3736C25.1234 23.8397 25.3123 24.2851 25.6446 24.6119C25.9769 24.9387 26.4254 25.1202 26.8915 25.1164Z" stroke="white" stroke-width="1.68" stroke-linecap="round" stroke-linejoin="round"/>
<path fill-rule="evenodd" clip-rule="evenodd" d="M26.8915 31.8415H30.0667C31.0177 31.8685 31.811 31.1203 31.8396 30.1694V29.0337C31.811 28.0831 31.0183 27.3352 30.0678 27.3615H26.8915C25.9409 27.3352 25.1483 28.0831 25.1196 29.0337V30.1682C25.1476 31.1192 25.9405 31.8678 26.8915 31.8415Z" stroke="white" stroke-width="1.68" stroke-linecap="round" stroke-linejoin="round"/>
<defs>
<linearGradient id="paint0_linear_3887_6531" x1="15.5" y1="-9" x2="24" y2="76.5" gradientUnits="userSpaceOnUse">
<stop offset="0.322115" stop-color="#015391"/>
<stop offset="1" stop-color="#00192B"/>
</linearGradient>
</defs>
</svg>
