<svg width="48" height="48" viewBox="0 0 48 48" fill="none" xmlns="http://www.w3.org/2000/svg">
<rect width="48" height="48" rx="24" fill="url(#paint0_linear_3887_6510)"/>
<path fill-rule="evenodd" clip-rule="evenodd" d="M21.0053 15.6364V16.2414C17.912 17.5099 15.7509 21.6763 15.8293 25.2871L15.8293 27.2926C14.2458 29.3283 14.3389 32.3636 18.2896 32.3636H21.0053C21.0053 33.1954 21.3294 33.9932 21.9065 34.5814C22.4834 35.1696 23.266 35.5 24.0821 35.5C24.8981 35.5 25.6807 35.1696 26.2576 34.5814C26.8346 33.9932 27.1588 33.1954 27.1588 32.3636H29.882C33.8251 32.3636 33.8822 29.322 32.2989 27.2862L32.343 25.2898C32.4227 21.6748 30.2573 17.5047 27.1588 16.2381V15.6364C27.1588 14.8045 26.8346 14.0068 26.2576 13.4186C25.6807 12.8304 24.8981 12.5 24.0821 12.5C23.266 12.5 22.4834 12.8304 21.9065 13.4186C21.3294 14.0068 21.0053 14.8045 21.0053 15.6364ZM25.1076 15.6364C25.1076 15.6364 25.1069 15.6788 25.1057 15.6998C24.7717 15.6579 24.4314 15.6364 24.0862 15.6364C23.7381 15.6364 23.3951 15.6583 23.0584 15.7009C23.0571 15.6795 23.0565 15.6579 23.0565 15.6364C23.0565 15.3591 23.1645 15.0932 23.3569 14.8971C23.5492 14.7011 23.8101 14.5909 24.0821 14.5909C24.354 14.5909 24.6149 14.7011 24.8073 14.8971C24.9995 15.0932 25.1076 15.3591 25.1076 15.6364ZM23.0565 32.3636C23.0565 32.6409 23.1645 32.9069 23.3569 33.1029C23.5492 33.2989 23.8101 33.4091 24.0821 33.4091C24.354 33.4091 24.6149 33.2989 24.8073 33.1029C24.9995 32.9069 25.1076 32.6409 25.1076 32.3636H23.0565ZM29.882 30.2727C30.7582 30.2727 31.2308 29.225 30.6606 28.5469C30.3835 28.2174 30.2359 27.7982 30.2455 27.3679L30.2923 25.2429C30.3706 21.6933 27.5692 17.7273 24.0862 17.7273C20.6039 17.7273 17.8029 21.692 17.88 25.2407L17.9262 27.3682C17.9355 27.7984 17.7879 28.2175 17.5109 28.5469C16.9407 29.225 17.4134 30.2727 18.2896 30.2727H29.882ZM29.841 13.8823C30.2028 13.3603 30.9194 13.2305 31.4414 13.5924C32.7612 14.5073 34.3441 16.7015 35.2083 19.2995C35.4088 19.9021 35.0827 20.5532 34.4801 20.7537C33.8774 20.9542 33.2264 20.6281 33.0258 20.0255C32.2667 17.7434 30.9246 16.0327 30.1311 15.4826C29.6091 15.1208 29.4792 14.4043 29.841 13.8823ZM16.559 13.5924C17.081 13.2305 17.7974 13.3603 18.1593 13.8823C18.5211 14.4043 18.3913 15.1208 17.8693 15.4826C17.0758 16.0327 15.7336 17.7434 14.9744 20.0255C14.7739 20.6281 14.1229 20.9542 13.5202 20.7537C12.9176 20.5532 12.5915 19.9021 12.792 19.2995C13.6563 16.7015 15.2391 14.5073 16.559 13.5924Z" fill="white"/>
<defs>
<linearGradient id="paint0_linear_3887_6510" x1="15.5" y1="-9" x2="24" y2="76.5" gradientUnits="userSpaceOnUse">
<stop offset="0.322115" stop-color="#015391"/>
<stop offset="1" stop-color="#00192B"/>
</linearGradient>
</defs>
</svg>
