<svg width="48" height="48" viewBox="0 0 48 48" fill="none" xmlns="http://www.w3.org/2000/svg">
<rect width="48" height="48" rx="24" fill="url(#paint0_linear_3887_6500)"/>
<path d="M13.4495 19.2309L14.5086 19.7273C14.2533 20.7201 14.1965 21.7697 14.3667 22.824L13.2699 23.2211C12.8586 23.3724 12.6458 23.8263 12.7924 24.2423L13.2132 25.3959C13.3644 25.8072 13.8183 26.0199 14.2343 25.8734L15.3312 25.4762C15.8749 26.3934 16.5935 27.164 17.4256 27.7597L16.9291 28.8187C16.7448 29.2158 16.915 29.6886 17.3121 29.8777L18.4278 30.3978C18.825 30.5822 19.2977 30.412 19.4868 30.0148L19.9832 28.9511C20.716 29.1355 21.4819 29.2158 22.2573 29.1686L22.2715 28.8613C22.2904 28.4263 22.4795 28.0245 22.801 27.7313C23.0894 27.4666 23.4581 27.3153 23.8505 27.3059C23.9167 27.1404 23.9923 26.9796 24.0774 26.8189C23.9734 26.6865 23.8931 26.54 23.8363 26.3839C23.4061 26.5589 22.9475 26.6818 22.4653 26.7385C19.6334 27.0695 17.071 25.046 16.74 22.2141C16.4091 19.3822 18.4326 16.8198 21.2645 16.4888C24.0964 16.1579 26.6588 18.1814 26.9897 21.0133C27.1032 21.9966 26.9377 22.9469 26.5453 23.7837C26.7297 23.8594 26.8952 23.9681 27.0417 24.1052C27.2072 24.039 27.3727 23.9775 27.5476 23.9208C27.6469 23.084 28.3797 22.4505 29.2354 22.4883L29.3488 22.493C29.4292 21.8075 29.415 21.1078 29.3016 20.4081L30.4457 19.9921C30.857 19.8408 31.0697 19.3869 30.9232 18.9709L30.5024 17.8173C30.3511 17.406 29.8973 17.1933 29.4812 17.3398L28.3371 17.7559C27.8029 16.8529 27.0937 16.087 26.2711 15.496L26.7864 14.3992C26.9708 14.0021 26.8006 13.5293 26.4035 13.3402L25.2877 12.8201C24.8906 12.6358 24.4178 12.806 24.2287 13.2031L23.7181 14.2952C22.7348 14.0399 21.6899 13.9832 20.6499 14.1486L20.2433 13.0234C20.092 12.6121 19.6381 12.3994 19.2221 12.5459L18.0685 12.9667C17.6572 13.118 17.4445 13.5718 17.591 13.9879L17.9976 15.1036C17.0852 15.6426 16.3098 16.3517 15.7141 17.1791L14.6504 16.6827C14.2533 16.4983 13.7805 16.6685 13.5914 17.0656L13.0713 18.1814C12.8775 18.569 13.0477 19.0418 13.4495 19.2309Z" fill="white"/>
<path d="M30.4315 24.1673C30.4315 24.1578 30.4315 24.1531 30.4315 24.1437C30.4315 23.8789 30.2235 23.6567 29.954 23.6425L29.1787 23.6094C28.8998 23.5952 28.6681 23.8127 28.6539 24.0869L28.6208 24.8244C27.9826 24.9143 27.3538 25.1365 26.7865 25.4863L26.2901 24.9426C26.101 24.7393 25.7842 24.7252 25.5809 24.9095L25.0089 25.4343C24.9001 25.5336 24.8481 25.6707 24.8481 25.8031C24.8481 25.926 24.8907 26.0442 24.9805 26.1435L25.4769 26.6872C25.075 27.2214 24.8008 27.8265 24.6543 28.4553L23.9168 28.4222C23.6378 28.408 23.4062 28.6255 23.392 28.8997L23.3589 29.6751C23.3589 29.6845 23.3589 29.6893 23.3589 29.6987C23.3589 29.9635 23.5669 30.1857 23.8364 30.1999L24.5786 30.2329C24.6732 30.8712 24.8954 31.4952 25.25 32.0578L24.6968 32.5637C24.5881 32.663 24.5361 32.8001 24.5361 32.9325C24.5361 33.0554 24.5786 33.1736 24.6685 33.2729L25.1932 33.8449C25.3823 34.0482 25.6991 34.0624 25.9024 33.878L26.4603 33.3674C26.9945 33.7645 27.5949 34.034 28.219 34.1806L28.1859 34.9417C28.1859 34.9512 28.1859 34.9559 28.1859 34.9654C28.1859 35.2301 28.3939 35.4523 28.6634 35.4665L29.4387 35.4996C29.7177 35.5138 29.9493 35.2963 29.9635 35.0221L29.9966 34.261C30.6301 34.1711 31.2447 33.9489 31.8073 33.5991L32.3226 34.1664C32.5117 34.3697 32.8285 34.3839 33.0318 34.1995L33.6038 33.6747C33.7126 33.5754 33.7646 33.4383 33.7646 33.306C33.7646 33.183 33.722 33.0648 33.6322 32.9656L33.1169 32.3982C33.514 31.8687 33.7882 31.273 33.9348 30.649L34.6959 30.6821C34.9749 30.6963 35.2065 30.4788 35.2207 30.2046L35.2538 29.4292C35.2538 29.4198 35.2538 29.4151 35.2538 29.4056C35.2538 29.1408 35.0458 28.9186 34.7763 28.9045L34.0152 28.8714C33.9253 28.2379 33.7078 27.6138 33.358 27.0512L33.9159 26.5406C34.0246 26.4413 34.0766 26.3042 34.0766 26.1718C34.0766 26.0489 34.0341 25.9307 33.9442 25.8314L33.4195 25.2594C33.2303 25.0561 32.9136 25.0419 32.7103 25.2263L32.1572 25.7322C31.6229 25.3303 31.0225 25.0514 30.3984 24.9048L30.4315 24.1673ZM31.2116 27.8124C31.6655 28.3088 31.8877 28.9328 31.8877 29.5569C31.8877 30.2566 31.604 30.9563 31.0461 31.4622C29.9919 32.4266 28.3608 32.351 27.3964 31.3014C26.9425 30.805 26.7203 30.1809 26.7203 29.5569C26.7203 28.8572 27.004 28.1575 27.5618 27.6516C28.6114 26.6872 30.2472 26.7581 31.2116 27.8124Z" fill="white"/>
<path d="M21.8553 17.7794C19.742 17.7794 18.0259 19.4956 18.0259 21.6089C18.0259 23.7222 19.742 25.4383 21.8553 25.4383C23.9686 25.4383 25.6848 23.7222 25.6848 21.6089C25.6848 19.4956 23.9686 17.7794 21.8553 17.7794ZM21.8553 20.3607C21.1651 20.3607 20.6072 20.9186 20.6072 21.6089C20.6072 21.9256 20.3519 22.1809 20.0352 22.1809C19.7184 22.1809 19.4631 21.9256 19.4631 21.6089C19.4631 20.2898 20.5363 19.2166 21.8553 19.2166C22.1721 19.2166 22.4274 19.4719 22.4274 19.7887C22.4274 20.1055 22.1674 20.3607 21.8553 20.3607Z" fill="white"/>
<defs>
<linearGradient id="paint0_linear_3887_6500" x1="15.5" y1="-9" x2="24" y2="76.5" gradientUnits="userSpaceOnUse">
<stop offset="0.322115" stop-color="#015391"/>
<stop offset="1" stop-color="#00192B"/>
</linearGradient>
</defs>
</svg>
