<svg width="48" height="48" viewBox="0 0 48 48" fill="none" xmlns="http://www.w3.org/2000/svg">
<rect width="48" height="48" rx="24" fill="url(#paint0_linear_3887_6524)"/>
<path d="M20.6731 28.9879C24.6186 28.7687 27.7503 25.5002 27.7503 21.4999C27.7503 17.3578 24.3925 14 20.2504 14C16.1083 14 12.7505 17.3578 12.7505 21.4999C12.7505 22.9758 13.1767 24.352 13.9128 25.5124L13.3828 27.1023L13.382 27.1047C13.179 27.7137 13.0774 28.0184 13.1497 28.2212C13.2127 28.3978 13.3526 28.5372 13.5293 28.6002C13.7314 28.6722 14.0339 28.5714 14.6388 28.3697L14.6474 28.3672L16.238 27.8371C17.3983 28.5733 18.7746 28.9996 20.2505 28.9996C20.3923 28.9996 20.5332 28.9957 20.6731 28.9879ZM20.6731 28.9879C20.673 28.9876 20.6732 28.9882 20.6731 28.9879ZM20.6731 28.9879C21.6993 31.9072 24.4805 34 27.7504 34C29.2263 34 30.6024 33.5733 31.7626 32.837L33.3527 33.3671L33.3559 33.3678C33.9648 33.5706 34.27 33.6724 34.4727 33.6001C34.6495 33.5371 34.7876 33.3978 34.8506 33.2211C34.923 33.018 34.8217 32.713 34.6181 32.1024L34.0881 30.5123L34.2656 30.218C34.8925 29.1222 35.2496 27.8527 35.2496 26.4998C35.2496 22.3578 31.8924 18.9999 27.7503 18.9999L27.4696 19.0051L27.3279 19.012" stroke="white" stroke-width="2.49997" stroke-linecap="round" stroke-linejoin="round"/>
<defs>
<linearGradient id="paint0_linear_3887_6524" x1="15.5" y1="-9" x2="24" y2="76.5" gradientUnits="userSpaceOnUse">
<stop offset="0.322115" stop-color="#015391"/>
<stop offset="1" stop-color="#00192B"/>
</linearGradient>
</defs>
</svg>
