<svg width="48" height="48" viewBox="0 0 48 48" fill="none" xmlns="http://www.w3.org/2000/svg">
<rect width="48" height="48" rx="24" fill="url(#paint0_linear_3887_6433)"/>
<path d="M29.5002 19.562C29.4452 19.5529 29.3811 19.5529 29.3261 19.562C28.0611 19.5162 27.0527 18.4804 27.0527 17.197C27.0527 15.8862 28.1069 14.832 29.4177 14.832C30.7286 14.832 31.7827 15.8954 31.7827 17.197C31.7736 18.4804 30.7652 19.5162 29.5002 19.562Z" stroke="white" stroke-width="1.5" stroke-linecap="round" stroke-linejoin="round"/>
<path d="M28.5558 26.2355C29.8117 26.4463 31.1958 26.2263 32.1675 25.5755C33.46 24.7138 33.46 23.3021 32.1675 22.4405C31.1867 21.7897 29.7842 21.5697 28.5283 21.7897" stroke="white" stroke-width="1.5" stroke-linecap="round" stroke-linejoin="round"/>
<path d="M18.4729 19.562C18.5279 19.5529 18.5921 19.5529 18.6471 19.562C19.9121 19.5162 20.9204 18.4804 20.9204 17.197C20.9204 15.8862 19.8663 14.832 18.5554 14.832C17.2446 14.832 16.1904 15.8954 16.1904 17.197C16.1996 18.4804 17.2079 19.5162 18.4729 19.562Z" stroke="white" stroke-width="1.5" stroke-linecap="round" stroke-linejoin="round"/>
<path d="M19.417 26.2355C18.1611 26.4463 16.777 26.2263 15.8053 25.5755C14.5128 24.7138 14.5128 23.3021 15.8053 22.4405C16.7861 21.7897 18.1886 21.5697 19.4445 21.7897" stroke="white" stroke-width="1.5" stroke-linecap="round" stroke-linejoin="round"/>
<path d="M24.0003 26.4097C23.9453 26.4005 23.8811 26.4005 23.8261 26.4097C22.5611 26.3639 21.5527 25.328 21.5527 24.0447C21.5527 22.7339 22.6069 21.6797 23.9178 21.6797C25.2286 21.6797 26.2828 22.743 26.2828 24.0447C26.2736 25.328 25.2653 26.373 24.0003 26.4097Z" stroke="white" stroke-width="1.5" stroke-linecap="round" stroke-linejoin="round"/>
<path d="M21.3327 29.2991C20.0402 30.1607 20.0402 31.5724 21.3327 32.4341C22.7994 33.4149 25.201 33.4149 26.6677 32.4341C27.9602 31.5724 27.9602 30.1607 26.6677 29.2991C25.2102 28.3274 22.7994 28.3274 21.3327 29.2991Z" stroke="white" stroke-width="1.5" stroke-linecap="round" stroke-linejoin="round"/>
<defs>
<linearGradient id="paint0_linear_3887_6433" x1="15.5" y1="-9" x2="24" y2="76.5" gradientUnits="userSpaceOnUse">
<stop offset="0.322115" stop-color="#015391"/>
<stop offset="1" stop-color="#00192B"/>
</linearGradient>
</defs>
</svg>
