<svg width="48" height="48" viewBox="0 0 48 48" fill="none" xmlns="http://www.w3.org/2000/svg">
<rect width="48" height="48" rx="24" fill="url(#paint0_linear_3887_6446)"/>
<path d="M32.6146 13H15.3844C14.0738 13 13 14.0738 13 15.3854V32.6166C13 33.9261 14.0738 35 15.3844 35H32.6146C33.9262 35 35 33.9262 35 32.6166V15.3854C35 14.0738 33.9261 13 32.6146 13ZM33.1949 32.954H14.8061V17.9458H33.1949V32.954Z" fill="white"/>
<path d="M19.0594 22.998C20.0476 22.998 20.8487 22.1969 20.8487 21.2086C20.8487 20.2204 20.0476 19.4193 19.0594 19.4193C18.0711 19.4193 17.27 20.2204 17.27 21.2086C17.27 22.1969 18.0711 22.998 19.0594 22.998Z" fill="white"/>
<path d="M30.1928 20.4646H22.3389V21.9553H30.1928V20.4646Z" fill="white"/>
<path d="M19.0594 27.3708C20.0476 27.3708 20.8487 26.5697 20.8487 25.5815C20.8487 24.5932 20.0476 23.7921 19.0594 23.7921C18.0711 23.7921 17.27 24.5932 17.27 25.5815C17.27 26.5697 18.0711 27.3708 19.0594 27.3708Z" fill="white"/>
<path d="M30.1928 24.8374H22.3389V26.3271H30.1928V24.8374Z" fill="white"/>
<path d="M19.0594 31.7457C20.0476 31.7457 20.8487 30.9446 20.8487 29.9563C20.8487 28.9681 20.0476 28.167 19.0594 28.167C18.0711 28.167 17.27 28.9681 17.27 29.9563C17.27 30.9446 18.0711 31.7457 19.0594 31.7457Z" fill="white"/>
<path d="M30.1928 29.2102H22.3389V30.6999H30.1928V29.2102Z" fill="white"/>
<defs>
<linearGradient id="paint0_linear_3887_6446" x1="15.5" y1="-9" x2="24" y2="76.5" gradientUnits="userSpaceOnUse">
<stop offset="0.322115" stop-color="#015391"/>
<stop offset="1" stop-color="#00192B"/>
</linearGradient>
</defs>
</svg>
