<svg width="25" height="24" viewBox="0 0 25 24" fill="none" xmlns="http://www.w3.org/2000/svg">
<path d="M18.5 3C19.5609 3 20.5783 3.42143 21.3284 4.17157C22.0786 4.92172 22.5 5.93913 22.5 7V15C22.5 16.0609 22.0786 17.0783 21.3284 17.8284C20.5783 18.5786 19.5609 19 18.5 19H13.776L9.014 21.857C8.87059 21.9431 8.70788 21.9918 8.54077 21.9987C8.37366 22.0056 8.20749 21.9705 8.05746 21.8966C7.90743 21.8227 7.77833 21.7123 7.68199 21.5756C7.58565 21.4389 7.52514 21.2802 7.506 21.114L7.5 21V19H6.5C5.47376 19 4.48677 18.6056 3.74319 17.8983C2.9996 17.191 2.55631 16.225 2.505 15.2L2.5 15V7C2.5 5.93913 2.92143 4.92172 3.67157 4.17157C4.42172 3.42143 5.43913 3 6.5 3H18.5ZM14.5 12H8.5C8.23478 12 7.98043 12.1054 7.79289 12.2929C7.60536 12.4804 7.5 12.7348 7.5 13C7.5 13.2652 7.60536 13.5196 7.79289 13.7071C7.98043 13.8946 8.23478 14 8.5 14H14.5C14.7652 14 15.0196 13.8946 15.2071 13.7071C15.3946 13.5196 15.5 13.2652 15.5 13C15.5 12.7348 15.3946 12.4804 15.2071 12.2929C15.0196 12.1054 14.7652 12 14.5 12ZM16.5 8H8.5C8.23478 8 7.98043 8.10536 7.79289 8.29289C7.60536 8.48043 7.5 8.73478 7.5 9C7.5 9.26522 7.60536 9.51957 7.79289 9.70711C7.98043 9.89464 8.23478 10 8.5 10H16.5C16.7652 10 17.0196 9.89464 17.2071 9.70711C17.3946 9.51957 17.5 9.26522 17.5 9C17.5 8.73478 17.3946 8.48043 17.2071 8.29289C17.0196 8.10536 16.7652 8 16.5 8Z" fill="black"/>
</svg>
