<svg width="518" height="243" viewBox="0 0 518 243" fill="none" xmlns="http://www.w3.org/2000/svg">
<path d="M230.254 106.663L232.394 100.605H233.512L230.277 109.251L227.807 102.851L225.337 109.251L222.102 100.605H223.219L225.407 106.663L227.807 100.193L230.254 106.663ZM235.456 99.6636V108.839H234.515V99.6636H235.456ZM237.985 105.545C237.985 105.098 237.887 104.761 237.691 104.534C237.502 104.306 237.216 104.192 236.832 104.192C236.557 104.192 236.314 104.251 236.103 104.369C235.899 104.487 235.738 104.647 235.62 104.851C235.511 105.055 235.456 105.286 235.456 105.545H235.15C235.15 105.114 235.232 104.734 235.397 104.404C235.561 104.067 235.785 103.8 236.067 103.604C236.357 103.408 236.691 103.31 237.067 103.31C237.444 103.31 237.769 103.389 238.044 103.545C238.326 103.702 238.541 103.938 238.69 104.251C238.847 104.565 238.926 104.957 238.926 105.428V108.839H237.985V105.545ZM241.118 107.169C241.118 107.372 241.165 107.549 241.259 107.698C241.361 107.847 241.499 107.961 241.671 108.039C241.852 108.11 242.055 108.145 242.283 108.145C242.573 108.145 242.832 108.086 243.059 107.968C243.294 107.851 243.479 107.686 243.612 107.474C243.753 107.255 243.824 107.004 243.824 106.722L244.012 107.427C244.012 107.772 243.906 108.059 243.694 108.286C243.491 108.513 243.236 108.682 242.93 108.792C242.632 108.902 242.334 108.956 242.036 108.956C241.706 108.956 241.397 108.89 241.107 108.757C240.824 108.615 240.597 108.415 240.424 108.157C240.252 107.898 240.165 107.584 240.165 107.216C240.165 106.69 240.35 106.271 240.718 105.957C241.095 105.635 241.616 105.475 242.283 105.475C242.675 105.475 243 105.522 243.259 105.616C243.526 105.702 243.738 105.804 243.894 105.922C244.051 106.031 244.157 106.122 244.212 106.192V106.745C243.938 106.557 243.655 106.424 243.365 106.345C243.075 106.259 242.765 106.216 242.436 106.216C242.13 106.216 241.879 106.255 241.683 106.333C241.495 106.412 241.354 106.522 241.259 106.663C241.165 106.804 241.118 106.972 241.118 107.169ZM240.977 104.675L240.518 103.981C240.722 103.832 241.001 103.683 241.354 103.534C241.714 103.385 242.146 103.31 242.647 103.31C243.071 103.31 243.44 103.377 243.753 103.51C244.075 103.636 244.322 103.82 244.494 104.063C244.675 104.306 244.765 104.604 244.765 104.957V108.839H243.824V105.086C243.824 104.898 243.792 104.745 243.73 104.628C243.667 104.502 243.577 104.404 243.459 104.334C243.349 104.263 243.22 104.212 243.071 104.181C242.922 104.149 242.765 104.134 242.6 104.134C242.334 104.134 242.091 104.165 241.871 104.228C241.659 104.29 241.479 104.365 241.33 104.451C241.181 104.537 241.063 104.612 240.977 104.675ZM245.535 103.428H248.24V104.31H245.535V103.428ZM246.417 101.546H247.358V108.839H246.417V101.546ZM253.911 103.275L253.299 108.839H252.299L253.299 100.193L256.592 106.157L259.886 100.193L260.886 108.839H259.886L259.274 103.275L256.592 108.074L253.911 103.275ZM262.657 107.169C262.657 107.372 262.704 107.549 262.798 107.698C262.9 107.847 263.038 107.961 263.21 108.039C263.39 108.11 263.594 108.145 263.822 108.145C264.112 108.145 264.371 108.086 264.598 107.968C264.833 107.851 265.018 107.686 265.151 107.474C265.292 107.255 265.363 107.004 265.363 106.722L265.551 107.427C265.551 107.772 265.445 108.059 265.233 108.286C265.029 108.513 264.775 108.682 264.469 108.792C264.171 108.902 263.873 108.956 263.575 108.956C263.245 108.956 262.936 108.89 262.645 108.757C262.363 108.615 262.136 108.415 261.963 108.157C261.791 107.898 261.704 107.584 261.704 107.216C261.704 106.69 261.889 106.271 262.257 105.957C262.634 105.635 263.155 105.475 263.822 105.475C264.214 105.475 264.539 105.522 264.798 105.616C265.065 105.702 265.276 105.804 265.433 105.922C265.59 106.031 265.696 106.122 265.751 106.192V106.745C265.476 106.557 265.194 106.424 264.904 106.345C264.614 106.259 264.304 106.216 263.975 106.216C263.669 106.216 263.418 106.255 263.222 106.333C263.034 106.412 262.892 106.522 262.798 106.663C262.704 106.804 262.657 106.972 262.657 107.169ZM262.516 104.675L262.057 103.981C262.261 103.832 262.54 103.683 262.892 103.534C263.253 103.385 263.685 103.31 264.186 103.31C264.61 103.31 264.978 103.377 265.292 103.51C265.614 103.636 265.861 103.82 266.033 104.063C266.214 104.306 266.304 104.604 266.304 104.957V108.839H265.363V105.086C265.363 104.898 265.331 104.745 265.269 104.628C265.206 104.502 265.116 104.404 264.998 104.334C264.888 104.263 264.759 104.212 264.61 104.181C264.461 104.149 264.304 104.134 264.139 104.134C263.873 104.134 263.63 104.165 263.41 104.228C263.198 104.29 263.018 104.365 262.869 104.451C262.72 104.537 262.602 104.612 262.516 104.675ZM267.838 99.6636H268.779V108.839H267.838V99.6636ZM270.779 103.428H271.955L269.603 105.663L272.191 108.839H271.014L268.426 105.663L270.779 103.428ZM274.999 108.956C274.498 108.956 274.051 108.839 273.658 108.604C273.274 108.36 272.972 108.027 272.753 107.604C272.541 107.18 272.435 106.69 272.435 106.133C272.435 105.569 272.545 105.075 272.764 104.651C272.992 104.228 273.306 103.898 273.705 103.663C274.113 103.428 274.584 103.31 275.117 103.31C275.65 103.31 276.105 103.424 276.482 103.651C276.866 103.871 277.16 104.189 277.364 104.604C277.568 105.02 277.67 105.514 277.67 106.086C277.67 106.141 277.666 106.2 277.658 106.263C277.658 106.318 277.658 106.353 277.658 106.369H273.035V105.569H276.917L276.54 106.11C276.564 106.071 276.587 106.012 276.611 105.933C276.634 105.847 276.646 105.777 276.646 105.722C276.646 105.4 276.58 105.122 276.446 104.886C276.321 104.651 276.144 104.467 275.917 104.334C275.69 104.2 275.423 104.134 275.117 104.134C274.756 104.134 274.447 104.212 274.188 104.369C273.937 104.518 273.741 104.737 273.6 105.028C273.466 105.31 273.396 105.659 273.388 106.075C273.388 106.498 273.455 106.859 273.588 107.157C273.721 107.455 273.917 107.682 274.176 107.839C274.435 107.996 274.748 108.074 275.117 108.074C275.486 108.074 275.811 107.996 276.093 107.839C276.376 107.674 276.615 107.427 276.811 107.098L277.576 107.58C277.293 108.035 276.936 108.38 276.505 108.615C276.082 108.843 275.58 108.956 274.999 108.956ZM279.183 107.18C279.293 107.345 279.418 107.498 279.559 107.639C279.701 107.78 279.861 107.894 280.042 107.98C280.23 108.059 280.434 108.098 280.653 108.098C280.92 108.098 281.128 108.039 281.277 107.921C281.434 107.796 281.512 107.627 281.512 107.416C281.512 107.227 281.449 107.07 281.324 106.945C281.206 106.812 281.053 106.702 280.865 106.616C280.677 106.522 280.477 106.435 280.265 106.357C280.03 106.263 279.791 106.153 279.548 106.027C279.312 105.894 279.112 105.726 278.948 105.522C278.791 105.31 278.712 105.047 278.712 104.734C278.712 104.412 278.795 104.145 278.959 103.934C279.132 103.722 279.352 103.565 279.618 103.463C279.893 103.361 280.175 103.31 280.465 103.31C280.755 103.31 281.026 103.357 281.277 103.451C281.536 103.545 281.763 103.671 281.959 103.828C282.155 103.985 282.308 104.165 282.418 104.369L281.665 104.851C281.516 104.647 281.328 104.479 281.1 104.345C280.881 104.212 280.63 104.145 280.347 104.145C280.151 104.145 279.983 104.189 279.842 104.275C279.701 104.361 279.63 104.494 279.63 104.675C279.63 104.816 279.685 104.941 279.795 105.051C279.904 105.161 280.046 105.259 280.218 105.345C280.391 105.431 280.571 105.514 280.759 105.592C281.073 105.718 281.359 105.855 281.618 106.004C281.877 106.145 282.081 106.318 282.23 106.522C282.386 106.725 282.465 106.988 282.465 107.31C282.465 107.78 282.292 108.172 281.947 108.486C281.61 108.8 281.163 108.956 280.606 108.956C280.246 108.956 279.92 108.894 279.63 108.768C279.34 108.635 279.093 108.466 278.889 108.262C278.693 108.059 278.544 107.851 278.442 107.639L279.183 107.18ZM223.2 120.663L225.341 114.605H226.459L223.224 123.251L220.754 116.851L218.283 123.251L215.048 114.605H216.166L218.354 120.663L220.754 114.193L223.2 120.663ZM226.049 120.133C226.049 119.584 226.17 119.098 226.413 118.675C226.664 118.251 227.002 117.918 227.425 117.675C227.849 117.432 228.323 117.31 228.848 117.31C229.382 117.31 229.856 117.432 230.272 117.675C230.695 117.918 231.029 118.251 231.272 118.675C231.523 119.098 231.648 119.584 231.648 120.133C231.648 120.674 231.523 121.161 231.272 121.592C231.029 122.015 230.695 122.349 230.272 122.592C229.856 122.835 229.382 122.956 228.848 122.956C228.323 122.956 227.849 122.835 227.425 122.592C227.002 122.349 226.664 122.015 226.413 121.592C226.17 121.161 226.049 120.674 226.049 120.133ZM227.002 120.133C227.002 120.51 227.08 120.843 227.237 121.133C227.402 121.423 227.621 121.655 227.896 121.827C228.178 121.992 228.496 122.074 228.848 122.074C229.201 122.074 229.515 121.992 229.789 121.827C230.072 121.655 230.291 121.423 230.448 121.133C230.613 120.843 230.695 120.51 230.695 120.133C230.695 119.757 230.613 119.424 230.448 119.133C230.291 118.835 230.072 118.604 229.789 118.439C229.515 118.275 229.201 118.192 228.848 118.192C228.496 118.192 228.178 118.275 227.896 118.439C227.621 118.604 227.402 118.835 227.237 119.133C227.08 119.424 227.002 119.757 227.002 120.133ZM233.882 117.428V122.839H232.941V117.428H233.882ZM235.517 118.463C235.391 118.369 235.278 118.302 235.176 118.263C235.074 118.216 234.944 118.192 234.788 118.192C234.552 118.192 234.368 118.251 234.235 118.369C234.101 118.487 234.007 118.647 233.952 118.851C233.905 119.055 233.882 119.286 233.882 119.545H233.458C233.458 119.114 233.533 118.734 233.682 118.404C233.839 118.067 234.039 117.8 234.282 117.604C234.525 117.408 234.772 117.31 235.023 117.31C235.219 117.31 235.399 117.338 235.564 117.393C235.736 117.44 235.893 117.538 236.034 117.687L235.517 118.463ZM236.914 113.664H237.855V122.839H236.914V113.664ZM239.855 117.428H241.031L238.679 119.663L241.266 122.839H240.09L237.502 119.663L239.855 117.428ZM242.154 115.193C242.154 115.012 242.216 114.86 242.342 114.734C242.475 114.609 242.628 114.546 242.801 114.546C242.981 114.546 243.134 114.609 243.259 114.734C243.385 114.86 243.448 115.012 243.448 115.193C243.448 115.365 243.385 115.518 243.259 115.652C243.134 115.777 242.981 115.84 242.801 115.84C242.628 115.84 242.475 115.777 242.342 115.652C242.216 115.518 242.154 115.365 242.154 115.193ZM242.33 117.428H243.271V122.839H242.33V117.428ZM245.433 121.18C245.543 121.345 245.668 121.498 245.809 121.639C245.95 121.78 246.111 121.894 246.292 121.98C246.48 122.059 246.684 122.098 246.903 122.098C247.17 122.098 247.378 122.039 247.527 121.921C247.684 121.796 247.762 121.627 247.762 121.416C247.762 121.227 247.699 121.07 247.574 120.945C247.456 120.812 247.303 120.702 247.115 120.616C246.927 120.522 246.727 120.435 246.515 120.357C246.28 120.263 246.041 120.153 245.798 120.027C245.562 119.894 245.362 119.726 245.198 119.522C245.041 119.31 244.962 119.047 244.962 118.734C244.962 118.412 245.045 118.145 245.209 117.934C245.382 117.722 245.601 117.565 245.868 117.463C246.143 117.361 246.425 117.31 246.715 117.31C247.005 117.31 247.276 117.357 247.527 117.451C247.785 117.545 248.013 117.671 248.209 117.828C248.405 117.985 248.558 118.165 248.668 118.369L247.915 118.851C247.766 118.647 247.578 118.479 247.35 118.345C247.131 118.212 246.88 118.145 246.597 118.145C246.401 118.145 246.233 118.189 246.092 118.275C245.95 118.361 245.88 118.494 245.88 118.675C245.88 118.816 245.935 118.941 246.045 119.051C246.154 119.161 246.295 119.259 246.468 119.345C246.641 119.431 246.821 119.514 247.009 119.592C247.323 119.718 247.609 119.855 247.868 120.004C248.127 120.145 248.331 120.318 248.48 120.522C248.636 120.725 248.715 120.988 248.715 121.31C248.715 121.78 248.542 122.172 248.197 122.486C247.86 122.8 247.413 122.956 246.856 122.956C246.495 122.956 246.17 122.894 245.88 122.768C245.59 122.635 245.343 122.466 245.139 122.262C244.943 122.059 244.794 121.851 244.692 121.639L245.433 121.18ZM254.19 117.428L250.661 125.427H249.602L251.084 122.074L249.014 117.428H250.132L251.849 121.663L251.461 121.616L253.131 117.428H254.19ZM258.604 114.605H259.604V120.133C259.604 120.698 259.757 121.153 260.062 121.498C260.368 121.843 260.815 122.015 261.403 122.015C261.991 122.015 262.438 121.843 262.744 121.498C263.05 121.153 263.203 120.698 263.203 120.133V114.605H264.203V120.133C264.203 120.541 264.136 120.918 264.003 121.263C263.878 121.608 263.689 121.906 263.438 122.157C263.195 122.408 262.901 122.604 262.556 122.745C262.211 122.886 261.827 122.956 261.403 122.956C260.98 122.956 260.596 122.886 260.251 122.745C259.906 122.604 259.608 122.408 259.357 122.157C259.113 121.906 258.925 121.608 258.792 121.263C258.666 120.918 258.604 120.541 258.604 120.133V114.605ZM269.437 119.545C269.437 119.098 269.339 118.761 269.143 118.534C268.947 118.306 268.661 118.192 268.284 118.192C268.01 118.192 267.767 118.251 267.555 118.369C267.351 118.479 267.191 118.636 267.073 118.839C266.963 119.043 266.908 119.279 266.908 119.545V122.839H265.967V117.428H266.908V118.275C267.089 117.945 267.312 117.702 267.579 117.545C267.853 117.389 268.167 117.31 268.52 117.31C269.092 117.31 269.543 117.502 269.873 117.887C270.21 118.263 270.378 118.777 270.378 119.428V122.839H269.437V119.545ZM272.147 115.193C272.147 115.012 272.21 114.86 272.336 114.734C272.469 114.609 272.622 114.546 272.794 114.546C272.975 114.546 273.128 114.609 273.253 114.734C273.379 114.86 273.441 115.012 273.441 115.193C273.441 115.365 273.379 115.518 273.253 115.652C273.128 115.777 272.975 115.84 272.794 115.84C272.622 115.84 272.469 115.777 272.336 115.652C272.21 115.518 272.147 115.365 272.147 115.193ZM272.324 117.428H273.265V122.839H272.324V117.428ZM279.261 125.427V117.428H280.202V125.427H279.261ZM274.733 120.133C274.733 119.545 274.854 119.043 275.097 118.628C275.34 118.204 275.666 117.879 276.074 117.651C276.481 117.424 276.928 117.31 277.415 117.31C277.869 117.31 278.265 117.424 278.603 117.651C278.94 117.879 279.203 118.204 279.391 118.628C279.587 119.043 279.685 119.545 279.685 120.133C279.685 120.714 279.587 121.216 279.391 121.639C279.203 122.063 278.94 122.388 278.603 122.615C278.265 122.843 277.869 122.956 277.415 122.956C276.928 122.956 276.481 122.843 276.074 122.615C275.666 122.388 275.34 122.063 275.097 121.639C274.854 121.216 274.733 120.714 274.733 120.133ZM275.685 120.133C275.685 120.549 275.768 120.902 275.932 121.192C276.105 121.482 276.332 121.702 276.615 121.851C276.897 122 277.203 122.074 277.532 122.074C277.807 122.074 278.077 122 278.344 121.851C278.61 121.702 278.83 121.482 279.003 121.192C279.175 120.902 279.261 120.549 279.261 120.133C279.261 119.718 279.175 119.365 279.003 119.075C278.83 118.785 278.61 118.565 278.344 118.416C278.077 118.267 277.807 118.192 277.532 118.192C277.203 118.192 276.897 118.267 276.615 118.416C276.332 118.565 276.105 118.785 275.932 119.075C275.768 119.365 275.685 119.718 275.685 120.133ZM282.853 120.722C282.853 121.153 282.951 121.486 283.147 121.721C283.343 121.957 283.629 122.074 284.006 122.074C284.28 122.074 284.519 122.019 284.723 121.91C284.935 121.792 285.096 121.631 285.205 121.427C285.323 121.223 285.382 120.988 285.382 120.722V117.428H286.323V122.839H285.382V121.992C285.201 122.313 284.978 122.557 284.711 122.721C284.445 122.878 284.131 122.956 283.77 122.956C283.206 122.956 282.755 122.764 282.418 122.38C282.08 121.996 281.912 121.482 281.912 120.839V117.428H282.853V120.722ZM290.186 122.956C289.684 122.956 289.237 122.839 288.845 122.604C288.461 122.36 288.159 122.027 287.939 121.604C287.727 121.18 287.621 120.69 287.621 120.133C287.621 119.569 287.731 119.075 287.951 118.651C288.178 118.228 288.492 117.898 288.892 117.663C289.3 117.428 289.77 117.31 290.303 117.31C290.837 117.31 291.292 117.424 291.668 117.651C292.052 117.871 292.346 118.189 292.55 118.604C292.754 119.02 292.856 119.514 292.856 120.086C292.856 120.141 292.852 120.2 292.844 120.263C292.844 120.318 292.844 120.353 292.844 120.369H288.221V119.569H292.103L291.727 120.11C291.75 120.071 291.774 120.012 291.797 119.933C291.821 119.847 291.833 119.777 291.833 119.722C291.833 119.4 291.766 119.122 291.633 118.886C291.507 118.651 291.331 118.467 291.103 118.334C290.876 118.2 290.609 118.134 290.303 118.134C289.943 118.134 289.633 118.212 289.374 118.369C289.123 118.518 288.927 118.737 288.786 119.028C288.653 119.31 288.582 119.659 288.574 120.075C288.574 120.498 288.641 120.859 288.774 121.157C288.908 121.455 289.104 121.682 289.362 121.839C289.621 121.996 289.935 122.074 290.303 122.074C290.672 122.074 290.997 121.996 291.28 121.839C291.562 121.674 291.801 121.427 291.997 121.098L292.762 121.58C292.48 122.035 292.123 122.38 291.691 122.615C291.268 122.843 290.766 122.956 290.186 122.956ZM298.157 116.957C298.157 116.62 298.086 116.334 297.945 116.099C297.804 115.863 297.604 115.683 297.345 115.557C297.087 115.432 296.781 115.369 296.428 115.369C296.036 115.369 295.699 115.459 295.416 115.64C295.142 115.812 294.914 116.048 294.734 116.346L293.969 115.863C294.15 115.589 294.35 115.35 294.569 115.146C294.789 114.934 295.056 114.773 295.369 114.663C295.691 114.546 296.083 114.487 296.546 114.487C296.914 114.487 297.251 114.55 297.557 114.675C297.871 114.801 298.141 114.977 298.369 115.205C298.604 115.424 298.784 115.683 298.91 115.981C299.043 116.279 299.11 116.604 299.11 116.957C299.11 117.404 298.992 117.812 298.757 118.181C298.522 118.541 298.216 118.835 297.839 119.063C297.463 119.282 297.055 119.404 296.616 119.428L296.534 120.839H295.828L295.593 118.781H295.899C296.369 118.781 296.773 118.69 297.11 118.51C297.447 118.33 297.706 118.102 297.887 117.828C298.067 117.545 298.157 117.255 298.157 116.957ZM295.557 122.368C295.557 122.188 295.62 122.035 295.746 121.91C295.879 121.784 296.032 121.721 296.204 121.721C296.385 121.721 296.538 121.784 296.663 121.91C296.789 122.035 296.851 122.188 296.851 122.368C296.851 122.541 296.789 122.694 296.663 122.827C296.538 122.953 296.385 123.015 296.204 123.015C296.032 123.015 295.879 122.953 295.746 122.827C295.62 122.694 295.557 122.541 295.557 122.368Z" fill="black"/>
<path d="M318.115 185.546C331.008 173.779 340.049 158.394 344.055 141.404C348.062 124.415 346.848 106.611 340.572 90.3228C334.296 74.0344 323.25 60.0192 308.88 50.1104C294.509 40.2016 277.483 34.8606 260.027 34.7858C242.572 34.7111 225.5 39.9061 211.045 49.6914C196.59 59.4767 185.425 73.3968 179.009 89.6308C172.594 105.865 171.228 123.657 175.089 140.68C178.95 157.704 187.858 173.166 200.65 185.043L206.601 178.634C195.1 167.954 187.09 154.052 183.619 138.746C180.147 123.44 181.376 107.442 187.144 92.8454C192.912 78.2488 202.951 65.7329 215.948 56.9346C228.945 48.1363 244.295 43.4652 259.99 43.5325C275.684 43.5997 290.994 48.402 303.915 57.3113C316.836 66.2206 326.767 78.8221 332.41 93.4675C338.053 108.113 339.145 124.121 335.542 139.396C331.94 154.672 323.811 168.505 312.219 179.086L318.115 185.546Z" fill="black"/>
<rect x="361.693" y="15.2388" width="149.168" height="52.1287" rx="26.0644" fill="black"/>
<path d="M160.396 42.1019C160.396 56.4968 148.727 68.1663 134.332 68.1663H26.0644C11.6694 68.1663 1.52588e-05 56.4968 1.52588e-05 42.1019C1.52588e-05 27.707 11.6694 16.0375 26.0644 16.0375H134.332C148.727 16.0375 160.396 27.707 160.396 42.1019Z" fill="black"/>
<path d="M149.168 133.93C149.168 148.103 137.678 159.593 123.505 159.593H25.6633C11.4898 159.593 -7.62939e-05 148.103 -7.62939e-05 133.93C-7.62939e-05 119.756 11.4898 108.267 25.6633 108.267H123.505C137.678 108.267 149.168 119.756 149.168 133.93Z" fill="black"/>
<path d="M378 134C378 119.641 389.641 108 404 108H492C506.359 108 518 119.641 518 134C518 148.359 506.359 160 492 160H404C389.641 160 378 148.359 378 134Z" fill="black"/>
<path d="M344.851 132.324H375.327" stroke="black" stroke-width="1.0944" stroke-dasharray="3.28 3.28"/>
<path d="M149.168 132.324H178.842" stroke="black" stroke-width="1.0944" stroke-dasharray="3.28 3.28"/>
<path d="M361.693 41.7024H350.733L328.812 63.3559" stroke="black" stroke-width="1.0944" stroke-dasharray="3.28 3.28"/>
<path d="M153.98 40.9031H170.6L194.079 69.7744" stroke="black" stroke-width="0.656638" stroke-dasharray="3.28 3.28"/>
<circle cx="131.124" cy="41.3018" r="20.4505" fill="#D9D9D9"/>
<circle cx="388.559" cy="40.5025" r="20.4505" fill="#D9D9D9"/>
<circle cx="406.451" cy="134.451" r="20.4505" fill="#D9D9D9"/>
<circle cx="122.302" cy="133.528" r="20.4505" fill="#D9D9D9"/>
<path d="M382.411 38.9647C382.411 39.4431 382.458 39.8861 382.552 40.2939C382.646 40.6939 382.784 41.0428 382.964 41.3408C383.144 41.631 383.36 41.8584 383.611 42.0231C383.87 42.1799 384.156 42.2584 384.47 42.2584C384.791 42.2584 385.077 42.1799 385.328 42.0231C385.579 41.8584 385.795 41.631 385.975 41.3408C386.156 41.0428 386.293 40.6939 386.387 40.2939C386.481 39.8861 386.528 39.4431 386.528 38.9647C386.528 38.4863 386.481 38.0472 386.387 37.6472C386.293 37.2394 386.156 36.8905 385.975 36.6003C385.795 36.3023 385.579 36.0749 385.328 35.918C385.077 35.7534 384.791 35.671 384.47 35.671C384.156 35.671 383.87 35.7534 383.611 35.918C383.36 36.0749 383.144 36.3023 382.964 36.6003C382.784 36.8905 382.646 37.2394 382.552 37.6472C382.458 38.0472 382.411 38.4863 382.411 38.9647ZM381.411 38.9647C381.411 38.1413 381.541 37.412 381.799 36.7767C382.058 36.1415 382.415 35.6436 382.87 35.2828C383.333 34.9143 383.866 34.73 384.47 34.73C385.074 34.73 385.603 34.9143 386.058 35.2828C386.52 35.6436 386.881 36.1415 387.14 36.7767C387.399 37.412 387.528 38.1413 387.528 38.9647C387.528 39.7881 387.399 40.5174 387.14 41.1526C386.881 41.7878 386.52 42.2897 386.058 42.6583C385.603 43.0191 385.074 43.1994 384.47 43.1994C383.866 43.1994 383.333 43.0191 382.87 42.6583C382.415 42.2897 382.058 41.7878 381.799 41.1526C381.541 40.5174 381.411 39.7881 381.411 38.9647ZM390.97 39.0235V38.3765C391.237 38.3765 391.472 38.3412 391.676 38.2707C391.88 38.1922 392.052 38.0903 392.193 37.9648C392.335 37.8315 392.44 37.6786 392.511 37.5061C392.589 37.3335 392.629 37.1492 392.629 36.9532C392.629 36.6944 392.582 36.467 392.488 36.2709C392.393 36.067 392.252 35.9102 392.064 35.8004C391.884 35.6906 391.656 35.6357 391.382 35.6357C390.998 35.6357 390.672 35.7573 390.405 36.0004C390.139 36.2356 390.006 36.5336 390.006 36.8944H389.053C389.053 36.4631 389.151 36.0866 389.347 35.7651C389.551 35.4436 389.825 35.1926 390.17 35.0123C390.523 34.8241 390.923 34.73 391.37 34.73C391.841 34.73 392.244 34.8319 392.582 35.0358C392.927 35.2397 393.189 35.5063 393.37 35.8357C393.558 36.1651 393.652 36.5258 393.652 36.9179C393.652 37.3022 393.538 37.6551 393.311 37.9766C393.084 38.2981 392.77 38.553 392.37 38.7412C391.97 38.9294 391.503 39.0235 390.97 39.0235ZM391.323 43.1994C390.923 43.1994 390.562 43.1406 390.241 43.023C389.919 42.9053 389.645 42.7446 389.417 42.5407C389.19 42.3289 389.013 42.0858 388.888 41.8114C388.763 41.5291 388.7 41.2271 388.7 40.9056H389.711C389.711 41.1644 389.778 41.3957 389.911 41.5996C390.053 41.8035 390.245 41.9643 390.488 42.0819C390.731 42.1996 391.009 42.2584 391.323 42.2584C391.637 42.2584 391.907 42.1996 392.135 42.0819C392.37 41.9564 392.55 41.7839 392.676 41.5643C392.801 41.3448 392.864 41.086 392.864 40.788C392.864 40.537 392.813 40.3175 392.711 40.1292C392.617 39.9332 392.484 39.7724 392.311 39.647C392.139 39.5136 391.939 39.4156 391.711 39.3529C391.484 39.2901 391.237 39.2588 390.97 39.2588V38.6118C391.37 38.6118 391.743 38.6549 392.088 38.7412C392.44 38.8275 392.75 38.9647 393.017 39.1529C393.291 39.3333 393.503 39.5685 393.652 39.8587C393.809 40.1488 393.887 40.4978 393.887 40.9056C393.887 41.3683 393.774 41.7722 393.546 42.1172C393.327 42.4623 393.025 42.7289 392.64 42.9171C392.256 43.1053 391.817 43.1994 391.323 43.1994Z" fill="black"/>
<path d="M125.47 41.8829C125.47 42.3613 125.517 42.8043 125.612 43.2121C125.706 43.6121 125.843 43.9611 126.023 44.2591C126.204 44.5492 126.419 44.7766 126.67 44.9413C126.929 45.0982 127.215 45.1766 127.529 45.1766C127.85 45.1766 128.137 45.0982 128.388 44.9413C128.639 44.7766 128.854 44.5492 129.035 44.2591C129.215 43.9611 129.352 43.6121 129.446 43.2121C129.54 42.8043 129.587 42.3613 129.587 41.8829C129.587 41.4045 129.54 40.9654 129.446 40.5654C129.352 40.1576 129.215 39.8087 129.035 39.5185C128.854 39.2205 128.639 38.9931 128.388 38.8363C128.137 38.6716 127.85 38.5892 127.529 38.5892C127.215 38.5892 126.929 38.6716 126.67 38.8363C126.419 38.9931 126.204 39.2205 126.023 39.5185C125.843 39.8087 125.706 40.1576 125.612 40.5654C125.517 40.9654 125.47 41.4045 125.47 41.8829ZM124.471 41.8829C124.471 41.0595 124.6 40.3302 124.859 39.695C125.117 39.0598 125.474 38.5618 125.929 38.201C126.392 37.8325 126.925 37.6482 127.529 37.6482C128.133 37.6482 128.662 37.8325 129.117 38.201C129.58 38.5618 129.94 39.0598 130.199 39.695C130.458 40.3302 130.587 41.0595 130.587 41.8829C130.587 42.7063 130.458 43.4356 130.199 44.0708C129.94 44.7061 129.58 45.2079 129.117 45.5765C128.662 45.9373 128.133 46.1176 127.529 46.1176C126.925 46.1176 126.392 45.9373 125.929 45.5765C125.474 45.2079 125.117 44.7061 124.859 44.0708C124.6 43.4356 124.471 42.7063 124.471 41.8829ZM131.994 39.3891V38.354L134.817 37.6482V46H133.818V38.848L131.994 39.3891Z" fill="black"/>
<path d="M116.154 131.191C116.154 131.669 116.201 132.112 116.295 132.52C116.389 132.92 116.526 133.269 116.707 133.567C116.887 133.857 117.103 134.085 117.354 134.249C117.612 134.406 117.899 134.485 118.212 134.485C118.534 134.485 118.82 134.406 119.071 134.249C119.322 134.085 119.538 133.857 119.718 133.567C119.898 133.269 120.036 132.92 120.13 132.52C120.224 132.112 120.271 131.669 120.271 131.191C120.271 130.713 120.224 130.273 120.13 129.874C120.036 129.466 119.898 129.117 119.718 128.827C119.538 128.529 119.322 128.301 119.071 128.144C118.82 127.98 118.534 127.897 118.212 127.897C117.899 127.897 117.612 127.98 117.354 128.144C117.103 128.301 116.887 128.529 116.707 128.827C116.526 129.117 116.389 129.466 116.295 129.874C116.201 130.273 116.154 130.713 116.154 131.191ZM115.154 131.191C115.154 130.368 115.283 129.638 115.542 129.003C115.801 128.368 116.158 127.87 116.612 127.509C117.075 127.141 117.608 126.956 118.212 126.956C118.816 126.956 119.345 127.141 119.8 127.509C120.263 127.87 120.624 128.368 120.882 129.003C121.141 129.638 121.271 130.368 121.271 131.191C121.271 132.014 121.141 132.744 120.882 133.379C120.624 134.014 120.263 134.516 119.8 134.885C119.345 135.245 118.816 135.426 118.212 135.426C117.608 135.426 117.075 135.245 116.612 134.885C116.158 134.516 115.801 134.014 115.542 133.379C115.283 132.744 115.154 132.014 115.154 131.191ZM121.972 135.308L125.865 131.156C126.046 130.96 126.199 130.768 126.324 130.579C126.458 130.383 126.556 130.187 126.618 129.991C126.689 129.787 126.724 129.576 126.724 129.356C126.724 129.176 126.689 128.999 126.618 128.827C126.548 128.654 126.442 128.497 126.301 128.356C126.167 128.215 126.003 128.101 125.807 128.015C125.611 127.929 125.387 127.886 125.136 127.886C124.783 127.886 124.477 127.968 124.219 128.133C123.968 128.289 123.776 128.521 123.642 128.827C123.509 129.125 123.442 129.481 123.442 129.897H122.442C122.442 129.309 122.548 128.795 122.76 128.356C122.972 127.909 123.278 127.564 123.678 127.321C124.085 127.07 124.572 126.945 125.136 126.945C125.591 126.945 125.983 127.023 126.312 127.18C126.642 127.329 126.912 127.525 127.124 127.768C127.336 128.003 127.493 128.258 127.595 128.533C127.697 128.807 127.748 129.07 127.748 129.321C127.748 129.744 127.646 130.164 127.442 130.579C127.238 130.995 126.975 131.367 126.654 131.697L124.03 134.367H127.783V135.308H121.972Z" fill="black"/>
<path d="M399.47 132.883C399.47 133.361 399.517 133.804 399.612 134.212C399.706 134.612 399.843 134.961 400.023 135.259C400.204 135.549 400.419 135.777 400.67 135.941C400.929 136.098 401.215 136.177 401.529 136.177C401.85 136.177 402.137 136.098 402.388 135.941C402.639 135.777 402.854 135.549 403.035 135.259C403.215 134.961 403.352 134.612 403.446 134.212C403.54 133.804 403.587 133.361 403.587 132.883C403.587 132.405 403.54 131.965 403.446 131.565C403.352 131.158 403.215 130.809 403.035 130.519C402.854 130.221 402.639 129.993 402.388 129.836C402.137 129.672 401.85 129.589 401.529 129.589C401.215 129.589 400.929 129.672 400.67 129.836C400.419 129.993 400.204 130.221 400.023 130.519C399.843 130.809 399.706 131.158 399.612 131.565C399.517 131.965 399.47 132.405 399.47 132.883ZM398.471 132.883C398.471 132.059 398.6 131.33 398.859 130.695C399.117 130.06 399.474 129.562 399.929 129.201C400.392 128.832 400.925 128.648 401.529 128.648C402.133 128.648 402.662 128.832 403.117 129.201C403.58 129.562 403.94 130.06 404.199 130.695C404.458 131.33 404.587 132.059 404.587 132.883C404.587 133.706 404.458 134.436 404.199 135.071C403.94 135.706 403.58 136.208 403.117 136.577C402.662 136.937 402.133 137.118 401.529 137.118C400.925 137.118 400.392 136.937 399.929 136.577C399.474 136.208 399.117 135.706 398.859 135.071C398.6 134.436 398.471 133.706 398.471 132.883ZM405.289 135.353L409.853 128.766H410.264V137H409.264V134.93V134.8V130.989L406.935 134.471H409.676H409.876H411.558V135.353H405.289Z" fill="black"/>
<path d="M19.0583 39.0608L19.347 38.2909H22.3303L22.619 39.0608H19.0583ZM20.8194 35.8657L19.6838 38.5411L19.6068 38.7143L18.6059 41.0818H17.6917L20.8194 34.0083L23.9471 41.0818H23.0329L22.0512 38.7721L21.9743 38.5796L20.8194 35.8657ZM24.7185 33.5753H25.4884V41.0818H24.7185V33.5753ZM26.2628 39.157V38.4353H28.1876V39.157H26.2628ZM29.0052 34.3452H29.8233V41.0818H29.0052V34.3452ZM31.0262 41.0818H29.4576V40.2638H31.0262C31.4048 40.2638 31.7512 40.206 32.0656 40.0905C32.38 39.9686 32.6494 39.7986 32.874 39.5805C33.0985 39.3559 33.2718 39.0865 33.3937 38.7721C33.5156 38.4577 33.5765 38.1048 33.5765 37.7135C33.5765 37.3221 33.5156 36.9692 33.3937 36.6549C33.2718 36.3405 33.0985 36.0742 32.874 35.8561C32.6494 35.6315 32.38 35.4615 32.0656 35.346C31.7512 35.2241 31.4048 35.1632 31.0262 35.1632H29.4576V34.3452H31.0262C31.6806 34.3452 32.2613 34.4863 32.7681 34.7686C33.275 35.0509 33.6728 35.4455 33.9615 35.9523C34.2502 36.4528 34.3945 37.0398 34.3945 37.7135C34.3945 38.3871 34.2502 38.9774 33.9615 39.4842C33.6728 39.9847 33.275 40.376 32.7681 40.6583C32.2613 40.9406 31.6806 41.0818 31.0262 41.0818ZM36.2682 36.6549V41.0818H35.4983V36.6549H36.2682ZM37.6059 37.5017C37.5032 37.4248 37.4102 37.3702 37.3268 37.3381C37.2434 37.2996 37.1375 37.2804 37.0092 37.2804C36.8167 37.2804 36.666 37.3285 36.5569 37.4248C36.4478 37.521 36.3708 37.6525 36.3259 37.8193C36.2874 37.9861 36.2682 38.1754 36.2682 38.3871H35.9217C35.9217 38.0343 35.9827 37.7231 36.1046 37.4536C36.2329 37.1777 36.3965 36.9596 36.5954 36.7992C36.7943 36.6388 36.9964 36.5586 37.2017 36.5586C37.3621 36.5586 37.5096 36.5811 37.6444 36.626C37.7855 36.6645 37.9138 36.7447 38.0293 36.8666L37.6059 37.5017ZM38.797 34.8263C38.797 34.6788 38.8484 34.5537 38.951 34.451C39.0601 34.3484 39.1852 34.297 39.3263 34.297C39.4739 34.297 39.599 34.3484 39.7017 34.451C39.8043 34.5537 39.8557 34.6788 39.8557 34.8263C39.8557 34.9675 39.8043 35.0926 39.7017 35.2017C39.599 35.3043 39.4739 35.3556 39.3263 35.3556C39.1852 35.3556 39.0601 35.3043 38.951 35.2017C38.8484 35.0926 38.797 34.9675 38.797 34.8263ZM38.9414 36.6549H39.7113V41.0818H38.9414V36.6549ZM40.5752 36.6549H41.4413L42.6924 39.7826L43.9435 36.6549H44.8096L42.6924 41.4186L40.5752 36.6549ZM47.1076 41.178C46.697 41.178 46.3313 41.0818 46.0105 40.8893C45.6961 40.6904 45.4491 40.4177 45.2695 40.0713C45.0962 39.7248 45.0096 39.3238 45.0096 38.8683C45.0096 38.4064 45.0995 38.0022 45.2791 37.6557C45.4652 37.3093 45.7218 37.0398 46.049 36.8473C46.3826 36.6549 46.7676 36.5586 47.2038 36.5586C47.6401 36.5586 48.0122 36.6516 48.3202 36.8377C48.6346 37.0174 48.8752 37.2772 49.042 37.6172C49.2088 37.9573 49.2922 38.3615 49.2922 38.8298C49.2922 38.8747 49.289 38.9229 49.2826 38.9742C49.2826 39.0191 49.2826 39.048 49.2826 39.0608H45.5004V38.4064H48.6763L48.3683 38.8491C48.3876 38.817 48.4068 38.7689 48.4261 38.7047C48.4453 38.6341 48.4549 38.5764 48.4549 38.5315C48.4549 38.2684 48.4004 38.0407 48.2913 37.8482C48.1887 37.6557 48.0443 37.505 47.8583 37.3959C47.6722 37.2868 47.4541 37.2323 47.2038 37.2323C46.9087 37.2323 46.6553 37.2964 46.4436 37.4248C46.2383 37.5467 46.0779 37.7263 45.9624 37.9637C45.8533 38.1947 45.7956 38.4802 45.7892 38.8202C45.7892 39.1667 45.8437 39.4618 45.9528 39.7056C46.0618 39.9494 46.2222 40.1355 46.4339 40.2638C46.6457 40.3921 46.9023 40.4562 47.2038 40.4562C47.5054 40.4562 47.7717 40.3921 48.0026 40.2638C48.2336 40.129 48.4293 39.9269 48.5897 39.6575L49.2152 40.052C48.9842 40.4242 48.6923 40.7065 48.3395 40.8989C47.993 41.085 47.5824 41.178 47.1076 41.178ZM53.1864 38.3871C53.1864 38.0214 53.1062 37.7455 52.9459 37.5595C52.7855 37.3734 52.5513 37.2804 52.2433 37.2804C52.0188 37.2804 51.8199 37.3285 51.6466 37.4248C51.4798 37.5146 51.3483 37.6429 51.2521 37.8097C51.1622 37.9765 51.1173 38.169 51.1173 38.3871V41.0818H50.3474V36.6549H51.1173V37.3478C51.2649 37.0783 51.4478 36.8794 51.6659 36.7511C51.8904 36.6228 52.1471 36.5586 52.4358 36.5586C52.9041 36.5586 53.2731 36.7158 53.5425 37.0302C53.8184 37.3381 53.9563 37.7584 53.9563 38.2909V41.0818H53.1864V38.3871ZM57.6634 35.1151V34.3452H61.946V35.1151H60.2137V41.0818H59.3957V35.1151H57.6634ZM62.1503 39.7152C62.1503 39.882 62.1888 40.0264 62.2658 40.1483C62.3492 40.2702 62.4615 40.3632 62.6026 40.4274C62.7502 40.4851 62.917 40.514 63.1031 40.514C63.3404 40.514 63.5522 40.4659 63.7382 40.3696C63.9307 40.2734 64.0815 40.1387 64.1905 39.9654C64.306 39.7858 64.3638 39.5805 64.3638 39.3495L64.5177 39.9269C64.5177 40.2092 64.4311 40.4434 64.2579 40.6295C64.0911 40.8155 63.8826 40.9535 63.6324 41.0433C63.3886 41.1331 63.1448 41.178 62.901 41.178C62.6315 41.178 62.3781 41.1235 62.1407 41.0144C61.9097 40.8989 61.7236 40.7353 61.5825 40.5236C61.4414 40.3119 61.3708 40.0553 61.3708 39.7537C61.3708 39.3238 61.5216 38.9806 61.8231 38.724C62.1311 38.4609 62.5577 38.3294 63.1031 38.3294C63.4238 38.3294 63.6901 38.3679 63.9018 38.4449C64.12 38.5155 64.2932 38.5989 64.4215 38.6951C64.5498 38.7849 64.6364 38.8587 64.6814 38.9164V39.3688C64.4568 39.2148 64.2258 39.1057 63.9884 39.0415C63.7511 38.971 63.4976 38.9357 63.2282 38.9357C62.9779 38.9357 62.7726 38.9678 62.6122 39.0319C62.4583 39.0961 62.3428 39.1859 62.2658 39.3014C62.1888 39.4169 62.1503 39.5548 62.1503 39.7152ZM62.0348 37.675L61.6595 37.1072C61.8263 36.9853 62.0541 36.8634 62.3428 36.7415C62.6379 36.6196 62.9908 36.5586 63.4014 36.5586C63.7478 36.5586 64.0494 36.6132 64.306 36.7222C64.5691 36.8249 64.7712 36.9756 64.9123 37.1745C65.0599 37.3734 65.1337 37.6172 65.1337 37.9059V41.0818H64.3638V38.0118C64.3638 37.8578 64.3381 37.7327 64.2868 37.6365C64.2355 37.5338 64.1617 37.4536 64.0654 37.3959C63.9756 37.3381 63.8697 37.2964 63.7478 37.2708C63.6259 37.2451 63.4976 37.2323 63.3629 37.2323C63.1448 37.2323 62.9459 37.2579 62.7662 37.3093C62.593 37.3606 62.4454 37.4215 62.3235 37.4921C62.2016 37.5627 62.1054 37.6236 62.0348 37.675ZM66.4372 33.5753H67.2071V41.0818H66.4372V33.5753ZM70.3682 41.178C69.9576 41.178 69.5919 41.0818 69.2711 40.8893C68.9567 40.6904 68.7097 40.4177 68.53 40.0713C68.3568 39.7248 68.2702 39.3238 68.2702 38.8683C68.2702 38.4064 68.36 38.0022 68.5397 37.6557C68.7257 37.3093 68.9823 37.0398 69.3096 36.8473C69.6432 36.6549 70.0281 36.5586 70.4644 36.5586C70.9007 36.5586 71.2728 36.6516 71.5808 36.8377C71.8951 37.0174 72.1357 37.2772 72.3025 37.6172C72.4694 37.9573 72.5528 38.3615 72.5528 38.8298C72.5528 38.8747 72.5496 38.9229 72.5431 38.9742C72.5431 39.0191 72.5431 39.048 72.5431 39.0608H68.761V38.4064H71.9368L71.6289 38.8491C71.6481 38.817 71.6674 38.7689 71.6866 38.7047C71.7059 38.6341 71.7155 38.5764 71.7155 38.5315C71.7155 38.2684 71.661 38.0407 71.5519 37.8482C71.4492 37.6557 71.3049 37.505 71.1188 37.3959C70.9328 37.2868 70.7146 37.2323 70.4644 37.2323C70.1693 37.2323 69.9159 37.2964 69.7041 37.4248C69.4988 37.5467 69.3384 37.7263 69.2229 37.9637C69.1139 38.1947 69.0561 38.4802 69.0497 38.8202C69.0497 39.1667 69.1042 39.4618 69.2133 39.7056C69.3224 39.9494 69.4828 40.1355 69.6945 40.2638C69.9062 40.3921 70.1629 40.4562 70.4644 40.4562C70.766 40.4562 71.0322 40.3921 71.2632 40.2638C71.4941 40.129 71.6898 39.9269 71.8502 39.6575L72.4758 40.052C72.2448 40.4242 71.9529 40.7065 71.6 40.8989C71.2536 41.085 70.8429 41.178 70.3682 41.178ZM76.447 38.3871C76.447 38.0214 76.3668 37.7455 76.2064 37.5595C76.046 37.3734 75.8118 37.2804 75.5039 37.2804C75.2793 37.2804 75.0804 37.3285 74.9072 37.4248C74.7404 37.5146 74.6089 37.6429 74.5126 37.8097C74.4228 37.9765 74.3779 38.169 74.3779 38.3871V41.0818H73.608V36.6549H74.3779V37.3478C74.5255 37.0783 74.7083 36.8794 74.9264 36.7511C75.151 36.6228 75.4076 36.5586 75.6964 36.5586C76.1647 36.5586 76.5336 36.7158 76.8031 37.0302C77.079 37.3381 77.2169 37.7584 77.2169 38.2909V41.0818H76.447V38.3871ZM77.9906 36.6549H80.204V37.3766H77.9906V36.6549ZM78.7123 35.1151H79.4822V41.0818H78.7123V35.1151ZM19.347 48.5297L18.8465 53.0818H18.0285L18.8465 46.0083L21.5412 50.8876L24.2358 46.0083L25.0539 53.0818H24.2358L23.7354 48.5297L21.5412 52.4562L19.347 48.5297ZM26.5029 51.7152C26.5029 51.882 26.5414 52.0264 26.6184 52.1483C26.7018 52.2702 26.8141 52.3632 26.9552 52.4274C27.1028 52.4851 27.2696 52.514 27.4557 52.514C27.6931 52.514 27.9048 52.4659 28.0908 52.3696C28.2833 52.2734 28.4341 52.1387 28.5431 51.9654C28.6586 51.7858 28.7164 51.5805 28.7164 51.3495L28.8704 51.9269C28.8704 52.2092 28.7837 52.4434 28.6105 52.6295C28.4437 52.8155 28.2352 52.9535 27.985 53.0433C27.7412 53.1331 27.4974 53.178 27.2536 53.178C26.9841 53.178 26.7307 53.1235 26.4933 53.0144C26.2623 52.8989 26.0763 52.7353 25.9351 52.5236C25.794 52.3119 25.7234 52.0553 25.7234 51.7537C25.7234 51.3238 25.8742 50.9806 26.1757 50.724C26.4837 50.4609 26.9103 50.3294 27.4557 50.3294C27.7765 50.3294 28.0427 50.3679 28.2544 50.4449C28.4726 50.5155 28.6458 50.5989 28.7741 50.6951C28.9024 50.7849 28.9891 50.8587 29.034 50.9164V51.3688C28.8094 51.2148 28.5784 51.1057 28.3411 51.0415C28.1037 50.971 27.8502 50.9357 27.5808 50.9357C27.3306 50.9357 27.1252 50.9678 26.9649 51.0319C26.8109 51.0961 26.6954 51.1859 26.6184 51.3014C26.5414 51.4169 26.5029 51.5548 26.5029 51.7152ZM26.3874 49.675L26.0121 49.1072C26.1789 48.9853 26.4067 48.8634 26.6954 48.7415C26.9905 48.6196 27.3434 48.5586 27.754 48.5586C28.1005 48.5586 28.402 48.6132 28.6586 48.7222C28.9217 48.8249 29.1238 48.9756 29.2649 49.1745C29.4125 49.3734 29.4863 49.6172 29.4863 49.9059V53.0818H28.7164V50.0118C28.7164 49.8578 28.6907 49.7327 28.6394 49.6365C28.5881 49.5338 28.5143 49.4536 28.418 49.3959C28.3282 49.3381 28.2224 49.2964 28.1005 49.2708C27.9786 49.2451 27.8502 49.2323 27.7155 49.2323C27.4974 49.2323 27.2985 49.2579 27.1188 49.3093C26.9456 49.3606 26.798 49.4215 26.6761 49.4921C26.5542 49.5627 26.458 49.6236 26.3874 49.675ZM30.1161 48.6549H32.3296V49.3766H30.1161V48.6549ZM30.8379 47.1151H31.6078V53.0818H30.8379V47.1151ZM33.4482 50.8683C33.4482 51.1763 33.5123 51.449 33.6407 51.6863C33.7754 51.9237 33.955 52.113 34.1796 52.2541C34.4106 52.3889 34.6704 52.4562 34.9591 52.4562C35.1965 52.4562 35.4178 52.421 35.6232 52.3504C35.8349 52.2734 36.0177 52.1739 36.1717 52.052C36.3257 51.9237 36.4348 51.789 36.4989 51.6478V52.6102C36.3449 52.7899 36.1236 52.931 35.8349 53.0337C35.5526 53.1299 35.2607 53.178 34.9591 53.178C34.5293 53.178 34.1411 53.0786 33.7946 52.8797C33.4482 52.6808 33.1723 52.4081 32.967 52.0617C32.7681 51.7088 32.6687 51.311 32.6687 50.8683C32.6687 50.4192 32.7681 50.0214 32.967 49.675C33.1723 49.3285 33.4482 49.0558 33.7946 48.857C34.1411 48.6581 34.5293 48.5586 34.9591 48.5586C35.2607 48.5586 35.5526 48.6099 35.8349 48.7126C36.1236 48.8088 36.3449 48.9468 36.4989 49.1264V50.0888C36.4348 49.9412 36.3257 49.8065 36.1717 49.6846C36.0177 49.5627 35.8349 49.4665 35.6232 49.3959C35.4178 49.3189 35.1965 49.2804 34.9591 49.2804C34.6704 49.2804 34.4106 49.3478 34.1796 49.4825C33.955 49.6172 33.7754 49.8065 33.6407 50.0503C33.5123 50.2877 33.4482 50.5604 33.4482 50.8683ZM38.4674 45.5753V53.0818H37.6975V45.5753H38.4674ZM40.5365 50.3871C40.5365 50.0214 40.4563 49.7455 40.2959 49.5595C40.1419 49.3734 39.9077 49.2804 39.5933 49.2804C39.3688 49.2804 39.1699 49.3285 38.9967 49.4248C38.8298 49.521 38.6983 49.6525 38.6021 49.8193C38.5123 49.9861 38.4674 50.1754 38.4674 50.3871H38.2171C38.2171 50.0343 38.2845 49.7231 38.4192 49.4536C38.554 49.1777 38.7368 48.9596 38.9678 48.7992C39.2052 48.6388 39.4778 48.5586 39.7858 48.5586C40.0938 48.5586 40.36 48.6228 40.5846 48.7511C40.8156 48.8794 40.992 49.0719 41.1139 49.3285C41.2422 49.5852 41.3064 49.9059 41.3064 50.2909V53.0818H40.5365V50.3871ZM42.7537 46.8263C42.7537 46.6788 42.805 46.5537 42.9077 46.451C43.0167 46.3484 43.1418 46.297 43.283 46.297C43.4306 46.297 43.5557 46.3484 43.6583 46.451C43.761 46.5537 43.8123 46.6788 43.8123 46.8263C43.8123 46.9675 43.761 47.0926 43.6583 47.2017C43.5557 47.3043 43.4306 47.3556 43.283 47.3556C43.1418 47.3556 43.0167 47.3043 42.9077 47.2017C42.805 47.0926 42.7537 46.9675 42.7537 46.8263ZM42.898 48.6549H43.6679V53.0818H42.898V48.6549ZM48.0926 50.3871C48.0926 50.0214 48.0124 49.7455 47.852 49.5595C47.6916 49.3734 47.4574 49.2804 47.1495 49.2804C46.9249 49.2804 46.726 49.3285 46.5528 49.4248C46.386 49.5146 46.2545 49.6429 46.1582 49.8097C46.0684 49.9765 46.0235 50.169 46.0235 50.3871V53.0818H45.2536V48.6549H46.0235V49.3478C46.1711 49.0783 46.3539 48.8794 46.5721 48.7511C46.7966 48.6228 47.0533 48.5586 47.342 48.5586C47.8103 48.5586 48.1792 48.7158 48.4487 49.0302C48.7246 49.3381 48.8625 49.7584 48.8625 50.2909V53.0818H48.0926V50.3871ZM50.0115 53.3705H50.791C50.791 53.5822 50.8488 53.7779 50.9643 53.9575C51.0797 54.1436 51.2433 54.2912 51.4551 54.4002C51.6668 54.5157 51.917 54.5735 52.2057 54.5735C52.4303 54.5735 52.6516 54.5189 52.8698 54.4099C53.0879 54.3008 53.2675 54.1276 53.4087 53.8902C53.5563 53.6592 53.63 53.3577 53.63 52.9855V48.6549H54.3999V52.9855C54.3999 53.4924 54.2941 53.9158 54.0824 54.2559C53.8706 54.6023 53.598 54.8622 53.2643 55.0354C52.9307 55.2086 52.5778 55.2953 52.2057 55.2953C51.7759 55.2953 51.3941 55.2151 51.0605 55.0547C50.7333 54.8943 50.4767 54.6665 50.2906 54.3714C50.1045 54.0827 50.0115 53.749 50.0115 53.3705ZM49.9249 50.8683C49.9249 50.3871 50.0243 49.9765 50.2232 49.6365C50.4221 49.29 50.6884 49.0238 51.022 48.8377C51.3556 48.6516 51.7213 48.5586 52.1191 48.5586C52.4912 48.5586 52.8152 48.6516 53.0911 48.8377C53.367 49.0238 53.5819 49.29 53.7359 49.6365C53.8963 49.9765 53.9765 50.3871 53.9765 50.8683C53.9765 51.3431 53.8963 51.7537 53.7359 52.1002C53.5819 52.4466 53.367 52.7129 53.0911 52.8989C52.8152 53.085 52.4912 53.178 52.1191 53.178C51.7213 53.178 51.3556 53.085 51.022 52.8989C50.6884 52.7129 50.4221 52.4466 50.2232 52.1002C50.0243 51.7537 49.9249 51.3431 49.9249 50.8683ZM50.7044 50.8683C50.7044 51.2084 50.7718 51.4971 50.9065 51.7345C51.0477 51.9718 51.2337 52.1515 51.4647 52.2734C51.6957 52.3953 51.9459 52.4562 52.2153 52.4562C52.4399 52.4562 52.6613 52.3953 52.8794 52.2734C53.0975 52.1515 53.2772 51.9718 53.4183 51.7345C53.5595 51.4971 53.63 51.2084 53.63 50.8683C53.63 50.6117 53.5883 50.3871 53.5049 50.1947C53.4215 49.9958 53.3093 49.829 53.1681 49.6942C53.0334 49.5595 52.8826 49.4568 52.7158 49.3863C52.549 49.3157 52.3822 49.2804 52.2153 49.2804C51.9459 49.2804 51.6957 49.3414 51.4647 49.4633C51.2337 49.5852 51.0477 49.7648 50.9065 50.0022C50.7718 50.2396 50.7044 50.5283 50.7044 50.8683Z" fill="#D9D9D9"/>
<path d="M417.248 33.4236C417.402 33.6931 417.562 33.9305 417.729 34.1358C417.902 34.3411 418.095 34.5015 418.307 34.617C418.518 34.7325 418.759 34.7902 419.028 34.7902C419.388 34.7902 419.676 34.6908 419.895 34.4919C420.113 34.293 420.222 34.0396 420.222 33.7316C420.222 33.43 420.151 33.1895 420.01 33.0098C419.869 32.8302 419.683 32.6858 419.452 32.5767C419.227 32.4613 418.987 32.3586 418.73 32.2688C418.563 32.211 418.377 32.1373 418.172 32.0474C417.967 31.9512 417.771 31.8325 417.585 31.6914C417.399 31.5438 417.245 31.3641 417.123 31.1524C417.007 30.9407 416.95 30.6809 416.95 30.3729C416.95 30.0393 417.033 29.7409 417.2 29.4779C417.367 29.2148 417.598 29.0095 417.893 28.862C418.188 28.708 418.525 28.631 418.903 28.631C419.269 28.631 419.587 28.7016 419.856 28.8427C420.132 28.9775 420.366 29.1539 420.559 29.372C420.751 29.5837 420.902 29.8083 421.011 30.0457L420.308 30.4499C420.225 30.2831 420.119 30.1195 419.991 29.9591C419.862 29.7987 419.705 29.6672 419.519 29.5645C419.34 29.4618 419.118 29.4105 418.855 29.4105C418.489 29.4105 418.223 29.5003 418.056 29.68C417.89 29.8532 417.806 30.0489 417.806 30.267C417.806 30.4531 417.854 30.6263 417.951 30.7867C418.047 30.9407 418.207 31.0883 418.432 31.2294C418.663 31.3641 418.974 31.4989 419.365 31.6336C419.545 31.6978 419.734 31.7812 419.933 31.8838C420.132 31.9865 420.315 32.118 420.482 32.2784C420.655 32.4324 420.796 32.6216 420.905 32.8462C421.014 33.0643 421.069 33.3274 421.069 33.6354C421.069 33.9305 421.011 34.1967 420.895 34.4341C420.786 34.6715 420.632 34.8736 420.433 35.0404C420.241 35.2072 420.02 35.3356 419.769 35.4254C419.526 35.5152 419.269 35.5601 419 35.5601C418.634 35.5601 418.294 35.4831 417.979 35.3291C417.671 35.1687 417.399 34.9602 417.161 34.7036C416.93 34.4405 416.741 34.1615 416.594 33.8663L417.248 33.4236ZM428.285 32.673V35.4639H427.515V32.7692C427.515 32.3907 427.445 32.1116 427.303 31.9319C427.169 31.7523 426.957 31.6625 426.668 31.6625C426.457 31.6625 426.274 31.7074 426.12 31.7972C425.966 31.8806 425.847 32.0057 425.764 32.1725C425.68 32.3394 425.639 32.5382 425.639 32.7692V35.4639H424.869V32.7692C424.869 32.3907 424.798 32.1116 424.657 31.9319C424.522 31.7523 424.31 31.6625 424.022 31.6625C423.81 31.6625 423.627 31.7074 423.473 31.7972C423.319 31.8806 423.2 32.0057 423.117 32.1725C423.034 32.3394 422.992 32.5382 422.992 32.7692V35.4639H422.222V31.0369H422.992V31.6817C423.127 31.4315 423.294 31.2455 423.492 31.1236C423.698 31.0016 423.938 30.9407 424.214 30.9407C424.522 30.9407 424.785 31.0145 425.003 31.162C425.228 31.3032 425.392 31.5053 425.494 31.7683C425.648 31.4925 425.841 31.2872 426.072 31.1524C426.303 31.0113 426.566 30.9407 426.861 30.9407C427.162 30.9407 427.419 31.0081 427.631 31.1428C427.842 31.2775 428.003 31.4764 428.112 31.7395C428.227 31.9961 428.285 32.3073 428.285 32.673ZM430.078 34.0973C430.078 34.2641 430.116 34.4085 430.193 34.5304C430.277 34.6523 430.389 34.7453 430.53 34.8095C430.678 34.8672 430.844 34.8961 431.03 34.8961C431.268 34.8961 431.48 34.8479 431.666 34.7517C431.858 34.6555 432.009 34.5207 432.118 34.3475C432.233 34.1679 432.291 33.9626 432.291 33.7316L432.445 34.309C432.445 34.5913 432.359 34.8255 432.185 35.0116C432.018 35.1976 431.81 35.3356 431.56 35.4254C431.316 35.5152 431.072 35.5601 430.828 35.5601C430.559 35.5601 430.305 35.5056 430.068 35.3965C429.837 35.281 429.651 35.1174 429.51 34.9057C429.369 34.694 429.298 34.4373 429.298 34.1358C429.298 33.7059 429.449 33.3627 429.75 33.106C430.058 32.843 430.485 32.7115 431.03 32.7115C431.351 32.7115 431.618 32.75 431.829 32.827C432.047 32.8975 432.221 32.9809 432.349 33.0772C432.477 33.167 432.564 33.2408 432.609 33.2985V33.7508C432.384 33.5969 432.153 33.4878 431.916 33.4236C431.678 33.3531 431.425 33.3178 431.156 33.3178C430.905 33.3178 430.7 33.3498 430.54 33.414C430.386 33.4782 430.27 33.568 430.193 33.6835C430.116 33.799 430.078 33.9369 430.078 34.0973ZM429.962 32.0571L429.587 31.4893C429.754 31.3674 429.981 31.2455 430.27 31.1236C430.565 31.0016 430.918 30.9407 431.329 30.9407C431.675 30.9407 431.977 30.9952 432.233 31.1043C432.496 31.207 432.699 31.3577 432.84 31.5566C432.987 31.7555 433.061 31.9993 433.061 32.288V35.4639H432.291V32.3939C432.291 32.2399 432.266 32.1148 432.214 32.0186C432.163 31.9159 432.089 31.8357 431.993 31.778C431.903 31.7202 431.797 31.6785 431.675 31.6529C431.553 31.6272 431.425 31.6144 431.29 31.6144C431.072 31.6144 430.873 31.64 430.694 31.6914C430.52 31.7427 430.373 31.8036 430.251 31.8742C430.129 31.9448 430.033 32.0057 429.962 32.0571ZM435.134 31.0369V35.4639H434.365V31.0369H435.134ZM436.472 31.8838C436.37 31.8068 436.276 31.7523 436.193 31.7202C436.11 31.6817 436.004 31.6625 435.875 31.6625C435.683 31.6625 435.532 31.7106 435.423 31.8068C435.314 31.9031 435.237 32.0346 435.192 32.2014C435.154 32.3682 435.134 32.5575 435.134 32.7692H434.788C434.788 32.4163 434.849 32.1052 434.971 31.8357C435.099 31.5598 435.263 31.3417 435.462 31.1813C435.661 31.0209 435.863 30.9407 436.068 30.9407C436.228 30.9407 436.376 30.9632 436.511 31.0081C436.652 31.0466 436.78 31.1268 436.896 31.2487L436.472 31.8838ZM436.99 31.0369H439.203V31.7587H436.99V31.0369ZM437.711 29.4971H438.481V35.4639H437.711V29.4971ZM442.909 28.7272H443.727V35.4639H442.909V28.7272ZM448.058 32.7692C448.058 32.4035 447.978 32.1276 447.818 31.9416C447.658 31.7555 447.423 31.6625 447.115 31.6625C446.891 31.6625 446.692 31.7106 446.519 31.8068C446.352 31.8967 446.22 32.025 446.124 32.1918C446.034 32.3586 445.989 32.5511 445.989 32.7692V35.4639H445.219V31.0369H445.989V31.7298C446.137 31.4604 446.32 31.2615 446.538 31.1332C446.762 31.0049 447.019 30.9407 447.308 30.9407C447.776 30.9407 448.145 31.0979 448.415 31.4123C448.69 31.7202 448.828 32.1405 448.828 32.673V35.4639H448.058V32.7692ZM450.459 34.1069C450.548 34.2416 450.651 34.3668 450.767 34.4822C450.882 34.5977 451.014 34.6908 451.161 34.7613C451.315 34.8255 451.482 34.8576 451.662 34.8576C451.88 34.8576 452.05 34.8095 452.172 34.7132C452.3 34.6106 452.364 34.4726 452.364 34.2994C452.364 34.1454 452.313 34.0171 452.21 33.9144C452.114 33.8054 451.989 33.7156 451.835 33.645C451.681 33.568 451.517 33.4974 451.344 33.4333C451.151 33.3563 450.956 33.2664 450.757 33.1638C450.564 33.0547 450.401 32.9168 450.266 32.75C450.138 32.5767 450.074 32.3618 450.074 32.1052C450.074 31.8421 450.141 31.624 450.276 31.4508C450.417 31.2775 450.597 31.1492 450.815 31.0658C451.039 30.9824 451.27 30.9407 451.508 30.9407C451.745 30.9407 451.966 30.9792 452.172 31.0562C452.383 31.1332 452.569 31.2358 452.73 31.3641C452.89 31.4925 453.015 31.64 453.105 31.8068L452.489 32.2014C452.367 32.0346 452.213 31.8967 452.027 31.7876C451.848 31.6785 451.642 31.624 451.411 31.624C451.251 31.624 451.113 31.6593 450.998 31.7298C450.882 31.8004 450.824 31.9095 450.824 32.0571C450.824 32.1725 450.869 32.2752 450.959 32.365C451.049 32.4548 451.164 32.535 451.305 32.6056C451.447 32.6762 451.594 32.7436 451.748 32.8077C452.005 32.9104 452.239 33.0226 452.451 33.1445C452.662 33.26 452.829 33.4012 452.951 33.568C453.079 33.7348 453.144 33.9497 453.144 34.2128C453.144 34.5977 453.002 34.9185 452.72 35.1752C452.444 35.4318 452.079 35.5601 451.623 35.5601C451.328 35.5601 451.062 35.5088 450.824 35.4061C450.587 35.2971 450.385 35.1591 450.218 34.9923C450.058 34.8255 449.936 34.6555 449.852 34.4822L450.459 34.1069ZM454.157 29.2084C454.157 29.0609 454.209 28.9357 454.311 28.8331C454.42 28.7304 454.545 28.6791 454.686 28.6791C454.834 28.6791 454.959 28.7304 455.062 28.8331C455.164 28.9357 455.216 29.0609 455.216 29.2084C455.216 29.3496 455.164 29.4747 455.062 29.5837C454.959 29.6864 454.834 29.7377 454.686 29.7377C454.545 29.7377 454.42 29.6864 454.311 29.5837C454.209 29.4747 454.157 29.3496 454.157 29.2084ZM454.302 31.0369H455.071V35.4639H454.302V31.0369ZM456.359 35.7526H457.138C457.138 35.9643 457.196 36.16 457.312 36.3396C457.427 36.5257 457.591 36.6733 457.802 36.7823C458.014 36.8978 458.264 36.9556 458.553 36.9556C458.778 36.9556 458.999 36.901 459.217 36.7919C459.435 36.6829 459.615 36.5096 459.756 36.2723C459.904 36.0413 459.977 35.7397 459.977 35.3676V31.0369H460.747V35.3676C460.747 35.8745 460.641 36.2979 460.43 36.638C460.218 36.9844 459.945 37.2443 459.612 37.4175C459.278 37.5907 458.925 37.6773 458.553 37.6773C458.123 37.6773 457.741 37.5971 457.408 37.4367C457.081 37.2763 456.824 37.0486 456.638 36.7535C456.452 36.4647 456.359 36.1311 456.359 35.7526ZM456.272 33.2504C456.272 32.7692 456.372 32.3586 456.57 32.0186C456.769 31.6721 457.036 31.4058 457.369 31.2198C457.703 31.0337 458.069 30.9407 458.466 30.9407C458.838 30.9407 459.162 31.0337 459.438 31.2198C459.714 31.4058 459.929 31.6721 460.083 32.0186C460.244 32.3586 460.324 32.7692 460.324 33.2504C460.324 33.7252 460.244 34.1358 460.083 34.4822C459.929 34.8287 459.714 35.095 459.438 35.281C459.162 35.4671 458.838 35.5601 458.466 35.5601C458.069 35.5601 457.703 35.4671 457.369 35.281C457.036 35.095 456.769 34.8287 456.57 34.4822C456.372 34.1358 456.272 33.7252 456.272 33.2504ZM457.052 33.2504C457.052 33.5904 457.119 33.8792 457.254 34.1165C457.395 34.3539 457.581 34.5336 457.812 34.6555C458.043 34.7774 458.293 34.8383 458.563 34.8383C458.787 34.8383 459.009 34.7774 459.227 34.6555C459.445 34.5336 459.624 34.3539 459.766 34.1165C459.907 33.8792 459.977 33.5904 459.977 33.2504C459.977 32.9938 459.936 32.7692 459.852 32.5767C459.769 32.3778 459.657 32.211 459.515 32.0763C459.381 31.9416 459.23 31.8389 459.063 31.7683C458.896 31.6978 458.729 31.6625 458.563 31.6625C458.293 31.6625 458.043 31.7234 457.812 31.8453C457.581 31.9672 457.395 32.1469 457.254 32.3843C457.119 32.6216 457.052 32.9104 457.052 33.2504ZM462.916 27.9573V35.4639H462.146V27.9573H462.916ZM464.985 32.7692C464.985 32.4035 464.904 32.1276 464.744 31.9416C464.59 31.7555 464.356 31.6625 464.042 31.6625C463.817 31.6625 463.618 31.7106 463.445 31.8068C463.278 31.9031 463.147 32.0346 463.05 32.2014C462.96 32.3682 462.916 32.5575 462.916 32.7692H462.665C462.665 32.4163 462.733 32.1052 462.867 31.8357C463.002 31.5598 463.185 31.3417 463.416 31.1813C463.653 31.0209 463.926 30.9407 464.234 30.9407C464.542 30.9407 464.808 31.0049 465.033 31.1332C465.264 31.2615 465.44 31.454 465.562 31.7106C465.69 31.9672 465.755 32.288 465.755 32.673V35.4639H464.985V32.7692ZM466.528 31.0369H468.742V31.7587H466.528V31.0369ZM467.25 29.4971H468.02V35.4639H467.25V29.4971ZM469.697 34.1069C469.787 34.2416 469.889 34.3668 470.005 34.4822C470.12 34.5977 470.252 34.6908 470.399 34.7613C470.553 34.8255 470.72 34.8576 470.9 34.8576C471.118 34.8576 471.288 34.8095 471.41 34.7132C471.538 34.6106 471.602 34.4726 471.602 34.2994C471.602 34.1454 471.551 34.0171 471.448 33.9144C471.352 33.8054 471.227 33.7156 471.073 33.645C470.919 33.568 470.755 33.4974 470.582 33.4333C470.39 33.3563 470.194 33.2664 469.995 33.1638C469.803 33.0547 469.639 32.9168 469.504 32.75C469.376 32.5767 469.312 32.3618 469.312 32.1052C469.312 31.8421 469.379 31.624 469.514 31.4508C469.655 31.2775 469.835 31.1492 470.053 31.0658C470.277 30.9824 470.508 30.9407 470.746 30.9407C470.983 30.9407 471.204 30.9792 471.41 31.0562C471.621 31.1332 471.808 31.2358 471.968 31.3641C472.128 31.4925 472.253 31.64 472.343 31.8068L471.727 32.2014C471.605 32.0346 471.451 31.8967 471.265 31.7876C471.086 31.6785 470.88 31.624 470.649 31.624C470.489 31.624 470.351 31.6593 470.236 31.7298C470.12 31.8004 470.062 31.9095 470.062 32.0571C470.062 32.1725 470.107 32.2752 470.197 32.365C470.287 32.4548 470.402 32.535 470.544 32.6056C470.685 32.6762 470.832 32.7436 470.986 32.8077C471.243 32.9104 471.477 33.0226 471.689 33.1445C471.901 33.26 472.067 33.4012 472.189 33.568C472.318 33.7348 472.382 33.9497 472.382 34.2128C472.382 34.5977 472.241 34.9185 471.958 35.1752C471.682 35.4318 471.317 35.5601 470.861 35.5601C470.566 35.5601 470.3 35.5088 470.062 35.4061C469.825 35.2971 469.623 35.1591 469.456 34.9923C469.296 34.8255 469.174 34.6555 469.09 34.4822L469.697 34.1069ZM477.705 31.7683C477.602 31.6464 477.467 31.5053 477.301 31.3449C477.14 31.1781 476.996 30.992 476.868 30.7867C476.746 30.5814 476.685 30.3569 476.685 30.1131C476.685 29.8115 476.755 29.5485 476.896 29.3239C477.038 29.0994 477.23 28.9261 477.474 28.8042C477.724 28.6823 478.01 28.6214 478.33 28.6214C478.67 28.6214 478.959 28.6919 479.197 28.8331C479.44 28.9742 479.626 29.1603 479.755 29.3913C479.883 29.6158 479.947 29.8628 479.947 30.1323C479.947 30.2927 479.915 30.4499 479.851 30.6039C479.787 30.7578 479.694 30.9118 479.572 31.0658C479.45 31.2134 479.302 31.3577 479.129 31.4989C478.956 31.6336 478.757 31.7683 478.533 31.9031C478.359 32.0057 478.17 32.1116 477.965 32.2207C477.759 32.3233 477.564 32.442 477.378 32.5767C477.198 32.7051 477.05 32.8558 476.935 33.0291C476.819 33.2023 476.762 33.4108 476.762 33.6546C476.762 33.8984 476.823 34.1101 476.945 34.2898C477.073 34.4694 477.243 34.6074 477.455 34.7036C477.666 34.7998 477.901 34.8479 478.157 34.8479C478.465 34.8479 478.76 34.7806 479.043 34.6458C479.331 34.5111 479.607 34.3315 479.87 34.1069C480.133 33.8759 480.387 33.6161 480.63 33.3274C480.881 33.0387 481.121 32.7371 481.352 32.4228L481.949 32.7981C481.692 33.1317 481.429 33.4653 481.16 33.799C480.89 34.1262 480.602 34.4213 480.294 34.6843C479.986 34.9474 479.652 35.1591 479.293 35.3195C478.934 35.4799 478.539 35.5601 478.109 35.5601C477.743 35.5601 477.394 35.4863 477.06 35.3388C476.733 35.1848 476.463 34.9698 476.252 34.694C476.046 34.4117 475.944 34.0813 475.944 33.7027C475.944 33.4204 475.992 33.1734 476.088 32.9617C476.191 32.75 476.319 32.5639 476.473 32.4035C476.633 32.2431 476.807 32.1052 476.993 31.9897C477.179 31.8742 477.362 31.7748 477.541 31.6914C477.721 31.6015 477.875 31.5213 478.003 31.4508C478.362 31.2455 478.645 31.0305 478.85 30.806C479.062 30.575 479.168 30.3504 479.168 30.1323C479.168 29.9655 479.132 29.8211 479.062 29.6992C478.998 29.5773 478.905 29.4811 478.783 29.4105C478.661 29.3399 478.51 29.3047 478.33 29.3047C478.067 29.3047 477.862 29.3784 477.714 29.526C477.567 29.6736 477.493 29.8693 477.493 30.1131C477.493 30.3312 477.58 30.5397 477.753 30.7386C477.926 30.9375 478.109 31.1492 478.302 31.3738L481.862 35.4639H480.938L477.705 31.7683ZM417.643 45.4429L417.931 44.673H420.915L421.203 45.4429H417.643ZM419.404 42.2478L418.268 44.9232L418.191 45.0964L417.19 47.4639H416.276L419.404 40.3904L422.531 47.4639H421.617L420.636 45.1542L420.559 44.9617L419.404 42.2478ZM426.142 44.7692C426.142 44.4035 426.062 44.1276 425.901 43.9416C425.741 43.7555 425.507 43.6625 425.199 43.6625C424.974 43.6625 424.775 43.7106 424.602 43.8068C424.435 43.8967 424.304 44.025 424.208 44.1918C424.118 44.3586 424.073 44.5511 424.073 44.7692V47.4639H423.303V43.0369H424.073V43.7298C424.22 43.4604 424.403 43.2615 424.621 43.1332C424.846 43.0049 425.103 42.9407 425.391 42.9407C425.86 42.9407 426.228 43.0979 426.498 43.4123C426.774 43.7202 426.912 44.1405 426.912 44.673V47.4639H426.142V44.7692ZM428.706 46.0973C428.706 46.2641 428.744 46.4085 428.821 46.5304C428.904 46.6523 429.017 46.7453 429.158 46.8095C429.305 46.8672 429.472 46.8961 429.658 46.8961C429.896 46.8961 430.107 46.8479 430.293 46.7517C430.486 46.6555 430.637 46.5207 430.746 46.3475C430.861 46.1679 430.919 45.9626 430.919 45.7316L431.073 46.309C431.073 46.5913 430.986 46.8255 430.813 47.0116C430.646 47.1976 430.438 47.3356 430.188 47.4254C429.944 47.5152 429.7 47.5601 429.456 47.5601C429.187 47.5601 428.933 47.5056 428.696 47.3965C428.465 47.281 428.279 47.1174 428.138 46.9057C427.997 46.694 427.926 46.4373 427.926 46.1358C427.926 45.7059 428.077 45.3627 428.378 45.106C428.686 44.843 429.113 44.7115 429.658 44.7115C429.979 44.7115 430.245 44.75 430.457 44.827C430.675 44.8975 430.848 44.9809 430.977 45.0772C431.105 45.167 431.192 45.2408 431.237 45.2985V45.7508C431.012 45.5969 430.781 45.4878 430.544 45.4236C430.306 45.3531 430.053 45.3178 429.783 45.3178C429.533 45.3178 429.328 45.3498 429.168 45.414C429.014 45.4782 428.898 45.568 428.821 45.6835C428.744 45.799 428.706 45.9369 428.706 46.0973ZM428.59 44.0571L428.215 43.4893C428.382 43.3674 428.609 43.2455 428.898 43.1236C429.193 43.0016 429.546 42.9407 429.957 42.9407C430.303 42.9407 430.605 42.9952 430.861 43.1043C431.124 43.207 431.326 43.3577 431.468 43.5566C431.615 43.7555 431.689 43.9993 431.689 44.288V47.4639H430.919V44.3939C430.919 44.2399 430.893 44.1148 430.842 44.0186C430.791 43.9159 430.717 43.8357 430.621 43.778C430.531 43.7202 430.425 43.6785 430.303 43.6529C430.181 43.6272 430.053 43.6144 429.918 43.6144C429.7 43.6144 429.501 43.64 429.321 43.6914C429.148 43.7427 429.001 43.8036 428.879 43.8742C428.757 43.9448 428.661 44.0057 428.59 44.0571ZM432.992 39.9573H433.762V47.4639H432.992V39.9573ZM438.723 43.0369L435.836 49.5811H434.97L436.182 46.8383L434.489 43.0369H435.403L436.808 46.5015L436.49 46.463L437.857 43.0369H438.723ZM438.775 43.0369H440.989V43.7587H438.775V43.0369ZM439.497 41.4971H440.267V47.4639H439.497V41.4971ZM441.761 41.2084C441.761 41.0609 441.812 40.9357 441.915 40.8331C442.024 40.7304 442.149 40.6791 442.29 40.6791C442.438 40.6791 442.563 40.7304 442.666 40.8331C442.768 40.9357 442.82 41.0609 442.82 41.2084C442.82 41.3496 442.768 41.4747 442.666 41.5837C442.563 41.6864 442.438 41.7377 442.29 41.7377C442.149 41.7377 442.024 41.6864 441.915 41.5837C441.812 41.4747 441.761 41.3496 441.761 41.2084ZM441.905 43.0369H442.675V47.4639H441.905V43.0369ZM444.607 45.2504C444.607 45.5584 444.671 45.831 444.8 46.0684C444.935 46.3058 445.114 46.4951 445.339 46.6362C445.57 46.771 445.83 46.8383 446.118 46.8383C446.356 46.8383 446.577 46.803 446.782 46.7325C446.994 46.6555 447.177 46.556 447.331 46.4341C447.485 46.3058 447.594 46.1711 447.658 46.0299V46.9923C447.504 47.1719 447.283 47.3131 446.994 47.4157C446.712 47.512 446.42 47.5601 446.118 47.5601C445.688 47.5601 445.3 47.4607 444.954 47.2618C444.607 47.0629 444.331 46.7902 444.126 46.4437C443.927 46.0909 443.828 45.6931 443.828 45.2504C443.828 44.8013 443.927 44.4035 444.126 44.0571C444.331 43.7106 444.607 43.4379 444.954 43.239C445.3 43.0401 445.688 42.9407 446.118 42.9407C446.42 42.9407 446.712 42.992 446.994 43.0947C447.283 43.1909 447.504 43.3289 447.658 43.5085V44.4709C447.594 44.3233 447.485 44.1886 447.331 44.0667C447.177 43.9448 446.994 43.8485 446.782 43.778C446.577 43.701 446.356 43.6625 446.118 43.6625C445.83 43.6625 445.57 43.7298 445.339 43.8646C445.114 43.9993 444.935 44.1886 444.8 44.4324C444.671 44.6698 444.607 44.9424 444.607 45.2504ZM449.039 46.1069C449.129 46.2416 449.232 46.3668 449.347 46.4822C449.463 46.5977 449.594 46.6908 449.742 46.7613C449.896 46.8255 450.063 46.8576 450.242 46.8576C450.461 46.8576 450.631 46.8095 450.752 46.7132C450.881 46.6106 450.945 46.4726 450.945 46.2994C450.945 46.1454 450.894 46.0171 450.791 45.9144C450.695 45.8054 450.57 45.7156 450.416 45.645C450.262 45.568 450.098 45.4974 449.925 45.4333C449.732 45.3563 449.537 45.2664 449.338 45.1638C449.145 45.0547 448.982 44.9168 448.847 44.75C448.719 44.5767 448.654 44.3618 448.654 44.1052C448.654 43.8421 448.722 43.624 448.857 43.4508C448.998 43.2775 449.177 43.1492 449.396 43.0658C449.62 42.9824 449.851 42.9407 450.088 42.9407C450.326 42.9407 450.547 42.9792 450.752 43.0562C450.964 43.1332 451.15 43.2358 451.311 43.3641C451.471 43.4925 451.596 43.64 451.686 43.8068L451.07 44.2014C450.948 44.0346 450.794 43.8967 450.608 43.7876C450.428 43.6785 450.223 43.624 449.992 43.624C449.832 43.624 449.694 43.6593 449.578 43.7298C449.463 43.8004 449.405 43.9095 449.405 44.0571C449.405 44.1725 449.45 44.2752 449.54 44.365C449.63 44.4548 449.745 44.535 449.886 44.6056C450.027 44.6762 450.175 44.7436 450.329 44.8077C450.586 44.9104 450.82 45.0226 451.032 45.1445C451.243 45.26 451.41 45.4012 451.532 45.568C451.66 45.7348 451.724 45.9497 451.724 46.2128C451.724 46.5977 451.583 46.9185 451.301 47.1752C451.025 47.4318 450.659 47.5601 450.204 47.5601C449.909 47.5601 449.643 47.5088 449.405 47.4061C449.168 47.2971 448.966 47.1591 448.799 46.9923C448.638 46.8255 448.517 46.6555 448.433 46.4822L449.039 46.1069Z" fill="#D9D9D9"/>
<path d="M435.77 125.263H436.588V132H435.77V125.263ZM437.791 132H436.222V131.182H437.791C438.169 131.182 438.516 131.124 438.83 131.009C439.145 130.887 439.414 130.717 439.639 130.499C439.863 130.274 440.036 130.005 440.158 129.69C440.28 129.376 440.341 129.023 440.341 128.632C440.341 128.24 440.28 127.887 440.158 127.573C440.036 127.259 439.863 126.992 439.639 126.774C439.414 126.55 439.145 126.38 438.83 126.264C438.516 126.142 438.169 126.081 437.791 126.081H436.222V125.263H437.791C438.445 125.263 439.026 125.405 439.533 125.687C440.04 125.969 440.437 126.364 440.726 126.871C441.015 127.371 441.159 127.958 441.159 128.632C441.159 129.305 441.015 129.896 440.726 130.402C440.437 130.903 440.04 131.294 439.533 131.577C439.026 131.859 438.445 132 437.791 132ZM442.263 125.745C442.263 125.597 442.314 125.472 442.417 125.369C442.526 125.267 442.651 125.215 442.792 125.215C442.94 125.215 443.065 125.267 443.168 125.369C443.27 125.472 443.322 125.597 443.322 125.745C443.322 125.886 443.27 126.011 443.168 126.12C443.065 126.223 442.94 126.274 442.792 126.274C442.651 126.274 442.526 126.223 442.417 126.12C442.314 126.011 442.263 125.886 442.263 125.745ZM442.407 127.573H443.177V132H442.407V127.573ZM444.041 127.573H444.907L446.158 130.701L447.409 127.573H448.276L446.158 132.337L444.041 127.573ZM450.574 132.096C450.163 132.096 449.797 132 449.476 131.808C449.162 131.609 448.915 131.336 448.735 130.99C448.562 130.643 448.476 130.242 448.476 129.787C448.476 129.325 448.565 128.92 448.745 128.574C448.931 128.227 449.188 127.958 449.515 127.766C449.849 127.573 450.233 127.477 450.67 127.477C451.106 127.477 451.478 127.57 451.786 127.756C452.1 127.936 452.341 128.195 452.508 128.535C452.675 128.875 452.758 129.28 452.758 129.748C452.758 129.793 452.755 129.841 452.748 129.892C452.748 129.937 452.748 129.966 452.748 129.979H448.966V129.325H452.142L451.834 129.767C451.853 129.735 451.873 129.687 451.892 129.623C451.911 129.552 451.921 129.495 451.921 129.45C451.921 129.187 451.866 128.959 451.757 128.766C451.655 128.574 451.51 128.423 451.324 128.314C451.138 128.205 450.92 128.15 450.67 128.15C450.375 128.15 450.121 128.215 449.909 128.343C449.704 128.465 449.544 128.645 449.428 128.882C449.319 129.113 449.261 129.398 449.255 129.738C449.255 130.085 449.31 130.38 449.419 130.624C449.528 130.868 449.688 131.054 449.9 131.182C450.112 131.31 450.368 131.374 450.67 131.374C450.971 131.374 451.238 131.31 451.469 131.182C451.699 131.047 451.895 130.845 452.056 130.576L452.681 130.97C452.45 131.342 452.158 131.625 451.805 131.817C451.459 132.003 451.048 132.096 450.574 132.096ZM454.583 127.573V132H453.813V127.573H454.583ZM455.921 128.42C455.818 128.343 455.725 128.288 455.642 128.256C455.558 128.218 455.453 128.199 455.324 128.199C455.132 128.199 454.981 128.247 454.872 128.343C454.763 128.439 454.686 128.571 454.641 128.738C454.602 128.904 454.583 129.094 454.583 129.305H454.237C454.237 128.952 454.298 128.641 454.42 128.372C454.548 128.096 454.712 127.878 454.91 127.717C455.109 127.557 455.311 127.477 455.517 127.477C455.677 127.477 455.825 127.499 455.959 127.544C456.101 127.583 456.229 127.663 456.344 127.785L455.921 128.42ZM457.295 130.643C457.385 130.778 457.487 130.903 457.603 131.018C457.718 131.134 457.85 131.227 457.997 131.297C458.151 131.362 458.318 131.394 458.498 131.394C458.716 131.394 458.886 131.346 459.008 131.249C459.136 131.147 459.2 131.009 459.2 130.836C459.2 130.682 459.149 130.553 459.046 130.451C458.95 130.342 458.825 130.252 458.671 130.181C458.517 130.104 458.354 130.034 458.18 129.969C457.988 129.892 457.792 129.803 457.593 129.7C457.401 129.591 457.237 129.453 457.102 129.286C456.974 129.113 456.91 128.898 456.91 128.641C456.91 128.378 456.977 128.16 457.112 127.987C457.253 127.814 457.433 127.685 457.651 127.602C457.876 127.519 458.107 127.477 458.344 127.477C458.581 127.477 458.803 127.515 459.008 127.592C459.22 127.669 459.406 127.772 459.566 127.9C459.727 128.029 459.852 128.176 459.941 128.343L459.326 128.738C459.204 128.571 459.05 128.433 458.864 128.324C458.684 128.215 458.479 128.16 458.248 128.16C458.087 128.16 457.949 128.195 457.834 128.266C457.718 128.337 457.661 128.446 457.661 128.593C457.661 128.709 457.706 128.811 457.795 128.901C457.885 128.991 458.001 129.071 458.142 129.142C458.283 129.212 458.431 129.28 458.585 129.344C458.841 129.446 459.075 129.559 459.287 129.681C459.499 129.796 459.666 129.937 459.788 130.104C459.916 130.271 459.98 130.486 459.98 130.749C459.98 131.134 459.839 131.455 459.557 131.711C459.281 131.968 458.915 132.096 458.459 132.096C458.164 132.096 457.898 132.045 457.661 131.942C457.423 131.833 457.221 131.695 457.054 131.528C456.894 131.362 456.772 131.192 456.689 131.018L457.295 130.643ZM462.707 132.096C462.296 132.096 461.93 132 461.609 131.808C461.295 131.609 461.048 131.336 460.868 130.99C460.695 130.643 460.609 130.242 460.609 129.787C460.609 129.325 460.698 128.92 460.878 128.574C461.064 128.227 461.321 127.958 461.648 127.766C461.982 127.573 462.367 127.477 462.803 127.477C463.239 127.477 463.611 127.57 463.919 127.756C464.234 127.936 464.474 128.195 464.641 128.535C464.808 128.875 464.891 129.28 464.891 129.748C464.891 129.793 464.888 129.841 464.882 129.892C464.882 129.937 464.882 129.966 464.882 129.979H461.099V129.325H464.275L463.967 129.767C463.987 129.735 464.006 129.687 464.025 129.623C464.044 129.552 464.054 129.495 464.054 129.45C464.054 129.187 463.999 128.959 463.89 128.766C463.788 128.574 463.643 128.423 463.457 128.314C463.271 128.205 463.053 128.15 462.803 128.15C462.508 128.15 462.254 128.215 462.043 128.343C461.837 128.465 461.677 128.645 461.561 128.882C461.452 129.113 461.395 129.398 461.388 129.738C461.388 130.085 461.443 130.38 461.552 130.624C461.661 130.868 461.821 131.054 462.033 131.182C462.245 131.31 462.501 131.374 462.803 131.374C463.104 131.374 463.371 131.31 463.602 131.182C463.833 131.047 464.028 130.845 464.189 130.576L464.814 130.97C464.583 131.342 464.291 131.625 463.938 131.817C463.592 132.003 463.181 132.096 462.707 132.096ZM434.355 145.001C434.426 145.11 434.528 145.193 434.663 145.251C434.791 145.315 434.942 145.347 435.115 145.347C435.263 145.347 435.407 145.28 435.549 145.145C435.696 145.017 435.77 144.796 435.77 144.481V137.263H436.54V144.577C436.54 144.84 436.505 145.068 436.434 145.261C436.37 145.453 436.274 145.614 436.145 145.742C436.017 145.87 435.86 145.963 435.674 146.021C435.494 146.085 435.292 146.117 435.067 146.117C434.901 146.117 434.74 146.088 434.586 146.031C434.426 145.979 434.291 145.915 434.182 145.838C434.066 145.768 433.983 145.7 433.932 145.636L434.355 145.001ZM437.649 141.787C437.649 141.337 437.748 140.94 437.947 140.593C438.152 140.247 438.428 139.974 438.775 139.775C439.121 139.576 439.509 139.477 439.939 139.477C440.376 139.477 440.764 139.576 441.104 139.775C441.45 139.974 441.723 140.247 441.922 140.593C442.127 140.94 442.23 141.337 442.23 141.787C442.23 142.229 442.127 142.627 441.922 142.98C441.723 143.326 441.45 143.599 441.104 143.798C440.764 143.997 440.376 144.096 439.939 144.096C439.509 144.096 439.121 143.997 438.775 143.798C438.428 143.599 438.152 143.326 437.947 142.98C437.748 142.627 437.649 142.229 437.649 141.787ZM438.428 141.787C438.428 142.094 438.492 142.367 438.621 142.605C438.756 142.842 438.935 143.031 439.16 143.172C439.391 143.307 439.651 143.374 439.939 143.374C440.228 143.374 440.485 143.307 440.709 143.172C440.94 143.031 441.12 142.842 441.248 142.605C441.383 142.367 441.45 142.094 441.45 141.787C441.45 141.479 441.383 141.206 441.248 140.969C441.12 140.725 440.94 140.535 440.709 140.401C440.485 140.266 440.228 140.199 439.939 140.199C439.651 140.199 439.391 140.266 439.16 140.401C438.935 140.535 438.756 140.725 438.621 140.969C438.492 141.206 438.428 141.479 438.428 141.787ZM444.009 136.493V144H443.239V136.493H444.009ZM447.714 141.787C447.714 142.261 447.615 142.672 447.416 143.018C447.217 143.365 446.951 143.631 446.617 143.817C446.29 144.003 445.924 144.096 445.52 144.096C445.154 144.096 444.83 144.003 444.548 143.817C444.272 143.631 444.054 143.365 443.894 143.018C443.74 142.672 443.663 142.261 443.663 141.787C443.663 141.305 443.74 140.895 443.894 140.555C444.054 140.208 444.272 139.942 444.548 139.756C444.83 139.57 445.154 139.477 445.52 139.477C445.924 139.477 446.29 139.57 446.617 139.756C446.951 139.942 447.217 140.208 447.416 140.555C447.615 140.895 447.714 141.305 447.714 141.787ZM446.935 141.787C446.935 141.446 446.864 141.158 446.723 140.92C446.588 140.683 446.405 140.503 446.174 140.381C445.95 140.26 445.7 140.199 445.424 140.199C445.199 140.199 444.978 140.26 444.76 140.381C444.542 140.503 444.362 140.683 444.221 140.92C444.08 141.158 444.009 141.446 444.009 141.787C444.009 142.127 444.08 142.415 444.221 142.653C444.362 142.89 444.542 143.07 444.76 143.192C444.978 143.314 445.199 143.374 445.424 143.374C445.7 143.374 445.95 143.314 446.174 143.192C446.405 143.07 446.588 142.89 446.723 142.653C446.864 142.415 446.935 142.127 446.935 141.787ZM452.19 140.632C452.19 141.139 452.3 141.591 452.518 141.989C452.742 142.386 453.047 142.701 453.432 142.932C453.817 143.163 454.253 143.278 454.741 143.278C455.235 143.278 455.671 143.163 456.05 142.932C456.435 142.701 456.736 142.386 456.954 141.989C457.179 141.591 457.291 141.139 457.291 140.632C457.291 140.125 457.179 139.673 456.954 139.275C456.736 138.877 456.435 138.563 456.05 138.332C455.671 138.101 455.235 137.985 454.741 137.985C454.253 137.985 453.817 138.101 453.432 138.332C453.047 138.563 452.742 138.877 452.518 139.275C452.3 139.673 452.19 140.125 452.19 140.632ZM451.324 140.632C451.324 140.138 451.408 139.682 451.575 139.265C451.748 138.842 451.988 138.476 452.296 138.168C452.604 137.854 452.967 137.61 453.384 137.437C453.801 137.257 454.253 137.167 454.741 137.167C455.235 137.167 455.687 137.257 456.098 137.437C456.515 137.61 456.877 137.854 457.185 138.168C457.493 138.476 457.731 138.842 457.897 139.265C458.071 139.682 458.157 140.138 458.157 140.632C458.157 141.119 458.071 141.575 457.897 141.998C457.731 142.422 457.493 142.791 457.185 143.105C456.877 143.413 456.515 143.657 456.098 143.836C455.687 144.01 455.235 144.096 454.741 144.096C454.253 144.096 453.801 144.01 453.384 143.836C452.967 143.657 452.604 143.413 452.296 143.105C451.988 142.791 451.748 142.422 451.575 141.998C451.408 141.575 451.324 141.119 451.324 140.632ZM459.986 146.117H459.216V139.573H459.986V146.117ZM463.691 141.787C463.691 142.261 463.592 142.672 463.393 143.018C463.194 143.365 462.928 143.631 462.594 143.817C462.267 144.003 461.901 144.096 461.497 144.096C461.131 144.096 460.807 144.003 460.525 143.817C460.249 143.631 460.031 143.365 459.871 143.018C459.717 142.672 459.64 142.261 459.64 141.787C459.64 141.305 459.717 140.895 459.871 140.555C460.031 140.208 460.249 139.942 460.525 139.756C460.807 139.57 461.131 139.477 461.497 139.477C461.901 139.477 462.267 139.57 462.594 139.756C462.928 139.942 463.194 140.208 463.393 140.555C463.592 140.895 463.691 141.305 463.691 141.787ZM462.912 141.787C462.912 141.446 462.841 141.158 462.7 140.92C462.565 140.683 462.382 140.503 462.151 140.381C461.927 140.26 461.677 140.199 461.401 140.199C461.176 140.199 460.955 140.26 460.737 140.381C460.519 140.503 460.339 140.683 460.198 140.92C460.057 141.158 459.986 141.446 459.986 141.787C459.986 142.127 460.057 142.415 460.198 142.653C460.339 142.89 460.519 143.07 460.737 143.192C460.955 143.314 461.176 143.374 461.401 143.374C461.677 143.374 461.927 143.314 462.151 143.192C462.382 143.07 462.565 142.89 462.7 142.653C462.841 142.415 462.912 142.127 462.912 141.787ZM465.475 146.117H464.705V139.573H465.475V146.117ZM469.18 141.787C469.18 142.261 469.08 142.672 468.881 143.018C468.683 143.365 468.416 143.631 468.083 143.817C467.755 144.003 467.39 144.096 466.986 144.096C466.62 144.096 466.296 144.003 466.014 143.817C465.738 143.631 465.52 143.365 465.359 143.018C465.205 142.672 465.128 142.261 465.128 141.787C465.128 141.305 465.205 140.895 465.359 140.555C465.52 140.208 465.738 139.942 466.014 139.756C466.296 139.57 466.62 139.477 466.986 139.477C467.39 139.477 467.755 139.57 468.083 139.756C468.416 139.942 468.683 140.208 468.881 140.555C469.08 140.895 469.18 141.305 469.18 141.787ZM468.4 141.787C468.4 141.446 468.33 141.158 468.189 140.92C468.054 140.683 467.871 140.503 467.64 140.381C467.415 140.26 467.165 140.199 466.889 140.199C466.665 140.199 466.443 140.26 466.225 140.381C466.007 140.503 465.827 140.683 465.686 140.92C465.545 141.158 465.475 141.446 465.475 141.787C465.475 142.127 465.545 142.415 465.686 142.653C465.827 142.89 466.007 143.07 466.225 143.192C466.443 143.314 466.665 143.374 466.889 143.374C467.165 143.374 467.415 143.314 467.64 143.192C467.871 143.07 468.054 142.89 468.189 142.653C468.33 142.415 468.4 142.127 468.4 141.787ZM469.856 141.787C469.856 141.337 469.956 140.94 470.155 140.593C470.36 140.247 470.636 139.974 470.982 139.775C471.329 139.576 471.717 139.477 472.147 139.477C472.583 139.477 472.971 139.576 473.311 139.775C473.658 139.974 473.93 140.247 474.129 140.593C474.335 140.94 474.437 141.337 474.437 141.787C474.437 142.229 474.335 142.627 474.129 142.98C473.93 143.326 473.658 143.599 473.311 143.798C472.971 143.997 472.583 144.096 472.147 144.096C471.717 144.096 471.329 143.997 470.982 143.798C470.636 143.599 470.36 143.326 470.155 142.98C469.956 142.627 469.856 142.229 469.856 141.787ZM470.636 141.787C470.636 142.094 470.7 142.367 470.828 142.605C470.963 142.842 471.143 143.031 471.367 143.172C471.598 143.307 471.858 143.374 472.147 143.374C472.436 143.374 472.692 143.307 472.917 143.172C473.148 143.031 473.327 142.842 473.456 142.605C473.59 142.367 473.658 142.094 473.658 141.787C473.658 141.479 473.59 141.206 473.456 140.969C473.327 140.725 473.148 140.535 472.917 140.401C472.692 140.266 472.436 140.199 472.147 140.199C471.858 140.199 471.598 140.266 471.367 140.401C471.143 140.535 470.963 140.725 470.828 140.969C470.7 141.206 470.636 141.479 470.636 141.787ZM476.265 139.573V144H475.495V139.573H476.265ZM477.603 140.42C477.5 140.343 477.407 140.288 477.324 140.256C477.24 140.218 477.134 140.199 477.006 140.199C476.813 140.199 476.663 140.247 476.554 140.343C476.445 140.439 476.368 140.571 476.323 140.738C476.284 140.904 476.265 141.094 476.265 141.305H475.918C475.918 140.952 475.979 140.641 476.101 140.372C476.23 140.096 476.393 139.878 476.592 139.717C476.791 139.557 476.993 139.477 477.198 139.477C477.359 139.477 477.506 139.499 477.641 139.544C477.782 139.583 477.911 139.663 478.026 139.785L477.603 140.42ZM478.12 139.573H480.334V140.295H478.12V139.573ZM478.842 138.033H479.612V144H478.842V138.033ZM481.876 142.268C481.876 142.621 481.956 142.893 482.116 143.086C482.277 143.278 482.511 143.374 482.819 143.374C483.043 143.374 483.239 143.33 483.406 143.24C483.579 143.143 483.711 143.012 483.8 142.845C483.897 142.678 483.945 142.486 483.945 142.268V139.573H484.715V144H483.945V143.307C483.797 143.57 483.614 143.769 483.396 143.904C483.178 144.032 482.921 144.096 482.626 144.096C482.164 144.096 481.795 143.939 481.52 143.625C481.244 143.31 481.106 142.89 481.106 142.364V139.573H481.876V142.268ZM489.001 141.305C489.001 140.94 488.921 140.664 488.76 140.478C488.6 140.292 488.366 140.199 488.058 140.199C487.833 140.199 487.634 140.247 487.461 140.343C487.294 140.433 487.163 140.561 487.067 140.728C486.977 140.895 486.932 141.087 486.932 141.305V144H486.162V139.573H486.932V140.266C487.079 139.997 487.262 139.798 487.48 139.669C487.705 139.541 487.962 139.477 488.25 139.477C488.719 139.477 489.088 139.634 489.357 139.948C489.633 140.256 489.771 140.677 489.771 141.209V144H489.001V141.305ZM491.218 137.745C491.218 137.597 491.27 137.472 491.372 137.369C491.481 137.267 491.606 137.215 491.747 137.215C491.895 137.215 492.02 137.267 492.123 137.369C492.225 137.472 492.277 137.597 492.277 137.745C492.277 137.886 492.225 138.011 492.123 138.12C492.02 138.223 491.895 138.274 491.747 138.274C491.606 138.274 491.481 138.223 491.372 138.12C491.27 138.011 491.218 137.886 491.218 137.745ZM491.363 139.573H492.132V144H491.363V139.573ZM493.044 139.573H495.258V140.295H493.044V139.573ZM493.766 138.033H494.536V144H493.766V138.033ZM496.03 137.745C496.03 137.597 496.081 137.472 496.184 137.369C496.293 137.267 496.418 137.215 496.559 137.215C496.707 137.215 496.832 137.267 496.935 137.369C497.037 137.472 497.089 137.597 497.089 137.745C497.089 137.886 497.037 138.011 496.935 138.12C496.832 138.223 496.707 138.274 496.559 138.274C496.418 138.274 496.293 138.223 496.184 138.12C496.081 138.011 496.03 137.886 496.03 137.745ZM496.174 139.573H496.944V144H496.174V139.573ZM500.243 144.096C499.832 144.096 499.467 144 499.146 143.808C498.832 143.609 498.585 143.336 498.405 142.99C498.232 142.643 498.145 142.242 498.145 141.787C498.145 141.325 498.235 140.92 498.415 140.574C498.601 140.227 498.857 139.958 499.184 139.766C499.518 139.573 499.903 139.477 500.339 139.477C500.776 139.477 501.148 139.57 501.456 139.756C501.77 139.936 502.011 140.195 502.177 140.535C502.344 140.875 502.428 141.28 502.428 141.748C502.428 141.793 502.424 141.841 502.418 141.892C502.418 141.937 502.418 141.966 502.418 141.979H498.636V141.325H501.812L501.504 141.767C501.523 141.735 501.542 141.687 501.561 141.623C501.581 141.552 501.59 141.495 501.59 141.45C501.59 141.187 501.536 140.959 501.427 140.766C501.324 140.574 501.18 140.423 500.994 140.314C500.808 140.205 500.589 140.15 500.339 140.15C500.044 140.15 499.791 140.215 499.579 140.343C499.374 140.465 499.213 140.645 499.098 140.882C498.989 141.113 498.931 141.398 498.925 141.738C498.925 142.085 498.979 142.38 499.088 142.624C499.197 142.868 499.358 143.054 499.569 143.182C499.781 143.31 500.038 143.374 500.339 143.374C500.641 143.374 500.907 143.31 501.138 143.182C501.369 143.047 501.565 142.845 501.725 142.576L502.351 142.97C502.12 143.342 501.828 143.625 501.475 143.817C501.128 144.003 500.718 144.096 500.243 144.096ZM503.666 142.643C503.756 142.778 503.858 142.903 503.974 143.018C504.089 143.134 504.221 143.227 504.368 143.297C504.522 143.362 504.689 143.394 504.869 143.394C505.087 143.394 505.257 143.346 505.379 143.249C505.507 143.147 505.571 143.009 505.571 142.836C505.571 142.682 505.52 142.553 505.417 142.451C505.321 142.342 505.196 142.252 505.042 142.181C504.888 142.104 504.724 142.034 504.551 141.969C504.359 141.892 504.163 141.803 503.964 141.7C503.772 141.591 503.608 141.453 503.473 141.286C503.345 141.113 503.281 140.898 503.281 140.641C503.281 140.378 503.348 140.16 503.483 139.987C503.624 139.814 503.804 139.685 504.022 139.602C504.246 139.519 504.477 139.477 504.715 139.477C504.952 139.477 505.173 139.515 505.379 139.592C505.59 139.669 505.777 139.772 505.937 139.9C506.097 140.029 506.222 140.176 506.312 140.343L505.696 140.738C505.574 140.571 505.42 140.433 505.234 140.324C505.055 140.215 504.849 140.16 504.618 140.16C504.458 140.16 504.32 140.195 504.205 140.266C504.089 140.337 504.031 140.446 504.031 140.593C504.031 140.709 504.076 140.811 504.166 140.901C504.256 140.991 504.371 141.071 504.513 141.142C504.654 141.212 504.801 141.28 504.955 141.344C505.212 141.446 505.446 141.559 505.658 141.681C505.87 141.796 506.036 141.937 506.158 142.104C506.287 142.271 506.351 142.486 506.351 142.749C506.351 143.134 506.21 143.455 505.927 143.711C505.651 143.968 505.286 144.096 504.83 144.096C504.535 144.096 504.269 144.045 504.031 143.942C503.794 143.833 503.592 143.695 503.425 143.528C503.265 143.362 503.143 143.192 503.059 143.018L503.666 142.643Z" fill="#D9D9D9"/>
<path d="M18.8658 132.503V131.733H22.263V132.503H18.8658ZM18.8658 126.536V125.767H22.263V126.536H18.8658ZM18.8658 129.231V128.461H22.0705V129.231H18.8658ZM18.4135 125.767H19.2315V132.503H18.4135V125.767ZM26.4955 129.809C26.4955 129.443 26.4153 129.167 26.255 128.981C26.0946 128.795 25.8604 128.702 25.5524 128.702C25.3279 128.702 25.129 128.75 24.9557 128.846C24.7889 128.936 24.6574 129.064 24.5612 129.231C24.4713 129.398 24.4264 129.59 24.4264 129.809V132.503H23.6565V128.076H24.4264V128.769C24.574 128.5 24.7569 128.301 24.975 128.172C25.1995 128.044 25.4562 127.98 25.7449 127.98C26.2132 127.98 26.5822 128.137 26.8516 128.452C27.1275 128.76 27.2654 129.18 27.2654 129.712V132.503H26.4955V129.809ZM32.033 124.997H32.8029V132.503H32.033V124.997ZM28.3278 130.29C28.3278 129.809 28.4273 129.398 28.6262 129.058C28.825 128.711 29.0913 128.445 29.4249 128.259C29.7586 128.073 30.1243 127.98 30.522 127.98C30.8942 127.98 31.2182 128.073 31.494 128.259C31.7699 128.445 31.9848 128.711 32.1388 129.058C32.2992 129.398 32.3794 129.809 32.3794 130.29C32.3794 130.764 32.2992 131.175 32.1388 131.522C31.9848 131.868 31.7699 132.134 31.494 132.32C31.2182 132.506 30.8942 132.599 30.522 132.599C30.1243 132.599 29.7586 132.506 29.4249 132.32C29.0913 132.134 28.825 131.868 28.6262 131.522C28.4273 131.175 28.3278 130.764 28.3278 130.29ZM29.1073 130.29C29.1073 130.63 29.1747 130.918 29.3094 131.156C29.4506 131.393 29.6366 131.573 29.8676 131.695C30.0986 131.817 30.3488 131.878 30.6183 131.878C30.8428 131.878 31.0642 131.817 31.2823 131.695C31.5005 131.573 31.6801 131.393 31.8212 131.156C31.9624 130.918 32.033 130.63 32.033 130.29C32.033 129.95 31.9624 129.661 31.8212 129.424C31.6801 129.186 31.5005 129.007 31.2823 128.885C31.0642 128.763 30.8428 128.702 30.6183 128.702C30.3488 128.702 30.0986 128.763 29.8676 128.885C29.6366 129.007 29.4506 129.186 29.3094 129.424C29.1747 129.661 29.1073 129.95 29.1073 130.29ZM33.5277 130.578V129.857H35.4524V130.578H33.5277ZM35.5483 128.076H37.7617V128.798H35.5483V128.076ZM36.2701 126.536H37.04V132.503H36.2701V126.536ZM38.1489 130.29C38.1489 129.841 38.2484 129.443 38.4473 129.096C38.6526 128.75 38.9285 128.477 39.2749 128.278C39.6214 128.079 40.0095 127.98 40.4394 127.98C40.8757 127.98 41.2638 128.079 41.6039 128.278C41.9503 128.477 42.223 128.75 42.4219 129.096C42.6272 129.443 42.7299 129.841 42.7299 130.29C42.7299 130.732 42.6272 131.13 42.4219 131.483C42.223 131.83 41.9503 132.102 41.6039 132.301C41.2638 132.5 40.8757 132.599 40.4394 132.599C40.0095 132.599 39.6214 132.5 39.2749 132.301C38.9285 132.102 38.6526 131.83 38.4473 131.483C38.2484 131.13 38.1489 130.732 38.1489 130.29ZM38.9285 130.29C38.9285 130.598 38.9926 130.87 39.1209 131.108C39.2557 131.345 39.4353 131.534 39.6599 131.676C39.8908 131.81 40.1507 131.878 40.4394 131.878C40.7281 131.878 40.9847 131.81 41.2093 131.676C41.4403 131.534 41.6199 131.345 41.7482 131.108C41.883 130.87 41.9503 130.598 41.9503 130.29C41.9503 129.982 41.883 129.709 41.7482 129.472C41.6199 129.228 41.4403 129.039 41.2093 128.904C40.9847 128.769 40.7281 128.702 40.4394 128.702C40.1507 128.702 39.8908 128.769 39.6599 128.904C39.4353 129.039 39.2557 129.228 39.1209 129.472C38.9926 129.709 38.9285 129.982 38.9285 130.29ZM43.1138 130.578V129.857H45.0386V130.578H43.1138ZM46.3085 132.503V131.733H49.7057V132.503H46.3085ZM46.3085 126.536V125.767H49.7057V126.536H46.3085ZM46.3085 129.231V128.461H49.5133V129.231H46.3085ZM45.8562 125.767H46.6742V132.503H45.8562V125.767ZM53.9383 129.809C53.9383 129.443 53.8581 129.167 53.6977 128.981C53.5373 128.795 53.3031 128.702 52.9952 128.702C52.7706 128.702 52.5717 128.75 52.3985 128.846C52.2317 128.936 52.1002 129.064 52.0039 129.231C51.9141 129.398 51.8692 129.59 51.8692 129.809V132.503H51.0993V128.076H51.8692V128.769C52.0168 128.5 52.1996 128.301 52.4177 128.172C52.6423 128.044 52.8989 127.98 53.1876 127.98C53.656 127.98 54.0249 128.137 54.2944 128.452C54.5703 128.76 54.7082 129.18 54.7082 129.712V132.503H53.9383V129.809ZM59.4757 124.997H60.2456V132.503H59.4757V124.997ZM55.7706 130.29C55.7706 129.809 55.87 129.398 56.0689 129.058C56.2678 128.711 56.5341 128.445 56.8677 128.259C57.2013 128.073 57.567 127.98 57.9648 127.98C58.3369 127.98 58.6609 128.073 58.9368 128.259C59.2127 128.445 59.4276 128.711 59.5816 129.058C59.742 129.398 59.8222 129.809 59.8222 130.29C59.8222 130.764 59.742 131.175 59.5816 131.522C59.4276 131.868 59.2127 132.134 58.9368 132.32C58.6609 132.506 58.3369 132.599 57.9648 132.599C57.567 132.599 57.2013 132.506 56.8677 132.32C56.5341 132.134 56.2678 131.868 56.0689 131.522C55.87 131.175 55.7706 130.764 55.7706 130.29ZM56.5501 130.29C56.5501 130.63 56.6175 130.918 56.7522 131.156C56.8934 131.393 57.0794 131.573 57.3104 131.695C57.5414 131.817 57.7916 131.878 58.061 131.878C58.2856 131.878 58.5069 131.817 58.7251 131.695C58.9432 131.573 59.1229 131.393 59.264 131.156C59.4052 130.918 59.4757 130.63 59.4757 130.29C59.4757 129.95 59.4052 129.661 59.264 129.424C59.1229 129.186 58.9432 129.007 58.7251 128.885C58.5069 128.763 58.2856 128.702 58.061 128.702C57.7916 128.702 57.5414 128.763 57.3104 128.885C57.0794 129.007 56.8934 129.186 56.7522 129.424C56.6175 129.661 56.5501 129.95 56.5501 130.29ZM65.0298 129.231V128.461H69.6492V129.231H65.0298ZM69.1006 125.767H69.9186V132.503H69.1006V125.767ZM64.5774 125.767H65.3955V132.503H64.5774V125.767ZM71.4088 126.248C71.4088 126.1 71.4601 125.975 71.5628 125.872C71.6719 125.77 71.797 125.718 71.9381 125.718C72.0857 125.718 72.2108 125.77 72.3134 125.872C72.4161 125.975 72.4674 126.1 72.4674 126.248C72.4674 126.389 72.4161 126.514 72.3134 126.623C72.2108 126.726 72.0857 126.777 71.9381 126.777C71.797 126.777 71.6719 126.726 71.5628 126.623C71.4601 126.514 71.4088 126.389 71.4088 126.248ZM71.5532 128.076H72.3231V132.503H71.5532V128.076ZM74.6786 128.076V132.503H73.9087V128.076H74.6786ZM76.0163 128.923C75.9137 128.846 75.8207 128.792 75.7373 128.76C75.6538 128.721 75.548 128.702 75.4197 128.702C75.2272 128.702 75.0764 128.75 74.9674 128.846C74.8583 128.942 74.7813 129.074 74.7364 129.241C74.6979 129.408 74.6786 129.597 74.6786 129.809H74.3322C74.3322 129.456 74.3931 129.144 74.515 128.875C74.6434 128.599 74.807 128.381 75.0058 128.221C75.2047 128.06 75.4068 127.98 75.6121 127.98C75.7725 127.98 75.9201 128.002 76.0548 128.047C76.196 128.086 76.3243 128.166 76.4398 128.288L76.0163 128.923ZM77.2075 126.248C77.2075 126.1 77.2588 125.975 77.3615 125.872C77.4706 125.77 77.5957 125.718 77.7368 125.718C77.8844 125.718 78.0095 125.77 78.1121 125.872C78.2148 125.975 78.2661 126.1 78.2661 126.248C78.2661 126.389 78.2148 126.514 78.1121 126.623C78.0095 126.726 77.8844 126.777 77.7368 126.777C77.5957 126.777 77.4706 126.726 77.3615 126.623C77.2588 126.514 77.2075 126.389 77.2075 126.248ZM77.3519 128.076H78.1218V132.503H77.3519V128.076ZM82.5464 129.809C82.5464 129.443 82.4662 129.167 82.3058 128.981C82.1455 128.795 81.9113 128.702 81.6033 128.702C81.3788 128.702 81.1799 128.75 81.0066 128.846C80.8398 128.936 80.7083 129.064 80.6121 129.231C80.5222 129.398 80.4773 129.59 80.4773 129.809V132.503H79.7074V128.076H80.4773V128.769C80.6249 128.5 80.8077 128.301 81.0259 128.172C81.2504 128.044 81.5071 127.98 81.7958 127.98C82.2641 127.98 82.6331 128.137 82.9025 128.452C83.1784 128.76 83.3163 129.18 83.3163 129.712V132.503H82.5464V129.809ZM84.4653 132.792H85.2448C85.2448 133.004 85.3026 133.199 85.4181 133.379C85.5336 133.565 85.6972 133.713 85.9089 133.822C86.1206 133.937 86.3708 133.995 86.6595 133.995C86.8841 133.995 87.1054 133.94 87.3236 133.831C87.5417 133.722 87.7214 133.549 87.8625 133.312C88.0101 133.081 88.0839 132.779 88.0839 132.407V128.076H88.8538V132.407C88.8538 132.914 88.7479 133.337 88.5362 133.677C88.3245 134.024 88.0518 134.284 87.7182 134.457C87.3845 134.63 87.0317 134.717 86.6595 134.717C86.2297 134.717 85.8479 134.636 85.5143 134.476C85.1871 134.316 84.9305 134.088 84.7444 133.793C84.5584 133.504 84.4653 133.17 84.4653 132.792ZM84.3787 130.29C84.3787 129.809 84.4782 129.398 84.677 129.058C84.8759 128.711 85.1422 128.445 85.4758 128.259C85.8094 128.073 86.1751 127.98 86.5729 127.98C86.945 127.98 87.269 128.073 87.5449 128.259C87.8208 128.445 88.0357 128.711 88.1897 129.058C88.3501 129.398 88.4303 129.809 88.4303 130.29C88.4303 130.764 88.3501 131.175 88.1897 131.522C88.0357 131.868 87.8208 132.134 87.5449 132.32C87.269 132.506 86.945 132.599 86.5729 132.599C86.1751 132.599 85.8094 132.506 85.4758 132.32C85.1422 132.134 84.8759 131.868 84.677 131.522C84.4782 131.175 84.3787 130.764 84.3787 130.29ZM85.1582 130.29C85.1582 130.63 85.2256 130.918 85.3603 131.156C85.5015 131.393 85.6875 131.573 85.9185 131.695C86.1495 131.817 86.3997 131.878 86.6692 131.878C86.8937 131.878 87.1151 131.817 87.3332 131.695C87.5513 131.573 87.731 131.393 87.8721 131.156C88.0133 130.918 88.0839 130.63 88.0839 130.29C88.0839 130.033 88.0422 129.809 87.9587 129.616C87.8753 129.417 87.7631 129.25 87.6219 129.116C87.4872 128.981 87.3364 128.878 87.1696 128.808C87.0028 128.737 86.836 128.702 86.6692 128.702C86.3997 128.702 86.1495 128.763 85.9185 128.885C85.6875 129.007 85.5015 129.186 85.3603 129.424C85.2256 129.661 85.1582 129.95 85.1582 130.29ZM19.0583 142.482L19.347 141.712H22.3303L22.619 142.482H19.0583ZM20.8194 139.287L19.6838 141.963L19.6068 142.136L18.6059 144.503H17.6917L20.8194 137.43L23.9471 144.503H23.0329L22.0512 142.193L21.9743 142.001L20.8194 139.287ZM25.3005 142.771C25.3005 143.124 25.3807 143.396 25.5411 143.589C25.7015 143.781 25.9356 143.878 26.2436 143.878C26.4682 143.878 26.6638 143.833 26.8306 143.743C27.0039 143.647 27.1354 143.515 27.2252 143.348C27.3215 143.182 27.3696 142.989 27.3696 142.771V140.076H28.1395V144.503H27.3696V143.81C27.222 144.073 27.0392 144.272 26.821 144.407C26.6029 144.535 26.3463 144.599 26.0511 144.599C25.5892 144.599 25.2203 144.442 24.9444 144.128C24.6685 143.813 24.5306 143.393 24.5306 142.867V140.076H25.3005V142.771ZM28.9131 140.076H31.1266V140.798H28.9131V140.076ZM29.6349 138.536H30.4048V144.503H29.6349V138.536ZM31.5138 142.29C31.5138 141.841 31.6133 141.443 31.8121 141.096C32.0175 140.75 32.2933 140.477 32.6398 140.278C32.9862 140.079 33.3744 139.98 33.8043 139.98C34.2405 139.98 34.6287 140.079 34.9687 140.278C35.3152 140.477 35.5879 140.75 35.7868 141.096C35.9921 141.443 36.0947 141.841 36.0947 142.29C36.0947 142.732 35.9921 143.13 35.7868 143.483C35.5879 143.83 35.3152 144.102 34.9687 144.301C34.6287 144.5 34.2405 144.599 33.8043 144.599C33.3744 144.599 32.9862 144.5 32.6398 144.301C32.2933 144.102 32.0175 143.83 31.8121 143.483C31.6133 143.13 31.5138 142.732 31.5138 142.29ZM32.2933 142.29C32.2933 142.598 32.3575 142.87 32.4858 143.108C32.6205 143.345 32.8002 143.534 33.0247 143.676C33.2557 143.81 33.5156 143.878 33.8043 143.878C34.093 143.878 34.3496 143.81 34.5742 143.676C34.8051 143.534 34.9848 143.345 35.1131 143.108C35.2478 142.87 35.3152 142.598 35.3152 142.29C35.3152 141.982 35.2478 141.709 35.1131 141.472C34.9848 141.228 34.8051 141.039 34.5742 140.904C34.3496 140.769 34.093 140.702 33.8043 140.702C33.5156 140.702 33.2557 140.769 33.0247 140.904C32.8002 141.039 32.6205 141.228 32.4858 141.472C32.3575 141.709 32.2933 141.982 32.2933 142.29ZM43.2153 141.712V144.503H42.4454V141.809C42.4454 141.43 42.3749 141.151 42.2337 140.971C42.099 140.792 41.8872 140.702 41.5985 140.702C41.3868 140.702 41.204 140.747 41.05 140.837C40.896 140.92 40.7773 141.045 40.6939 141.212C40.6105 141.379 40.5688 141.578 40.5688 141.809V144.503H39.7989V141.809C39.7989 141.43 39.7283 141.151 39.5872 140.971C39.4524 140.792 39.2407 140.702 38.952 140.702C38.7403 140.702 38.5574 140.747 38.4034 140.837C38.2495 140.92 38.1308 141.045 38.0474 141.212C37.964 141.379 37.9223 141.578 37.9223 141.809V144.503H37.1524V140.076H37.9223V140.721C38.057 140.471 38.2238 140.285 38.4227 140.163C38.628 140.041 38.8686 139.98 39.1445 139.98C39.4524 139.98 39.7155 140.054 39.9336 140.201C40.1582 140.343 40.3218 140.545 40.4244 140.808C40.5784 140.532 40.7709 140.326 41.0019 140.192C41.2328 140.051 41.4959 139.98 41.791 139.98C42.0926 139.98 42.3492 140.047 42.5609 140.182C42.7726 140.317 42.933 140.516 43.0421 140.779C43.1576 141.035 43.2153 141.347 43.2153 141.712ZM45.008 143.137C45.008 143.303 45.0465 143.448 45.1235 143.57C45.2069 143.692 45.3191 143.785 45.4603 143.849C45.6079 143.907 45.7747 143.935 45.9607 143.935C46.1981 143.935 46.4098 143.887 46.5959 143.791C46.7884 143.695 46.9391 143.56 47.0482 143.387C47.1637 143.207 47.2214 143.002 47.2214 142.771L47.3754 143.348C47.3754 143.631 47.2888 143.865 47.1156 144.051C46.9488 144.237 46.7403 144.375 46.49 144.465C46.2462 144.555 46.0024 144.599 45.7586 144.599C45.4892 144.599 45.2357 144.545 44.9984 144.436C44.7674 144.32 44.5813 144.157 44.4402 143.945C44.299 143.733 44.2285 143.477 44.2285 143.175C44.2285 142.745 44.3792 142.402 44.6808 142.145C44.9887 141.882 45.4154 141.751 45.9607 141.751C46.2815 141.751 46.5478 141.789 46.7595 141.866C46.9776 141.937 47.1509 142.02 47.2792 142.116C47.4075 142.206 47.4941 142.28 47.539 142.338V142.79C47.3145 142.636 47.0835 142.527 46.8461 142.463C46.6087 142.392 46.3553 142.357 46.0858 142.357C45.8356 142.357 45.6303 142.389 45.4699 142.453C45.3159 142.517 45.2005 142.607 45.1235 142.723C45.0465 142.838 45.008 142.976 45.008 143.137ZM44.8925 141.096L44.5172 140.529C44.684 140.407 44.9117 140.285 45.2005 140.163C45.4956 140.041 45.8485 139.98 46.2591 139.98C46.6055 139.98 46.9071 140.035 47.1637 140.144C47.4268 140.246 47.6289 140.397 47.77 140.596C47.9176 140.795 47.9913 141.039 47.9913 141.327V144.503H47.2214V141.433C47.2214 141.279 47.1958 141.154 47.1445 141.058C47.0931 140.955 47.0193 140.875 46.9231 140.817C46.8333 140.76 46.7274 140.718 46.6055 140.692C46.4836 140.667 46.3553 140.654 46.2206 140.654C46.0024 140.654 45.8035 140.679 45.6239 140.731C45.4507 140.782 45.3031 140.843 45.1812 140.914C45.0593 140.984 44.9631 141.045 44.8925 141.096ZM48.6212 140.076H50.8346V140.798H48.6212V140.076ZM49.343 138.536H50.1129V144.503H49.343V138.536ZM51.6068 138.248C51.6068 138.1 51.6581 137.975 51.7608 137.872C51.8698 137.77 51.995 137.718 52.1361 137.718C52.2837 137.718 52.4088 137.77 52.5114 137.872C52.6141 137.975 52.6654 138.1 52.6654 138.248C52.6654 138.389 52.6141 138.514 52.5114 138.623C52.4088 138.726 52.2837 138.777 52.1361 138.777C51.995 138.777 51.8698 138.726 51.7608 138.623C51.6581 138.514 51.6068 138.389 51.6068 138.248ZM51.7512 140.076H52.5211V144.503H51.7512V140.076ZM53.7218 142.29C53.7218 141.841 53.8212 141.443 54.0201 141.096C54.2254 140.75 54.5013 140.477 54.8477 140.278C55.1942 140.079 55.5824 139.98 56.0122 139.98C56.4485 139.98 56.8367 140.079 57.1767 140.278C57.5232 140.477 57.7958 140.75 57.9947 141.096C58.2 141.443 58.3027 141.841 58.3027 142.29C58.3027 142.732 58.2 143.13 57.9947 143.483C57.7958 143.83 57.5232 144.102 57.1767 144.301C56.8367 144.5 56.4485 144.599 56.0122 144.599C55.5824 144.599 55.1942 144.5 54.8477 144.301C54.5013 144.102 54.2254 143.83 54.0201 143.483C53.8212 143.13 53.7218 142.732 53.7218 142.29ZM54.5013 142.29C54.5013 142.598 54.5655 142.87 54.6938 143.108C54.8285 143.345 55.0081 143.534 55.2327 143.676C55.4637 143.81 55.7235 143.878 56.0122 143.878C56.3009 143.878 56.5576 143.81 56.7821 143.676C57.0131 143.534 57.1927 143.345 57.3211 143.108C57.4558 142.87 57.5232 142.598 57.5232 142.29C57.5232 141.982 57.4558 141.709 57.3211 141.472C57.1927 141.228 57.0131 141.039 56.7821 140.904C56.5576 140.769 56.3009 140.702 56.0122 140.702C55.7235 140.702 55.4637 140.769 55.2327 140.904C55.0081 141.039 54.8285 141.228 54.6938 141.472C54.5655 141.709 54.5013 141.982 54.5013 142.29ZM62.1993 141.809C62.1993 141.443 62.1191 141.167 61.9587 140.981C61.7983 140.795 61.5642 140.702 61.2562 140.702C61.0316 140.702 60.8328 140.75 60.6595 140.846C60.4927 140.936 60.3612 141.064 60.265 141.231C60.1751 141.398 60.1302 141.59 60.1302 141.809V144.503H59.3603V140.076H60.1302V140.769C60.2778 140.5 60.4606 140.301 60.6788 140.172C60.9033 140.044 61.16 139.98 61.4487 139.98C61.917 139.98 62.2859 140.137 62.5554 140.452C62.8313 140.76 62.9692 141.18 62.9692 141.712V144.503H62.1993V141.809Z" fill="#D9D9D9"/>
</svg>
