<svg width="41" height="41" viewBox="0 0 41 41" fill="none" xmlns="http://www.w3.org/2000/svg">
<g filter="url(#filter0_i_3965_295)">
<rect x="0.5" y="0.5" width="40" height="40" rx="20" fill="white"/>
<path d="M27.7376 12.6549H23.2258L23.2024 12.4875C23.1397 11.7859 22.8499 11.1959 22.3329 10.7175C21.8159 10.2392 21.205 10 20.5 10C19.795 10 19.1841 10.2392 18.6671 10.7175C18.1501 11.1959 17.8603 11.7859 17.7977 12.4875L17.7742 12.6549H13.2624C12.7768 12.6549 12.3616 12.8303 12.017 13.1811C11.6723 13.5319 11.5 13.9544 11.5 14.4487V29.1822C11.5 29.6765 11.6723 30.1031 12.017 30.4618C12.3616 30.8206 12.7768 31 13.2624 31H27.7376C28.2232 31 28.6384 30.8206 28.983 30.4618C29.3277 30.1031 29.5 29.6765 29.5 29.1822V14.4727C29.5 13.9624 29.3277 13.5319 28.983 13.1811C28.6384 12.8303 28.2232 12.6549 27.7376 12.6549ZM20.5 11.6743C20.782 11.6743 21.0248 11.7779 21.2285 11.9852C21.4321 12.1925 21.5339 12.4436 21.5339 12.7386C21.5339 13.0336 21.4321 13.2847 21.2285 13.492C21.0248 13.6993 20.782 13.803 20.5 13.803C20.218 13.803 19.9752 13.6993 19.7715 13.492C19.5679 13.2847 19.4661 13.0336 19.4661 12.7386C19.4661 12.4436 19.5679 12.1925 19.7715 11.9852C19.9752 11.7779 20.218 11.6743 20.5 11.6743ZM21.2285 26.2882H15.7298C15.6044 26.2882 15.4948 26.2443 15.4008 26.1566C15.3068 26.0689 15.2598 25.9613 15.2598 25.8337V24.6856C15.2598 24.5581 15.3068 24.4505 15.4008 24.3628C15.4948 24.2751 15.6044 24.2312 15.7298 24.2312H21.2285C21.3538 24.2312 21.4634 24.2751 21.5574 24.3628C21.6514 24.4505 21.6984 24.5581 21.6984 24.6856V25.8337C21.6984 25.9613 21.6514 26.0689 21.5574 26.1566C21.4634 26.2443 21.3538 26.2882 21.2285 26.2882ZM25.2702 22.7005H15.7298C15.6044 22.7005 15.4948 22.6566 15.4008 22.5689C15.3068 22.4812 15.2598 22.3736 15.2598 22.246V21.0979C15.2598 20.9704 15.3068 20.8588 15.4008 20.7631C15.4948 20.6674 15.6044 20.6196 15.7298 20.6196H25.2702C25.3956 20.6196 25.5052 20.6674 25.5992 20.7631C25.6932 20.8588 25.7402 20.9704 25.7402 21.0979V22.246C25.7402 22.3736 25.6932 22.4812 25.5992 22.5689C25.5052 22.6566 25.3956 22.7005 25.2702 22.7005ZM25.2702 19.1128H15.7298C15.6044 19.1128 15.4948 19.0689 15.4008 18.9812C15.3068 18.8935 15.2598 18.7779 15.2598 18.6344V17.5103C15.2598 17.3827 15.3068 17.2711 15.4008 17.1754C15.4948 17.0797 15.6044 17.0319 15.7298 17.0319H25.2702C25.3956 17.0319 25.5052 17.0797 25.5992 17.1754C25.6932 17.2711 25.7402 17.3827 25.7402 17.5103V18.6344C25.7402 18.7779 25.6932 18.8935 25.5992 18.9812C25.5052 19.0689 25.3956 19.1128 25.2702 19.1128Z" fill="black"/>
</g>
<defs>
<filter id="filter0_i_3965_295" x="0.5" y="0.5" width="40" height="44" filterUnits="userSpaceOnUse" color-interpolation-filters="sRGB">
<feFlood flood-opacity="0" result="BackgroundImageFix"/>
<feBlend mode="normal" in="SourceGraphic" in2="BackgroundImageFix" result="shape"/>
<feColorMatrix in="SourceAlpha" type="matrix" values="0 0 0 0 0 0 0 0 0 0 0 0 0 0 0 0 0 0 127 0" result="hardAlpha"/>
<feOffset dy="4"/>
<feGaussianBlur stdDeviation="2"/>
<feComposite in2="hardAlpha" operator="arithmetic" k2="-1" k3="1"/>
<feColorMatrix type="matrix" values="0 0 0 0 0 0 0 0 0 0 0 0 0 0 0 0 0 0 0.25 0"/>
<feBlend mode="normal" in2="shape" result="effect1_innerShadow_3965_295"/>
</filter>
</defs>
</svg>
