<svg width="40" height="41" viewBox="0 0 40 41" fill="none" xmlns="http://www.w3.org/2000/svg">
<g filter="url(#filter0_i_3965_679)">
<rect y="0.5" width="40" height="40" rx="20" fill="white"/>
<path d="M27.5 15H23.75V13.5C23.75 12.675 23.075 12 22.25 12H17.75C16.925 12 16.25 12.675 16.25 13.5V15H12.5C11.675 15 11 15.675 11 16.5V28.5C11 29.325 11.675 30 12.5 30H27.5C28.325 30 29 29.325 29 28.5V16.5C29 15.675 28.325 15 27.5 15ZM17.75 13.5H22.25V15H17.75V13.5ZM20.75 16.5V21H19.25V16.5H20.75ZM27.5 28.5H12.5V26.25H27.5V28.5ZM27.5 24.75H12.5V16.5H17.75V21C17.75 21.825 18.425 22.5 19.25 22.5H20.75C21.575 22.5 22.25 21.825 22.25 21V16.5H27.5V24.75Z" fill="#0B1719"/>
</g>
<defs>
<filter id="filter0_i_3965_679" x="0" y="0.5" width="40" height="44" filterUnits="userSpaceOnUse" color-interpolation-filters="sRGB">
<feFlood flood-opacity="0" result="BackgroundImageFix"/>
<feBlend mode="normal" in="SourceGraphic" in2="BackgroundImageFix" result="shape"/>
<feColorMatrix in="SourceAlpha" type="matrix" values="0 0 0 0 0 0 0 0 0 0 0 0 0 0 0 0 0 0 127 0" result="hardAlpha"/>
<feOffset dy="4"/>
<feGaussianBlur stdDeviation="2"/>
<feComposite in2="hardAlpha" operator="arithmetic" k2="-1" k3="1"/>
<feColorMatrix type="matrix" values="0 0 0 0 0 0 0 0 0 0 0 0 0 0 0 0 0 0 0.25 0"/>
<feBlend mode="normal" in2="shape" result="effect1_innerShadow_3965_679"/>
</filter>
</defs>
</svg>
