<svg width="40" height="41" viewBox="0 0 40 41" fill="none" xmlns="http://www.w3.org/2000/svg">
<g filter="url(#filter0_i_3965_571)">
<rect y="0.5" width="40" height="40" rx="20" fill="white"/>
<path d="M11.4497 12H28.5503C28.7987 12 29 12.2663 29 12.5949V29.4051C29 29.7337 28.7987 30 28.5503 30H11.4497C11.2013 30 11 29.7337 11 29.4051V12.5949C11 12.2663 11.2013 12 11.4497 12ZM14.6317 20.3051C14.6317 21.0879 13.7321 21.0879 13.7321 20.3051C13.7321 19.3688 14.0615 18.488 14.6184 17.9154C14.5833 17.8499 14.5506 17.7822 14.5208 17.7125C14.3803 17.3825 14.3003 17.0026 14.3003 16.5991C14.3003 15.3434 15.0698 14.3255 16.0191 14.3255C16.9681 14.3255 17.7379 15.3434 17.7379 16.5991C17.7379 17.0715 17.627 17.5312 17.4195 17.9154C17.9766 18.488 18.3061 19.3688 18.3061 20.3051C18.3061 21.0879 17.4065 21.0879 17.4065 20.3051C17.4065 19.6296 17.1322 19.0169 16.6845 18.6935C16.4755 18.8105 16.2459 18.8728 16.0191 18.8728C15.7923 18.8728 15.5624 18.8105 15.3535 18.6935C14.906 19.0169 14.6317 19.6296 14.6317 20.3051ZM13.4303 22.9563H18.6076C18.856 22.9563 19.0575 23.2229 19.0575 23.5515V27.0794C19.0575 27.4079 18.856 27.6745 18.6076 27.6745H13.4303C13.182 27.6745 12.9807 27.4079 12.9807 27.0794V23.5515C12.9807 23.2229 13.182 22.9563 13.4303 22.9563ZM18.1579 24.1463H13.8802V26.4845H18.1579V24.1463ZM16.0191 15.5155C15.5666 15.5155 15.1999 16.0005 15.1999 16.5991C15.1999 17.207 15.5681 17.6828 16.0191 17.6828C16.4705 17.6828 16.8383 17.2018 16.8383 16.5991C16.8383 16.0005 16.4714 15.5155 16.0191 15.5155ZM20.0196 16.3547C19.4281 16.3547 19.4281 15.1648 20.0196 15.1648H26.5697C27.1612 15.1648 27.1612 16.3547 26.5697 16.3547H20.0196ZM21.0395 26.8352C20.4477 26.8352 20.4477 25.645 21.0395 25.645H26.5697C27.1612 25.645 27.1612 26.8352 26.5697 26.8352H21.0395ZM20.0196 18.9748C19.4281 18.9748 19.4281 17.7848 20.0196 17.7848H26.5697C27.1612 17.7848 27.1612 18.9748 26.5697 18.9748H20.0196ZM21.0395 21.5949C20.4477 21.5949 20.4477 20.4049 21.0395 20.4049H26.5697C27.1612 20.4049 27.1612 21.5949 26.5697 21.5949H21.0395ZM21.0395 24.2152C20.4477 24.2152 20.4477 23.0249 21.0395 23.0249H26.5697C27.1612 23.0249 27.1612 24.2152 26.5697 24.2152H21.0395ZM28.1004 13.19H11.8996V28.81H28.1004V13.19Z" fill="black"/>
</g>
<defs>
<filter id="filter0_i_3965_571" x="0" y="0.5" width="40" height="44" filterUnits="userSpaceOnUse" color-interpolation-filters="sRGB">
<feFlood flood-opacity="0" result="BackgroundImageFix"/>
<feBlend mode="normal" in="SourceGraphic" in2="BackgroundImageFix" result="shape"/>
<feColorMatrix in="SourceAlpha" type="matrix" values="0 0 0 0 0 0 0 0 0 0 0 0 0 0 0 0 0 0 127 0" result="hardAlpha"/>
<feOffset dy="4"/>
<feGaussianBlur stdDeviation="2"/>
<feComposite in2="hardAlpha" operator="arithmetic" k2="-1" k3="1"/>
<feColorMatrix type="matrix" values="0 0 0 0 0 0 0 0 0 0 0 0 0 0 0 0 0 0 0.25 0"/>
<feBlend mode="normal" in2="shape" result="effect1_innerShadow_3965_571"/>
</filter>
</defs>
</svg>
