<svg width="40" height="41" viewBox="0 0 40 41" fill="none" xmlns="http://www.w3.org/2000/svg">
<g filter="url(#filter0_i_3965_8)">
<rect y="0.5" width="40" height="40" rx="20" fill="white"/>
<path d="M17.6755 23.2161L18.1214 22.9754C18.3031 22.8773 18.3654 22.6599 18.2605 22.4899L17.4156 21.1216C17.3452 21.0076 17.2175 20.9438 17.0862 20.9438C17.0217 20.9438 16.9564 20.9591 16.8966 20.9915L16.4507 21.2322C16.3894 21.2652 16.3245 21.2803 16.2612 21.2803C16.0627 21.2803 15.8807 21.1319 15.8807 20.9245V20.443C15.8807 20.2468 15.7105 20.0876 15.5006 20.0876H13.8108C13.601 20.0876 13.4308 20.2467 13.4308 20.443V20.9245C13.4308 21.1319 13.2487 21.2803 13.0502 21.2803C12.987 21.2803 12.922 21.2652 12.8608 21.2322L12.4149 20.9915C12.3551 20.9592 12.2897 20.9439 12.2253 20.9438C12.0939 20.9438 11.9662 21.0076 11.8958 21.1216L11.051 22.4899C10.9461 22.6599 11.0083 22.8773 11.1901 22.9754L11.636 23.2161C11.8893 23.3529 11.8893 23.6948 11.636 23.8316L11.1901 24.0723C11.0083 24.1704 10.9461 24.3878 11.051 24.5578L11.8958 25.9261C11.9662 26.0401 12.094 26.1039 12.2253 26.1039C12.2898 26.1039 12.3551 26.0885 12.4149 26.0562L12.8608 25.8155C12.922 25.7825 12.987 25.7674 13.0502 25.7674C13.2487 25.7674 13.4308 25.9158 13.4308 26.1232V26.6047C13.4308 26.8009 13.6009 26.9601 13.8108 26.9601H15.5006C15.7104 26.9601 15.8806 26.801 15.8806 26.6047V26.1232C15.8806 25.9158 16.0627 25.7674 16.2612 25.7674C16.3244 25.7674 16.3894 25.7825 16.4506 25.8155L16.8965 26.0562C16.9563 26.0885 17.0217 26.1039 17.0861 26.1039C17.2175 26.1039 17.3452 26.0401 17.4155 25.9261L18.2604 24.5578C18.3653 24.3878 18.3031 24.1704 18.1213 24.0723L17.6754 23.8316C17.4222 23.6948 17.4222 23.3528 17.6755 23.2161ZM14.6558 24.5781C14.0331 24.5781 13.5283 24.1061 13.5283 23.5238C13.5283 22.9416 14.0331 22.4696 14.6558 22.4696C15.2784 22.4696 15.7832 22.9416 15.7832 23.5238C15.7832 24.1061 15.2784 24.5781 14.6558 24.5781Z" fill="black"/>
<path d="M17.3823 13.4344C17.1784 13.2439 16.8481 13.2439 16.6442 13.4344C16.4404 13.6251 16.4404 13.934 16.6442 14.1246L17.5768 14.9967C14.1491 15.1554 11.3745 17.6731 11.0742 20.8453L11.1513 20.7204C11.3721 20.3628 11.7836 20.1407 12.2252 20.1408C12.2346 20.1408 12.2438 20.1415 12.2532 20.1418C12.8413 17.8557 14.9729 16.1267 17.5556 15.9765L16.6442 16.8287C16.4404 17.0193 16.4404 17.3283 16.6442 17.5189C16.7462 17.6142 16.8797 17.6618 17.0132 17.6618C17.1468 17.6618 17.2804 17.6142 17.3823 17.5189L19.1972 15.8217C19.2951 15.7302 19.35 15.606 19.35 15.4767C19.35 15.3472 19.2951 15.2231 19.1972 15.1316L17.3823 13.4344Z" fill="black"/>
<path d="M23.9776 15.9306C25.1365 15.9306 26.0793 15.049 26.0793 13.9653C26.0793 12.8816 25.1365 12 23.9776 12C22.8188 12 21.876 12.8816 21.876 13.9653C21.876 15.0489 22.8188 15.9306 23.9776 15.9306Z" fill="black"/>
<path d="M28.0718 21.2281V18.5263C28.0718 17.7785 27.5578 17.1153 26.7978 16.8825L26.7943 16.8814L25.6827 16.7093C25.5881 16.6821 25.487 16.7289 25.4529 16.8162L24.1916 20.0524C24.1188 20.2391 23.8365 20.2391 23.7637 20.0524L22.5024 16.8162C22.4749 16.7457 22.4038 16.7015 22.3276 16.7015C22.3095 16.7015 21.1611 16.8812 21.1611 16.8812C20.3948 17.12 19.8828 17.7842 19.8828 18.5353V21.2281C19.8828 21.6316 20.2327 21.9587 20.6642 21.9587H27.2904C27.722 21.9587 28.0718 21.6316 28.0718 21.2281Z" fill="black"/>
<path d="M29.0006 21.875C28.957 22.4335 28.467 22.7755 27.8697 22.8159C27.412 25.2659 25.1991 27.1576 22.4918 27.315L23.4031 26.4629C23.6069 26.2722 23.6069 25.9632 23.4031 25.7726C23.1992 25.5821 22.8689 25.5821 22.665 25.7726L20.8501 27.4698C20.6463 27.6605 20.6463 27.9694 20.8501 28.16L22.665 29.8571C22.7669 29.9524 22.9005 30 23.034 30C23.1676 30 23.3012 29.9524 23.4031 29.8571C23.6069 29.6665 23.6069 29.3575 23.4031 29.1669L22.4705 28.2949C26.1017 28.1268 29.0006 25.3115 29.0006 21.875Z" fill="black"/>
<path d="M24.4351 16.674C24.3867 16.6247 24.3159 16.5999 24.2442 16.5999H23.7098C23.6382 16.5999 23.5674 16.6247 23.5189 16.674C23.4439 16.7505 23.433 16.8608 23.4863 16.9471L23.7719 17.3497L23.6382 18.4045L23.9015 19.0595C23.9272 19.1254 24.0268 19.1254 24.0525 19.0595L24.3158 18.4045L24.1821 17.3497L24.4677 16.9471C24.521 16.8608 24.5101 16.7505 24.4351 16.674Z" fill="black"/>
</g>
<defs>
<filter id="filter0_i_3965_8" x="0" y="0.5" width="40" height="44" filterUnits="userSpaceOnUse" color-interpolation-filters="sRGB">
<feFlood flood-opacity="0" result="BackgroundImageFix"/>
<feBlend mode="normal" in="SourceGraphic" in2="BackgroundImageFix" result="shape"/>
<feColorMatrix in="SourceAlpha" type="matrix" values="0 0 0 0 0 0 0 0 0 0 0 0 0 0 0 0 0 0 127 0" result="hardAlpha"/>
<feOffset dy="4"/>
<feGaussianBlur stdDeviation="2"/>
<feComposite in2="hardAlpha" operator="arithmetic" k2="-1" k3="1"/>
<feColorMatrix type="matrix" values="0 0 0 0 0 0 0 0 0 0 0 0 0 0 0 0 0 0 0.25 0"/>
<feBlend mode="normal" in2="shape" result="effect1_innerShadow_3965_8"/>
</filter>
</defs>
</svg>
