<svg width="41" height="41" viewBox="0 0 41 41" fill="none" xmlns="http://www.w3.org/2000/svg">
<g filter="url(#filter0_i_3672_20)">
<rect x="0.5" y="0.5" width="40" height="40" rx="20" fill="white"/>
<g clip-path="url(#clip0_3672_20)">
<g clip-path="url(#clip1_3672_20)">
<path fill-rule="evenodd" clip-rule="evenodd" d="M22.8402 12.2169C24.7686 12.7983 26.4133 14.0738 27.4564 15.7969C27.5196 15.9033 27.6033 15.9963 27.7026 16.0702C27.8019 16.1442 27.9148 16.1978 28.0349 16.2279C28.1551 16.2579 28.2799 16.2639 28.4024 16.2455C28.5248 16.227 28.6424 16.1845 28.7483 16.1203C28.8542 16.0562 28.9464 15.9717 29.0195 15.8718C29.0925 15.7718 29.1451 15.6584 29.1741 15.538C29.2031 15.4176 29.208 15.2927 29.1884 15.1704C29.1688 15.0481 29.1253 14.9309 29.0602 14.8256C28.2173 13.4325 27.0471 12.2662 25.6511 11.4282C24.255 10.5902 22.6755 10.1057 21.0497 10.0168C19.4239 9.92802 17.801 10.2375 16.322 10.9185C14.843 11.5994 13.5526 12.6313 12.563 13.9243C11.5734 15.2173 10.9145 16.7324 10.6436 18.3379C10.3726 19.9434 10.4978 21.5909 11.0083 23.137C11.5187 24.6832 12.399 26.0813 13.5727 27.2099C14.7463 28.3385 16.1777 29.1635 17.7427 29.6131C17.8626 29.6528 17.9894 29.6678 18.1153 29.6573C18.2412 29.6467 18.3637 29.6109 18.4753 29.5518C18.587 29.4927 18.6856 29.4117 18.7652 29.3136C18.8448 29.2154 18.9037 29.1022 18.9385 28.9808C18.9732 28.8593 18.983 28.732 18.9673 28.6067C18.9517 28.4813 18.9108 28.3604 18.8472 28.2512C18.7836 28.142 18.6986 28.0468 18.5973 27.9713C18.496 27.8958 18.3805 27.8416 18.2577 27.8119C16.6652 27.3534 15.2509 26.4194 14.2041 25.1348C13.1572 23.8503 12.5278 22.2765 12.4002 20.6244H15.5289C15.6731 22.6549 16.2693 24.6276 17.2739 26.3981C17.3966 26.6135 17.5995 26.7715 17.8384 26.8376C18.0773 26.9037 18.3326 26.8726 18.5485 26.7509C18.7645 26.6293 18.9235 26.4272 18.9908 26.1886C19.0581 25.9501 19.0282 25.6947 18.9077 25.4781C18.0615 23.9882 17.5501 22.3319 17.4089 20.6244H18.3127C18.5613 20.6244 18.7998 20.5256 18.9756 20.3498C19.1514 20.174 19.2502 19.9355 19.2502 19.6869C19.2502 19.4382 19.1514 19.1998 18.9756 19.0239C18.7998 18.8481 18.5613 18.7494 18.3127 18.7494H17.4752C17.7939 16.4044 18.8339 14.1681 20.5002 12.2944C21.3999 13.3003 22.1325 14.444 22.6702 15.6819C22.7162 15.7987 22.7852 15.9051 22.8732 15.9948C22.9611 16.0844 23.0662 16.1555 23.1821 16.2038C23.2981 16.2521 23.4226 16.2765 23.5482 16.2758C23.6737 16.275 23.7979 16.249 23.9133 16.1993C24.0286 16.1497 24.1328 16.0773 24.2197 15.9866C24.3065 15.8959 24.3742 15.7886 24.4188 15.6712C24.4634 15.5538 24.484 15.4286 24.4793 15.3031C24.4746 15.1776 24.4447 15.0543 24.3914 14.9406C23.9758 13.9782 23.4556 13.0643 22.8402 12.2156V12.2169ZM18.1602 12.2169C16.6927 12.6591 15.38 13.507 14.3733 14.6627C13.3666 15.8184 12.7069 17.2351 12.4702 18.7494H15.5877C15.8714 16.387 16.7582 14.1374 18.1627 12.2169H18.1602Z" fill="black"/>
<path d="M19.875 19.6875C19.875 18.9416 20.1713 18.2262 20.6988 17.6988C21.2262 17.1713 21.9416 16.875 22.6875 16.875H27.6875C28.4334 16.875 29.1488 17.1713 29.6762 17.6988C30.2037 18.2262 30.5 18.9416 30.5 19.6875V29.0625C30.5 29.3111 30.4012 29.5496 30.2254 29.7254C30.0496 29.9012 29.8111 30 29.5625 30C29.3139 30 29.0754 29.9012 28.8996 29.7254C28.7238 29.5496 28.625 29.3111 28.625 29.0625V19.6875C28.625 19.4389 28.5262 19.2004 28.3504 19.0246C28.1746 18.8488 27.9361 18.75 27.6875 18.75H22.6875C22.4389 18.75 22.2004 18.8488 22.0246 19.0246C21.8488 19.2004 21.75 19.4389 21.75 19.6875V29.0625C21.75 29.3111 21.6512 29.5496 21.4754 29.7254C21.2996 29.9012 21.0611 30 20.8125 30C20.5639 30 20.3254 29.9012 20.1496 29.7254C19.9738 29.5496 19.875 29.3111 19.875 29.0625V19.6875Z" fill="black"/>
<path d="M23.3125 25C23.0639 25 22.8254 25.0988 22.6496 25.2746C22.4738 25.4504 22.375 25.6889 22.375 25.9375V29.0625C22.375 29.3111 22.4738 29.5496 22.6496 29.7254C22.8254 29.9012 23.0639 30 23.3125 30C23.5611 30 23.7996 29.9012 23.9754 29.7254C24.1512 29.5496 24.25 29.3111 24.25 29.0625V26.875H26.125V29.0625C26.125 29.3111 26.2238 29.5496 26.3996 29.7254C26.5754 29.9012 26.8139 30 27.0625 30C27.3111 30 27.5496 29.9012 27.7254 29.7254C27.9012 29.5496 28 29.3111 28 29.0625V25.9375C28 25.6889 27.9012 25.4504 27.7254 25.2746C27.5496 25.0988 27.3111 25 27.0625 25H23.3125ZM22.6875 20.625C22.6875 20.3764 22.7863 20.1379 22.9621 19.9621C23.1379 19.7863 23.3764 19.6875 23.625 19.6875H23.9375C24.1861 19.6875 24.4246 19.7863 24.6004 19.9621C24.7762 20.1379 24.875 20.3764 24.875 20.625C24.875 20.8736 24.7762 21.1121 24.6004 21.2879C24.4246 21.4637 24.1861 21.5625 23.9375 21.5625H23.625C23.3764 21.5625 23.1379 21.4637 22.9621 21.2879C22.7863 21.1121 22.6875 20.8736 22.6875 20.625ZM26.4375 19.6875C26.1889 19.6875 25.9504 19.7863 25.7746 19.9621C25.5988 20.1379 25.5 20.3764 25.5 20.625C25.5 20.8736 25.5988 21.1121 25.7746 21.2879C25.9504 21.4637 26.1889 21.5625 26.4375 21.5625H26.75C26.9986 21.5625 27.2371 21.4637 27.4129 21.2879C27.5887 21.1121 27.6875 20.8736 27.6875 20.625C27.6875 20.3764 27.5887 20.1379 27.4129 19.9621C27.2371 19.7863 26.9986 19.6875 26.75 19.6875H26.4375ZM22.6875 23.125C22.6875 22.8764 22.7863 22.6379 22.9621 22.4621C23.1379 22.2863 23.3764 22.1875 23.625 22.1875H23.9375C24.1861 22.1875 24.4246 22.2863 24.6004 22.4621C24.7762 22.6379 24.875 22.8764 24.875 23.125C24.875 23.3736 24.7762 23.6121 24.6004 23.7879C24.4246 23.9637 24.1861 24.0625 23.9375 24.0625H23.625C23.3764 24.0625 23.1379 23.9637 22.9621 23.7879C22.7863 23.6121 22.6875 23.3736 22.6875 23.125ZM26.4375 22.1875C26.1889 22.1875 25.9504 22.2863 25.7746 22.4621C25.5988 22.6379 25.5 22.8764 25.5 23.125C25.5 23.3736 25.5988 23.6121 25.7746 23.7879C25.9504 23.9637 26.1889 24.0625 26.4375 24.0625H26.75C26.9986 24.0625 27.2371 23.9637 27.4129 23.7879C27.5887 23.6121 27.6875 23.3736 27.6875 23.125C27.6875 22.8764 27.5887 22.6379 27.4129 22.4621C27.2371 22.2863 26.9986 22.1875 26.75 22.1875H26.4375Z" fill="black"/>
</g>
</g>
</g>
<defs>
<filter id="filter0_i_3672_20" x="0.5" y="0.5" width="40" height="44" filterUnits="userSpaceOnUse" color-interpolation-filters="sRGB">
<feFlood flood-opacity="0" result="BackgroundImageFix"/>
<feBlend mode="normal" in="SourceGraphic" in2="BackgroundImageFix" result="shape"/>
<feColorMatrix in="SourceAlpha" type="matrix" values="0 0 0 0 0 0 0 0 0 0 0 0 0 0 0 0 0 0 127 0" result="hardAlpha"/>
<feOffset dy="4"/>
<feGaussianBlur stdDeviation="2"/>
<feComposite in2="hardAlpha" operator="arithmetic" k2="-1" k3="1"/>
<feColorMatrix type="matrix" values="0 0 0 0 0 0 0 0 0 0 0 0 0 0 0 0 0 0 0.25 0"/>
<feBlend mode="normal" in2="shape" result="effect1_innerShadow_3672_20"/>
</filter>
<clipPath id="clip0_3672_20">
<rect width="20" height="20" fill="white" transform="translate(10.5 10)"/>
</clipPath>
<clipPath id="clip1_3672_20">
<rect width="20" height="20" fill="white" transform="translate(10.5 10)"/>
</clipPath>
</defs>
</svg>
