<svg width="40" height="41" viewBox="0 0 40 41" fill="none" xmlns="http://www.w3.org/2000/svg">
<g filter="url(#filter0_i_3672_256)">
<rect y="0.5" width="40" height="40" rx="20" fill="white"/>
<path d="M18.6822 16.9599C19.6783 16.9599 20.4848 16.1534 20.4848 15.1573C20.4848 14.1612 19.6783 13.3547 18.6822 13.3547C17.6861 13.3547 16.8796 14.1612 16.8796 15.1573C16.8796 16.1507 17.6861 16.9599 18.6822 16.9599Z" fill="black"/>
<path d="M12.8659 28.9183V31.3324C12.8659 31.7009 13.165 32 13.5336 32H22.9257C23.2942 32 23.5933 31.7009 23.5933 31.3324V28.9797H26.2157C27.2652 28.9797 28.1224 28.1224 28.1224 27.0729V23.7348L29.658 23.7055C30.2668 23.6948 30.6514 23.0431 30.3656 22.5064L28.6886 19.3445C28.3147 18.6396 28.1198 17.8544 28.1198 17.0586C28.1198 12.0301 24.0232 7.96024 18.984 8.00029C13.9608 8.04035 9.94974 12.1289 10.0005 17.1521C10.0165 18.5995 10.3717 19.9668 10.9886 21.1738C12.2197 23.5746 12.8659 26.2264 12.8659 28.9183ZM13.8834 14.8448C13.8834 14.6739 13.9849 14.5216 14.1424 14.4549L15.1305 14.0329C15.2347 13.9875 15.3175 13.9021 15.3602 13.7979C15.3655 13.7846 15.3709 13.7739 15.3736 13.7605C15.4163 13.6564 15.4163 13.5416 15.3736 13.4374L14.9676 12.452C14.9036 12.2945 14.9382 12.1102 15.0611 11.99L15.5124 11.5387C15.6326 11.4185 15.8142 11.3812 15.9717 11.4452L16.9732 11.8485C17.0746 11.8886 17.1895 11.8886 17.2936 11.8485C17.3016 11.8458 17.3123 11.8405 17.3203 11.8378C17.4271 11.7951 17.5126 11.7123 17.558 11.6055L17.9719 10.6147C18.0387 10.4572 18.1936 10.353 18.3645 10.353H19.0027C19.1736 10.353 19.3259 10.4545 19.3926 10.6121L19.8199 11.6135C19.8653 11.7176 19.9481 11.7977 20.0522 11.8405C20.0575 11.8432 20.0629 11.8458 20.0683 11.8458C20.1724 11.8886 20.2899 11.8912 20.3941 11.8458L21.3928 11.4346C21.5504 11.3705 21.7346 11.4052 21.8548 11.528L22.3061 11.9793C22.4263 12.0995 22.4637 12.2811 22.3996 12.4387L21.9937 13.4534C21.9536 13.5576 21.9536 13.6724 21.9964 13.7739C21.9964 13.7766 21.999 13.7792 21.999 13.7819C22.0417 13.8887 22.1245 13.9742 22.2314 14.0196L23.2355 14.4388C23.393 14.5056 23.4972 14.6605 23.4972 14.8314V15.4696C23.4972 15.6405 23.3957 15.7928 23.2382 15.8595L22.2287 16.2895C22.1246 16.3349 22.0417 16.4177 21.999 16.5245L21.9937 16.5379C21.9536 16.6393 21.9536 16.7542 21.9964 16.8556L22.413 17.8597C22.4797 18.0173 22.4423 18.2016 22.3195 18.3217L21.8682 18.7731C21.748 18.8932 21.5664 18.9306 21.4089 18.8665L20.3941 18.4606C20.2926 18.4206 20.1778 18.4206 20.0736 18.4633C20.0683 18.466 20.0603 18.4686 20.055 18.4713C19.9508 18.514 19.868 18.5968 19.8226 18.701L19.4114 19.7024C19.3446 19.86 19.1897 19.9641 19.0188 19.9641H18.3806C18.2097 19.9641 18.0575 19.8626 17.9907 19.7051L17.5661 18.7117C17.5207 18.6049 17.4326 18.5221 17.3257 18.482C17.3177 18.4793 17.307 18.474 17.299 18.4713C17.1949 18.4313 17.0801 18.4313 16.9786 18.4713L15.9878 18.8799C15.8303 18.944 15.646 18.9093 15.5258 18.7865L15.0745 18.3351C14.9543 18.215 14.917 18.0334 14.981 17.8758L15.3816 16.8797C15.4244 16.7756 15.4217 16.6608 15.3789 16.5566C15.3736 16.5432 15.3683 16.5326 15.3629 16.5192C15.3202 16.4124 15.2374 16.327 15.1306 16.2842L14.1478 15.8756C13.9903 15.8089 13.8861 15.654 13.8861 15.4831V14.8448H13.8834V14.8448Z" fill="black"/>
</g>
<defs>
<filter id="filter0_i_3672_256" x="0" y="0.5" width="40" height="44" filterUnits="userSpaceOnUse" color-interpolation-filters="sRGB">
<feFlood flood-opacity="0" result="BackgroundImageFix"/>
<feBlend mode="normal" in="SourceGraphic" in2="BackgroundImageFix" result="shape"/>
<feColorMatrix in="SourceAlpha" type="matrix" values="0 0 0 0 0 0 0 0 0 0 0 0 0 0 0 0 0 0 127 0" result="hardAlpha"/>
<feOffset dy="4"/>
<feGaussianBlur stdDeviation="2"/>
<feComposite in2="hardAlpha" operator="arithmetic" k2="-1" k3="1"/>
<feColorMatrix type="matrix" values="0 0 0 0 0 0 0 0 0 0 0 0 0 0 0 0 0 0 0.25 0"/>
<feBlend mode="normal" in2="shape" result="effect1_innerShadow_3672_256"/>
</filter>
</defs>
</svg>
