<svg width="40" height="41" viewBox="0 0 40 41" fill="none" xmlns="http://www.w3.org/2000/svg">
<g filter="url(#filter0_i_3586_37)">
<rect y="0.828369" width="40" height="40" rx="20" fill="white"/>
<g clip-path="url(#clip0_3586_37)">
<path d="M29 18.1209L27.0834 16.5376V13.4543C27.082 13.3744 27.0578 13.2965 27.0134 13.23C26.9691 13.1636 26.9066 13.1112 26.8334 13.0793L22.7084 11.2043H22.5417L22.2917 11.2876L20 12.7876L17.7084 11.2459L17.4584 11.1626H17.2917L13.1667 13.0793C13.0935 13.1112 13.0309 13.1636 12.9866 13.23C12.9423 13.2965 12.918 13.3744 12.9167 13.4543V16.5376L11 18.1209C10.9422 18.1536 10.8955 18.2027 10.8658 18.2621C10.8361 18.3215 10.8248 18.3884 10.8334 18.4543V22.2043C10.8248 22.2701 10.8361 22.337 10.8658 22.3964C10.8955 22.4558 10.9422 22.505 11 22.5376L12.9167 24.1209V27.2043C12.918 27.2842 12.9423 27.362 12.9866 27.4285C13.0309 27.495 13.0935 27.5473 13.1667 27.5793L17.2917 29.4543H17.4584L17.7084 29.3709L20 27.8709L22.2917 29.4126L22.5417 29.4959H22.7084L26.8334 27.6209C26.9066 27.589 26.9691 27.5366 27.0134 27.4701C27.0578 27.4037 27.082 27.3258 27.0834 27.2459V24.1209L29 22.5376C29.0511 22.5081 29.0935 22.4655 29.1228 22.4143C29.1521 22.363 29.1672 22.3049 29.1667 22.2459V18.4126C29.1672 18.3536 29.1521 18.2955 29.1228 18.2442C29.0935 18.193 29.0511 18.1504 29 18.1209ZM26.875 20.9543H27.5V21.6209L26.0417 22.7876L25.875 22.9126L25.7084 22.8293C25.6357 22.7875 25.555 22.7619 25.4715 22.7542C25.3881 22.7464 25.304 22.7567 25.225 22.7844C25.1459 22.8121 25.0737 22.8565 25.0133 22.9145C24.9529 22.9726 24.9058 23.043 24.875 23.1209C24.8003 23.2651 24.7846 23.4327 24.8312 23.5882C24.8779 23.7438 24.9833 23.8751 25.125 23.9543L25.4167 24.0793V26.3293L22.6667 27.6209L20.9167 26.4543L20.625 26.2459V20.9543H21.25C21.4158 20.9543 21.5748 20.8884 21.692 20.7712C21.8092 20.654 21.875 20.495 21.875 20.3293C21.875 20.1635 21.8092 20.0045 21.692 19.8873C21.5748 19.7701 21.4158 19.7043 21.25 19.7043H20.625V14.3709L20.9167 14.1626L22.6667 12.9959L25.4167 14.2876V16.5376L25.125 16.6626C24.9833 16.7418 24.8779 16.8731 24.8312 17.0286C24.7846 17.1842 24.8003 17.3518 24.875 17.4959C24.917 17.6057 24.9912 17.7003 25.0879 17.7672C25.1845 17.8341 25.2991 17.8703 25.4167 17.8709L25.7084 17.7876L25.875 17.7043L26.0417 17.8293L27.5 19.0376V19.7043H26.875C26.7093 19.7043 26.5503 19.7701 26.4331 19.8873C26.3159 20.0045 26.25 20.1635 26.25 20.3293C26.25 20.495 26.3159 20.654 26.4331 20.7712C26.5503 20.8884 26.7093 20.9543 26.875 20.9543ZM18.75 20.9543H19.375V26.2876L19.0834 26.4959L17.3334 27.6626L14.5834 26.3709V24.1209L14.875 23.9959C15.0168 23.9167 15.1222 23.7854 15.1688 23.6299C15.2155 23.4744 15.1998 23.3068 15.125 23.1626C15.0943 23.0847 15.0471 23.0143 14.9867 22.9562C14.9263 22.8981 14.8542 22.8538 14.7751 22.8261C14.696 22.7984 14.6119 22.7881 14.5285 22.7958C14.4451 22.8036 14.3643 22.8292 14.2917 22.8709L14.125 22.9543L13.9584 22.8293L12.5 21.6209V20.9543H13.125C13.2908 20.9543 13.4498 20.8884 13.567 20.7712C13.6842 20.654 13.75 20.495 13.75 20.3293C13.75 20.1635 13.6842 20.0045 13.567 19.8873C13.4498 19.7701 13.2908 19.7043 13.125 19.7043H12.5V19.0376L13.9584 17.8709L14.125 17.7459L14.2917 17.8293L14.5834 17.9126C14.7009 17.912 14.8155 17.8758 14.9122 17.8089C15.0089 17.742 15.083 17.6474 15.125 17.5376C15.1998 17.3934 15.2155 17.2258 15.1688 17.0703C15.1222 16.9147 15.0168 16.7835 14.875 16.7043L14.5834 16.5793V14.2876L17.3334 12.9959L19.0834 14.1626L19.375 14.3709V19.7043H18.75C18.5843 19.7043 18.4253 19.7701 18.3081 19.8873C18.1909 20.0045 18.125 20.1635 18.125 20.3293C18.125 20.495 18.1909 20.654 18.3081 20.7712C18.4253 20.8884 18.5843 20.9543 18.75 20.9543Z" fill="black"/>
<path d="M15.7916 14.4549C15.6903 14.5862 15.6353 14.7474 15.6353 14.9133C15.6353 15.0791 15.6903 15.2403 15.7916 15.3716L16.875 16.4133V17.5799L15.2083 19.2466V21.4133L16.875 23.0799V24.2466L15.7916 25.2883C15.6903 25.4195 15.6353 25.5807 15.6353 25.7466C15.6353 25.9125 15.6903 26.0736 15.7916 26.2049C15.853 26.262 15.9251 26.3062 16.0039 26.3348C16.0826 26.3634 16.1663 26.3759 16.25 26.3716C16.3336 26.3759 16.4173 26.3634 16.4961 26.3348C16.5748 26.3062 16.647 26.262 16.7083 26.2049L18.125 24.7466V22.5799L16.4583 20.9133V19.7466L18.125 18.0799V15.9133L16.7083 14.4549C16.577 14.3536 16.4158 14.2986 16.25 14.2986C16.0841 14.2986 15.9229 14.3536 15.7916 14.4549Z" fill="black"/>
<path d="M23.125 16.4133L24.2083 15.3716C24.3097 15.2403 24.3647 15.0791 24.3647 14.9133C24.3647 14.7474 24.3097 14.5862 24.2083 14.4549C24.077 14.3536 23.9159 14.2986 23.75 14.2986C23.5841 14.2986 23.423 14.3536 23.2917 14.4549L21.875 15.9133V18.0799L23.5417 19.7466V20.9133L21.875 22.5799V24.7466L23.2917 26.2049C23.4197 26.3136 23.5821 26.3732 23.75 26.3732C23.9179 26.3732 24.0803 26.3136 24.2083 26.2049C24.3097 26.0736 24.3647 25.9125 24.3647 25.7466C24.3647 25.5807 24.3097 25.4195 24.2083 25.2883L23.125 24.2466V23.0799L24.7917 21.4133V19.2466L23.125 17.5799V16.4133Z" fill="black"/>
</g>
</g>
<defs>
<filter id="filter0_i_3586_37" x="0" y="0.828369" width="40" height="44" filterUnits="userSpaceOnUse" color-interpolation-filters="sRGB">
<feFlood flood-opacity="0" result="BackgroundImageFix"/>
<feBlend mode="normal" in="SourceGraphic" in2="BackgroundImageFix" result="shape"/>
<feColorMatrix in="SourceAlpha" type="matrix" values="0 0 0 0 0 0 0 0 0 0 0 0 0 0 0 0 0 0 127 0" result="hardAlpha"/>
<feOffset dy="4"/>
<feGaussianBlur stdDeviation="2"/>
<feComposite in2="hardAlpha" operator="arithmetic" k2="-1" k3="1"/>
<feColorMatrix type="matrix" values="0 0 0 0 0 0 0 0 0 0 0 0 0 0 0 0 0 0 0.25 0"/>
<feBlend mode="normal" in2="shape" result="effect1_innerShadow_3586_37"/>
</filter>
<clipPath id="clip0_3586_37">
<rect width="20" height="20" fill="white" transform="translate(10 10.3284)"/>
</clipPath>
</defs>
</svg>
