<svg width="40" height="41" viewBox="0 0 40 41" fill="none" xmlns="http://www.w3.org/2000/svg">
<g filter="url(#filter0_i_3586_218)">
<rect y="0.828369" width="40" height="40" rx="20" fill="white"/>
<path d="M10.5 11.0784C10.5 10.8795 10.421 10.6887 10.2803 10.548C10.1397 10.4074 9.94891 10.3284 9.75 10.3284C9.55109 10.3284 9.36032 10.4074 9.21967 10.548C9.07902 10.6887 9 10.8795 9 11.0784V29.5784C9 29.9924 9.336 30.3284 9.75 30.3284H28C28.1989 30.3284 28.3897 30.2494 28.5303 30.1087C28.671 29.968 28.75 29.7773 28.75 29.5784C28.75 29.3795 28.671 29.1887 28.5303 29.048C28.3897 28.9074 28.1989 28.8284 28 28.8284H10.5V11.0784Z" fill="black"/>
<path d="M30.28 16.1085C30.4125 15.9663 30.4846 15.7782 30.4812 15.5839C30.4777 15.3896 30.399 15.2043 30.2616 15.0668C30.1242 14.9294 29.9388 14.8507 29.7445 14.8473C29.5502 14.8439 29.3622 14.916 29.22 15.0485L23.5 20.7685L19.78 17.0485C19.6394 16.908 19.4488 16.8291 19.25 16.8291C19.0513 16.8291 18.8606 16.908 18.72 17.0485L12.72 23.0485C12.6463 23.1171 12.5872 23.1999 12.5462 23.2919C12.5052 23.3839 12.4832 23.4832 12.4814 23.5839C12.4796 23.6846 12.4982 23.7847 12.5359 23.8781C12.5736 23.9714 12.6297 24.0563 12.701 24.1275C12.7722 24.1987 12.857 24.2549 12.9504 24.2926C13.0438 24.3303 13.1438 24.3488 13.2445 24.3471C13.3452 24.3453 13.4445 24.3232 13.5365 24.2822C13.6285 24.2412 13.7113 24.1821 13.78 24.1085L19.25 18.6385L22.97 22.3585C23.1106 22.4989 23.3013 22.5778 23.5 22.5778C23.6988 22.5778 23.8894 22.4989 24.03 22.3585L30.28 16.1085Z" fill="black"/>
</g>
<defs>
<filter id="filter0_i_3586_218" x="0" y="0.828369" width="40" height="44" filterUnits="userSpaceOnUse" color-interpolation-filters="sRGB">
<feFlood flood-opacity="0" result="BackgroundImageFix"/>
<feBlend mode="normal" in="SourceGraphic" in2="BackgroundImageFix" result="shape"/>
<feColorMatrix in="SourceAlpha" type="matrix" values="0 0 0 0 0 0 0 0 0 0 0 0 0 0 0 0 0 0 127 0" result="hardAlpha"/>
<feOffset dy="4"/>
<feGaussianBlur stdDeviation="2"/>
<feComposite in2="hardAlpha" operator="arithmetic" k2="-1" k3="1"/>
<feColorMatrix type="matrix" values="0 0 0 0 0 0 0 0 0 0 0 0 0 0 0 0 0 0 0.25 0"/>
<feBlend mode="normal" in2="shape" result="effect1_innerShadow_3586_218"/>
</filter>
</defs>
</svg>
