<svg width="41" height="41" viewBox="0 0 41 41" fill="none" xmlns="http://www.w3.org/2000/svg">
<g filter="url(#filter0_i_3586_176)">
<rect x="0.5" y="0.828369" width="40" height="40" rx="20" fill="white"/>
<path d="M25.5527 16.3452L22.9004 18.9975M22.9004 18.9975C22.2952 18.3922 21.4589 18.0177 20.5352 18.0177C19.6114 18.0177 18.7752 18.3922 18.1698 18.9975M22.9004 18.9975C23.5058 19.6028 23.8802 20.4391 23.8802 21.3628C23.8802 22.2865 23.5058 23.1228 22.9004 23.7281M18.1698 18.9975C17.5645 19.6028 17.1901 20.4391 17.1901 21.3628C17.1901 22.2865 17.5645 23.1228 18.1698 23.7281M18.1698 18.9975L15.5176 16.3452M22.9004 23.7281L25.5527 26.3804M22.9004 23.7281C22.2952 24.3334 21.4589 24.7078 20.5352 24.7078C19.6114 24.7078 18.7752 24.3334 18.1698 23.7281M18.1698 23.7281L15.5176 26.3804M28.0615 21.3628C28.0615 25.5195 24.6919 28.8892 20.5352 28.8892C16.3785 28.8892 13.0088 25.5195 13.0088 21.3628C13.0088 17.2061 16.3785 13.8364 20.5352 13.8364C24.6919 13.8364 28.0615 17.2061 28.0615 21.3628Z" stroke="black" stroke-width="1.67253" stroke-linecap="round" stroke-linejoin="round"/>
</g>
<defs>
<filter id="filter0_i_3586_176" x="0.5" y="0.828369" width="40" height="44" filterUnits="userSpaceOnUse" color-interpolation-filters="sRGB">
<feFlood flood-opacity="0" result="BackgroundImageFix"/>
<feBlend mode="normal" in="SourceGraphic" in2="BackgroundImageFix" result="shape"/>
<feColorMatrix in="SourceAlpha" type="matrix" values="0 0 0 0 0 0 0 0 0 0 0 0 0 0 0 0 0 0 127 0" result="hardAlpha"/>
<feOffset dy="4"/>
<feGaussianBlur stdDeviation="2"/>
<feComposite in2="hardAlpha" operator="arithmetic" k2="-1" k3="1"/>
<feColorMatrix type="matrix" values="0 0 0 0 0 0 0 0 0 0 0 0 0 0 0 0 0 0 0.25 0"/>
<feBlend mode="normal" in2="shape" result="effect1_innerShadow_3586_176"/>
</filter>
</defs>
</svg>
