<svg width="40" height="41" viewBox="0 0 40 41" fill="none" xmlns="http://www.w3.org/2000/svg">
<g filter="url(#filter0_i_3672_152)">
<rect y="0.5" width="40" height="40" rx="20" fill="white"/>
<path d="M30.7381 26.942H30.8583L31.3272 21.424L32 19.9949L31.7921 16.9245C31.8427 16.2868 31.2829 15.9279 30.9342 15.7808L30.2994 17.3503L30.1278 15.9943L30.2337 15.9105L30.2053 15.5417L30.467 15.4495C30.4401 15.4116 30.4235 15.3752 30.4235 15.344C30.4235 15.2578 30.4235 15.1499 30.4235 15.0028C30.5278 14.8799 30.6069 14.6304 30.6536 14.3482C30.7192 14.3228 30.7619 14.2849 30.818 13.9881C30.8568 13.7785 30.7951 13.6492 30.7809 13.6492C30.8069 13.4591 30.8425 13.0831 30.7493 12.8946C30.7493 12.8946 30.8133 12.772 30.8133 12.6088C30.5445 12.6494 29.6858 12.0644 29.4297 12.5407C29.0573 12.4996 28.8359 13.0567 29.0043 13.6492C29.0043 13.6492 28.7956 13.639 28.8793 13.9485C28.9568 14.2399 29.0201 14.3062 29.1292 14.3482C29.1766 14.6304 29.2549 14.8799 29.3593 15.0028C29.3593 15.1499 29.3593 15.2578 29.3593 15.344C29.3593 15.3625 29.3538 15.3823 29.3443 15.4037L29.6827 15.5234L29.6526 15.9104L29.7586 15.9943L29.5823 17.3929L28.7837 15.8037C28.6707 15.8464 28.5283 15.9033 28.3821 15.9753L28.1133 17.9741L27.997 16.2517C28.0626 15.4215 27.2783 14.9779 26.8664 14.8241C26.8411 14.8147 26.8143 14.8024 26.7858 14.7869L26.1248 16.422L25.9382 14.9474L26.0537 14.8557L26.022 14.4553L26.3304 14.3465C26.3288 14.3386 26.3272 14.3311 26.3272 14.3236C26.3272 14.2188 26.3272 14.0876 26.3272 13.9077C26.4537 13.7579 26.5502 13.4535 26.6079 13.1092C26.6877 13.0784 26.7399 13.0317 26.8079 12.67C26.8562 12.4142 26.781 12.2569 26.762 12.2569C26.7944 12.0248 26.8387 11.5663 26.7241 11.3362C26.7241 11.3362 26.8024 11.1867 26.8024 10.9875C26.4742 11.0369 25.4266 10.3233 25.1135 10.9045C24.6605 10.8543 24.3901 11.5342 24.5957 12.2569C24.5957 12.2569 24.3411 12.2438 24.443 12.6222C24.5379 12.9772 24.6146 13.0582 24.7482 13.1092C24.806 13.4535 24.9016 13.7579 25.0289 13.9077C25.0289 14.0662 25.0289 14.1864 25.0289 14.2849L25.4534 14.4355L25.421 14.8557L25.5357 14.9474L25.3435 16.4683L24.5126 14.8139C24.5047 14.8174 24.4968 14.821 24.4896 14.8242C24.2746 14.904 23.8247 15.0629 23.4578 15.3136L23.0918 18.0358L22.9226 15.5334V15.533C22.9289 15.4539 22.9258 15.3776 22.9155 15.3049C22.8119 14.4997 21.826 14.0502 21.365 13.8739L20.4447 15.8295L20.217 14.0276L20.357 13.9162L20.3174 13.4031L20.6969 13.2686C20.6969 13.1469 20.6969 12.9947 20.6969 12.7871C20.8456 12.6116 20.9586 12.255 21.0259 11.851C21.1824 11.7921 21.2718 11.6968 21.384 11.2806C21.5026 10.8374 21.2045 10.8528 21.2045 10.8528C21.4457 10.0057 21.1287 9.20986 20.5973 9.26836C20.2305 8.58764 19.0034 9.4237 18.6192 9.36557C18.6192 9.59882 18.7109 9.77395 18.7109 9.77395C18.5772 10.0432 18.6287 10.5812 18.6666 10.8528C18.6445 10.8524 18.3748 10.8556 18.4895 11.2806C18.6018 11.6968 18.6903 11.7921 18.8477 11.851C18.9149 12.255 19.0271 12.6116 19.1758 12.7871C19.1758 12.9947 19.1758 13.1469 19.1758 13.2686L19.6241 13.4272L19.5861 13.9162L19.7269 14.0276L19.4841 15.9465L18.5085 13.8739C18.0048 14.0656 16.8766 14.5835 16.9509 15.5331L16.8244 17.4069L16.543 15.3136C16.1761 15.063 15.7255 14.9041 15.5112 14.8242C15.5033 14.821 15.4953 14.8175 15.4874 14.8139L14.6565 16.4683L14.4643 14.9475L14.579 14.8558L14.5465 14.4356L14.9711 14.2849C14.9711 14.1865 14.9711 14.0663 14.9711 13.9078C15.0976 13.7579 15.1948 13.4535 15.2517 13.1092C15.3853 13.0582 15.462 12.9772 15.5577 12.6222C15.6589 12.2439 15.4043 12.2569 15.4043 12.2569C15.6099 11.5343 15.3395 10.8543 14.8865 10.9045C14.5734 10.3234 13.5258 11.0369 13.1976 10.9875C13.1976 11.1868 13.2759 11.3362 13.2759 11.3362C13.1621 11.5663 13.2056 12.0249 13.238 12.2569C13.219 12.2569 13.1439 12.4143 13.1922 12.67C13.2609 13.0318 13.3123 13.0784 13.393 13.1092C13.4499 13.4536 13.5455 13.7579 13.6729 13.9078C13.6729 14.0877 13.6729 14.2189 13.6729 14.3236C13.6729 14.3311 13.6713 14.3386 13.6705 14.3466L13.9781 14.4553L13.9465 14.8558L14.0619 14.9475L13.8761 16.422L13.2143 14.787C13.1858 14.8024 13.1582 14.8147 13.1337 14.8242C12.7218 14.978 11.9382 15.4215 12.0038 16.2517L11.8868 17.9777L11.6172 15.9754C11.4718 15.9034 11.3294 15.8465 11.2164 15.8038L10.4178 17.3933L10.2415 15.9943L10.3474 15.9104L10.3174 15.5234L10.6565 15.4037C10.6463 15.3823 10.6407 15.3625 10.6407 15.344C10.6407 15.2578 10.6407 15.1499 10.6407 15.0028C10.7443 14.8799 10.8242 14.6304 10.8708 14.3482C10.9807 14.3062 11.0432 14.2399 11.1214 13.9485C11.2044 13.639 10.9965 13.6492 10.9965 13.6492C11.1649 13.0567 10.9427 12.4996 10.5711 12.5407C10.3149 12.0644 9.45552 12.6494 9.18669 12.6088C9.18669 12.772 9.25072 12.8946 9.25072 12.8946C9.15744 13.0831 9.19306 13.4591 9.21992 13.6492C9.20492 13.6492 9.14323 13.7785 9.18275 13.9881C9.23811 14.285 9.28081 14.3229 9.34644 14.3482C9.39388 14.6304 9.47216 14.8799 9.5765 15.0028C9.5765 15.1499 9.5765 15.2578 9.5765 15.344C9.5765 15.3752 9.5607 15.4116 9.53384 15.4495L9.79475 15.5417L9.7655 15.9105L9.87144 15.9943L9.70072 17.3495L9.0658 15.7809C8.71714 15.928 8.15736 16.2869 8.20714 16.9245L8 19.9949L8.67284 21.424L9.14248 26.942H9.26262L9.26028 27.0266L8.54314 27.8481L8.78192 28.1465L10.2162 27.6678V26.942H10.2865L10.2968 22.8468L11.1128 26.942H11.3057L11.3135 26.9941L11.1744 27.7097L11.4686 28.1374L12.0346 28.0947L12.2568 27.6353L12.1895 26.9419H12.2568L11.9208 21.424L12.1714 20.8919L12.5707 21.7402L13.1431 28.4714H13.2894L13.287 28.5746L12.4126 29.5763L12.7043 29.9408L14.4532 29.3561V28.4714H14.5386L14.552 23.4757L15.5475 28.4714H15.7823L15.7926 28.5351L15.6227 29.4083L15.9808 29.9297L16.6718 29.8772L16.943 29.317L16.8608 28.4714H16.943L16.5327 21.7402L17.0221 20.7009L17.6158 21.9635V29.2149H17.7953L17.7945 29.2529L16.7026 30.5044L17.0663 30.9594L19.2509 30.2293V29.2149L19.9363 23.997L20.6226 29.2149H20.693V30.2293L22.8767 30.9594L23.2412 30.5044L22.1486 29.2529L22.1477 29.2149H22.2576V21.9637L22.9146 20.5666L23.4681 21.7403L23.0577 28.4715H23.14L23.0577 29.3171L23.3281 29.8773L24.0192 29.9298L24.3781 29.4084L24.2073 28.5352L24.2176 28.4715H24.4525L25.4487 23.4758L25.4613 28.4715H25.5467V29.3562L27.2964 29.9409L27.5873 29.5764L26.7129 28.5747L26.7105 28.4715H26.8568L27.4292 21.7403L27.8285 20.892L28.0791 21.4241L27.7431 26.942H27.8104L27.7431 27.6354L27.9653 28.0948L28.5313 28.1375L28.8255 27.7098L28.6864 26.9942L28.6942 26.9421H28.8872L29.7031 22.8469L29.7141 26.9421H29.7845V27.6679L31.218 28.1466L31.4568 27.8482L30.7396 27.0267L30.7381 26.942Z" fill="black"/>
</g>
<defs>
<filter id="filter0_i_3672_152" x="0" y="0.5" width="40" height="44" filterUnits="userSpaceOnUse" color-interpolation-filters="sRGB">
<feFlood flood-opacity="0" result="BackgroundImageFix"/>
<feBlend mode="normal" in="SourceGraphic" in2="BackgroundImageFix" result="shape"/>
<feColorMatrix in="SourceAlpha" type="matrix" values="0 0 0 0 0 0 0 0 0 0 0 0 0 0 0 0 0 0 127 0" result="hardAlpha"/>
<feOffset dy="4"/>
<feGaussianBlur stdDeviation="2"/>
<feComposite in2="hardAlpha" operator="arithmetic" k2="-1" k3="1"/>
<feColorMatrix type="matrix" values="0 0 0 0 0 0 0 0 0 0 0 0 0 0 0 0 0 0 0.25 0"/>
<feBlend mode="normal" in2="shape" result="effect1_innerShadow_3672_152"/>
</filter>
</defs>
</svg>
