<svg width="41" height="41" viewBox="0 0 41 41" fill="none" xmlns="http://www.w3.org/2000/svg">
<g filter="url(#filter0_i_3672_157)">
<rect x="0.5" y="0.5" width="40" height="40" rx="20" fill="white"/>
<g clip-path="url(#clip0_3672_157)">
<path d="M30.0286 20.0006L30.4604 18.7053C30.5947 18.3023 30.3769 17.8666 29.9739 17.7323C29.5709 17.598 29.1352 17.8158 29.0008 18.2188L28.6634 19.2313H27.3876C26.9977 14.9248 23.3678 11.5391 18.9615 11.5391C14.2958 11.5391 10.5 15.3349 10.5 20.0005C10.5 24.6662 14.2958 28.462 18.9615 28.462C23.3678 28.462 26.9976 25.0763 27.3876 20.7697H28.6634L29.0008 21.7822C29.1083 22.1046 29.4084 22.3084 29.7305 22.3084C29.8111 22.3084 29.8931 22.2956 29.9739 22.2687C30.3768 22.1344 30.5946 21.6988 30.4603 21.2957L30.0286 20.0006ZM18.9615 26.9236C15.1441 26.9236 12.0384 23.818 12.0384 20.0006C12.0384 16.1832 15.1441 13.0776 18.9615 13.0776C22.5188 13.0776 25.4576 15.7747 25.8415 19.2313H24.2908C23.9164 16.6254 21.6694 14.616 18.9615 14.616C15.9925 14.616 13.5769 17.0315 13.5769 20.0006C13.5769 22.9696 15.9925 25.3851 18.9615 25.3851C21.6694 25.3851 23.9164 23.3757 24.2908 20.7698H25.8415C25.4576 24.2264 22.5188 26.9236 18.9615 26.9236ZM21.1368 19.2313C20.8193 18.3361 19.9643 17.6929 18.9615 17.6929C17.689 17.6929 16.6538 18.7281 16.6538 20.0006C16.6538 21.273 17.6891 22.3082 18.9615 22.3082C19.9643 22.3082 20.8193 21.6651 21.1368 20.7698H22.7301C22.3728 22.5232 20.8188 23.8467 18.9615 23.8467C16.8407 23.8467 15.1153 22.1213 15.1153 20.0006C15.1153 17.8798 16.8407 16.1545 18.9615 16.1545C20.8188 16.1545 22.3728 17.4779 22.7301 19.2313H21.1368Z" fill="black"/>
</g>
</g>
<defs>
<filter id="filter0_i_3672_157" x="0.5" y="0.5" width="40" height="44" filterUnits="userSpaceOnUse" color-interpolation-filters="sRGB">
<feFlood flood-opacity="0" result="BackgroundImageFix"/>
<feBlend mode="normal" in="SourceGraphic" in2="BackgroundImageFix" result="shape"/>
<feColorMatrix in="SourceAlpha" type="matrix" values="0 0 0 0 0 0 0 0 0 0 0 0 0 0 0 0 0 0 127 0" result="hardAlpha"/>
<feOffset dy="4"/>
<feGaussianBlur stdDeviation="2"/>
<feComposite in2="hardAlpha" operator="arithmetic" k2="-1" k3="1"/>
<feColorMatrix type="matrix" values="0 0 0 0 0 0 0 0 0 0 0 0 0 0 0 0 0 0 0.25 0"/>
<feBlend mode="normal" in2="shape" result="effect1_innerShadow_3672_157"/>
</filter>
<clipPath id="clip0_3672_157">
<rect width="20" height="20" fill="white" transform="translate(10.5 10)"/>
</clipPath>
</defs>
</svg>
