<svg width="40" height="41" viewBox="0 0 40 41" fill="none" xmlns="http://www.w3.org/2000/svg">
<g filter="url(#filter0_i_3672_163)">
<rect y="0.5" width="40" height="40" rx="20" fill="white"/>
<g clip-path="url(#clip0_3672_163)">
<path d="M19.9999 15.4333C20.8789 15.4333 21.5915 14.7207 21.5915 13.8417C21.5915 12.9626 20.8789 12.25 19.9999 12.25C19.1208 12.25 18.4082 12.9626 18.4082 13.8417C18.4082 14.7207 19.1208 15.4333 19.9999 15.4333Z" stroke="#020202" stroke-width="1.59167" stroke-miterlimit="10"/>
<path d="M17.6167 17.8169C17.6167 17.1848 17.8678 16.5786 18.3148 16.1317C18.7617 15.6847 19.3679 15.4336 20 15.4336C20.6321 15.4336 21.2383 15.6847 21.6853 16.1317C22.1323 16.5786 22.3834 17.1848 22.3834 17.8169" stroke="#020202" stroke-width="1.59167" stroke-miterlimit="10"/>
<path d="M26.3666 24.9751C27.2456 24.9751 27.9582 24.2625 27.9582 23.3834C27.9582 22.5044 27.2456 21.7917 26.3666 21.7917C25.4875 21.7917 24.7749 22.5044 24.7749 23.3834C24.7749 24.2625 25.4875 24.9751 26.3666 24.9751Z" stroke="#020202" stroke-width="1.59167" stroke-miterlimit="10"/>
<path d="M23.9751 27.367C23.974 27.0526 24.0351 26.7411 24.1549 26.4505C24.2747 26.1598 24.4509 25.8957 24.6732 25.6734C24.8955 25.4511 25.1596 25.275 25.4502 25.1552C25.7409 25.0354 26.0524 24.9743 26.3668 24.9754C26.6805 24.9754 26.9911 25.0373 27.2808 25.1576C27.5705 25.2779 27.8336 25.4542 28.055 25.6764C28.2764 25.8986 28.4518 26.1623 28.5711 26.4524C28.6904 26.7425 28.7512 27.0533 28.7501 27.367" stroke="#020202" stroke-width="1.59167" stroke-miterlimit="10"/>
<path d="M13.6332 24.9751C14.5122 24.9751 15.2248 24.2625 15.2248 23.3834C15.2248 22.5044 14.5122 21.7917 13.6332 21.7917C12.7541 21.7917 12.0415 22.5044 12.0415 23.3834C12.0415 24.2625 12.7541 24.9751 13.6332 24.9751Z" stroke="#020202" stroke-width="1.59167" stroke-miterlimit="10"/>
<path d="M11.25 27.367C11.2489 27.0533 11.3098 26.7425 11.429 26.4524C11.5483 26.1623 11.7237 25.8986 11.9451 25.6764C12.1665 25.4542 12.4297 25.2779 12.7194 25.1576C13.0091 25.0373 13.3197 24.9754 13.6333 24.9754C13.9477 24.9743 14.2592 25.0354 14.5499 25.1552C14.8406 25.275 15.1047 25.4511 15.327 25.6734C15.5493 25.8957 15.7254 26.1598 15.8452 26.4505C15.965 26.7411 16.0261 27.0526 16.025 27.367" stroke="#020202" stroke-width="1.59167" stroke-miterlimit="10"/>
<path d="M12.0581 20.4757C12.1457 19.1462 12.5664 17.8601 13.2814 16.7359C13.9965 15.6117 14.9829 14.6854 16.1498 14.0424" stroke="#020202" stroke-width="1.59167" stroke-miterlimit="10"/>
<path d="M23.8501 14.0424C25.017 14.6854 26.0034 15.6117 26.7184 16.7359C27.4335 17.8601 27.8542 19.1462 27.9418 20.4757" stroke="#020202" stroke-width="1.59167" stroke-miterlimit="10"/>
<path d="M16.9917 29.1581C18.9196 29.9472 21.0804 29.9472 23.0084 29.1581" stroke="#020202" stroke-width="1.59167" stroke-miterlimit="10"/>
</g>
</g>
<defs>
<filter id="filter0_i_3672_163" x="0" y="0.5" width="40" height="44" filterUnits="userSpaceOnUse" color-interpolation-filters="sRGB">
<feFlood flood-opacity="0" result="BackgroundImageFix"/>
<feBlend mode="normal" in="SourceGraphic" in2="BackgroundImageFix" result="shape"/>
<feColorMatrix in="SourceAlpha" type="matrix" values="0 0 0 0 0 0 0 0 0 0 0 0 0 0 0 0 0 0 127 0" result="hardAlpha"/>
<feOffset dy="4"/>
<feGaussianBlur stdDeviation="2"/>
<feComposite in2="hardAlpha" operator="arithmetic" k2="-1" k3="1"/>
<feColorMatrix type="matrix" values="0 0 0 0 0 0 0 0 0 0 0 0 0 0 0 0 0 0 0.25 0"/>
<feBlend mode="normal" in2="shape" result="effect1_innerShadow_3672_163"/>
</filter>
<clipPath id="clip0_3672_163">
<rect width="20" height="20" fill="white" transform="translate(10 11)"/>
</clipPath>
</defs>
</svg>
